<?xml version="1.0" encoding="utf-8"?>
<!-- Generator: Adobe Illustrator 27.8.1, SVG Export Plug-In . SVG Version: 6.00 Build 0)  -->
<svg version="1.1" id="圖層_1" xmlns="http://www.w3.org/2000/svg" xmlns:xlink="http://www.w3.org/1999/xlink" x="0px" y="0px"
	 viewBox="0 0 602 259" style="enable-background:new 0 0 602 259;" xml:space="preserve">
<style type="text/css">
	.st0{clip-path:url(#SVGID_00000001648114450479107170000012640876286042569895_);fill:#00367C;}
	.st1{clip-path:url(#SVGID_00000078032974281687585510000000549011412601227141_);fill:#FFE400;}
	.st2{fill:#00367C;}
	.st3{fill:#FFE400;}
	.st4{enable-background:new    ;}
	.st5{clip-path:url(#SVGID_00000101094430904644720690000018153577739339003778_);fill:#00367C;}
	.st6{clip-path:url(#SVGID_00000030461252149549968310000015468768468416376741_);fill:#FFE400;}
</style>
<g id="_x30_2_00000154423878631150367310000003835892324006408619_">
	<text transform="matrix(1 0 0 1 21.2422 317.2995)" style="font-family:'SourceHanSansTC-Normal-B5pc-H'; font-size:12px;">總報酬, %</text>
	<text transform="matrix(1 0 0 1 29.1201 347.6362)" style="font-family:'SourceHanSansTC-Normal-B5pc-H'; font-size:12px;">10</text>
	<text transform="matrix(1 0 0 1 36.2201 375.6362)" style="font-family:'SourceHanSansTC-Normal-B5pc-H'; font-size:12px;">5</text>
	<text transform="matrix(1 0 0 1 36.2201 403.6362)" style="font-family:'SourceHanSansTC-Normal-B5pc-H'; font-size:12px;">0</text>
	<text transform="matrix(1 0 0 1 31.8201 431.6362)" style="font-family:'SourceHanSansTC-Normal-B5pc-H'; font-size:12px;">-5</text>
	<text transform="matrix(1 0 0 1 24.6201 459.6362)" style="font-family:'SourceHanSansTC-Normal-B5pc-H'; font-size:12px;">-10</text>
	<g>
		<g>
			<defs>
				<rect id="SVGID_1_" x="47.6" y="348" width="533.4" height="107"/>
			</defs>
			<clipPath id="SVGID_00000054978634489330647490000005502308821055081097_">
				<use xlink:href="#SVGID_1_"  style="overflow:visible;"/>
			</clipPath>
			<path style="clip-path:url(#SVGID_00000054978634489330647490000005502308821055081097_);fill:#00367C;" d="M539.9,365.2h17.6
				v36.3h-17.6V365.2z M495.8,367.1h17.6v34.4h-17.6L495.8,367.1L495.8,367.1z M451.7,382.4h17.6v19.1h-17.6V382.4z M407.6,367.1
				h17.6v34.4h-17.6V367.1z M363.5,363.3h17.6v38.2h-17.6V363.3z M318,380.5h17.6v21H318V380.5z M273.9,370.9h17.6v30.6h-17.6V370.9
				z M229.8,369h17.6v32.5h-17.6V369z M185.7,370.9h17.6v30.6h-17.6V370.9z M141.6,367.1h17.6v34.4h-17.6V367.1z M96.1,390h17.6
				v11.5H96.1V390z M52,365.2h17.6v36.3H52V365.2z"/>
		</g>
	</g>
	<g>
		<g>
			<defs>
				<rect id="SVGID_00000176725659457570575270000001111535514970077876_" x="47.6" y="348" width="533.4" height="107"/>
			</defs>
			<clipPath id="SVGID_00000003825129364410795140000014949035582517831838_">
				<use xlink:href="#SVGID_00000176725659457570575270000001111535514970077876_"  style="overflow:visible;"/>
			</clipPath>
			<path style="clip-path:url(#SVGID_00000003825129364410795140000014949035582517831838_);fill:#FFE400;" d="M558.5,434h17.6
				v-32.5h-17.6V434z M514.4,420.6H532v-19.1h-17.6V420.6z M470.3,395.8h17.6v5.7h-17.6V395.8z M426.2,390h17.6v11.5h-17.6V390z
				 M382.1,390h17.6v11.5h-17.6V390z M336.6,386.2h17.6v15.3h-17.6V386.2z M292.5,386.2h17.6v15.3h-17.6V386.2z M248.4,378.6H266
				v22.9h-17.6V378.6z M204.3,372.8H222v28.7h-17.6L204.3,372.8L204.3,372.8z M160.2,372.8h17.6v28.7h-17.6V372.8z M114.7,370.9
				h19.1v30.6h-19.1C114.7,401.5,114.7,370.9,114.7,370.9z M70.6,370.9h17.6v30.6H70.6V370.9z"/>
		</g>
	</g>
	<g>
		<text transform="matrix(1 0 0 1 188.8745 321.3141)" style="font-family:'SourceHanSansTC-Normal-B5pc-H'; font-size:12px;">Fed暫停升息階段</text>
		<rect x="172" y="311.3" class="st2" width="12" height="12"/>
	</g>
	<g>
		<text transform="matrix(1 0 0 1 356.8745 320.9919)" style="font-family:'SourceHanSansTC-Normal-B5pc-H'; font-size:12px;">Fed降息階段</text>
		<rect x="341" y="311" class="st3" width="12" height="12"/>
	</g>
	
		<text transform="matrix(1 0 0 1 555.999 462.999)" style="font-family:'SourceHanSansTC-Normal-B5pc-H'; font-size:12px;glyph-orientation-vertical:0;writing-mode:tb;">能源</text>
	
		<text transform="matrix(1 0 0 1 511.999 462.999)" style="font-family:'SourceHanSansTC-Normal-B5pc-H'; font-size:12px;glyph-orientation-vertical:0;writing-mode:tb;">不動產</text>
	
		<text transform="matrix(1 0 0 1 467.999 462.999)" style="font-family:'SourceHanSansTC-Normal-B5pc-H'; font-size:12px;glyph-orientation-vertical:0;writing-mode:tb;">原物料</text>
	
		<text transform="matrix(1 0 0 1 423.999 462.999)" style="font-family:'SourceHanSansTC-Normal-B5pc-H'; font-size:12px;glyph-orientation-vertical:0;writing-mode:tb;">金融</text>
	
		<text transform="matrix(1 0 0 1 379.999 462.999)" style="font-family:'SourceHanSansTC-Normal-B5pc-H'; font-size:12px;glyph-orientation-vertical:0;writing-mode:tb;">工業</text>
	
		<text transform="matrix(1 0 0 1 335.999 462.999)" style="font-family:'SourceHanSansTC-Normal-B5pc-H'; font-size:12px;glyph-orientation-vertical:0;writing-mode:tb;">非必需效費</text>
	
		<text transform="matrix(1 0 0 1 291.999 462.999)" style="font-family:'SourceHanSansTC-Normal-B5pc-H'; font-size:12px;glyph-orientation-vertical:0;writing-mode:tb;">美國投資級債</text>
	
		<text transform="matrix(1 0 0 1 247.999 462.999)" style="font-family:'SourceHanSansTC-Normal-B5pc-H'; font-size:12px;glyph-orientation-vertical:0;writing-mode:tb;">公用事業</text>
	
		<text transform="matrix(1 0 0 1 203.999 462.999)" style="font-family:'SourceHanSansTC-Normal-B5pc-H'; font-size:12px;glyph-orientation-vertical:0;writing-mode:tb;">通訊服務</text>
	
		<text transform="matrix(1 0 0 1 159.999 462.999)" style="font-family:'SourceHanSansTC-Normal-B5pc-H'; font-size:12px;glyph-orientation-vertical:0;writing-mode:tb;">健護醫療</text>
	
		<text transform="matrix(1 0 0 1 115.999 462.999)" style="font-family:'SourceHanSansTC-Normal-B5pc-H'; font-size:12px;glyph-orientation-vertical:0;writing-mode:tb;">科技</text>
	
		<text transform="matrix(1 0 0 1 71.999 462.999)" style="font-family:'SourceHanSansTC-Normal-B5pc-H'; font-size:12px;glyph-orientation-vertical:0;writing-mode:tb;">必須消費</text>
</g>
<g id="_x30_2_00000078012207297350572060000011411050044241734329_">
	<g class="st4">
		<path d="M25.3,26.4c0-0.2-0.1-0.4-0.2-0.7c-2.6,0.5-2.9,0.6-3.1,0.7c0-0.2-0.2-0.5-0.3-0.7c0.2,0,0.5-0.4,0.9-0.8
			c0.2-0.2,0.6-0.8,1-1.5c-1.3,0.2-1.6,0.2-1.7,0.3c0-0.2-0.2-0.5-0.2-0.7c0.2,0,0.4-0.3,0.6-0.7c0.2-0.3,1-1.8,1.4-3l0.7,0.3
			c-0.5,1.2-1.1,2.4-1.7,3.3l1.3-0.1c0.3-0.5,0.6-1.1,0.9-1.6l0.7,0.3c-0.8,1.5-1.7,2.9-2.7,4l2-0.3c-0.1-0.4-0.3-0.7-0.4-1.1
			l0.6-0.2c0.3,0.7,0.6,1.7,0.8,2.3L25.3,26.4z M23.1,27c-0.2,1-0.4,2.1-0.7,2.9c-0.1-0.1-0.4-0.2-0.6-0.2c0.3-0.7,0.5-1.8,0.7-2.8
			L23.1,27z M24.1,26.9c0.1,0.8,0.3,1.9,0.3,2.6l-0.6,0.1c0-0.7-0.2-1.8-0.3-2.6L24.1,26.9z M25.2,26.6c0.2,0.7,0.5,1.5,0.6,2.1
			l-0.6,0.2c-0.1-0.6-0.3-1.4-0.5-2.1L25.2,26.6z M25.7,29.3c0.3-0.6,0.7-1.7,0.8-2.4l0.6,0.2c-0.2,0.8-0.4,1.8-0.8,2.5L25.7,29.3z
			 M32.1,25.9h-5.6v-5.5h1.6c0.2-0.4,0.3-0.9,0.5-1.2l0.8,0.2c-0.2,0.4-0.4,0.7-0.5,1h3.2V25.9z M31.4,21.1h-4.1v4.2h4.1V21.1z
			 M30.3,29.3c0.4,0,0.5-0.2,0.5-1.3c0.1,0.1,0.4,0.2,0.6,0.3c-0.1,1.3-0.3,1.6-1.1,1.6h-1.8c-0.9,0-1.2-0.2-1.2-0.9v-2.2H28V29
			c0,0.3,0.1,0.3,0.6,0.3H30.3z M30.6,24.8c-0.2-0.3-0.5-0.6-0.8-1c-0.4,0.5-0.9,0.9-1.5,1.3c-0.1-0.1-0.3-0.3-0.4-0.4
			c0.6-0.4,1.1-0.8,1.5-1.3c-0.2-0.2-0.4-0.4-0.6-0.6c-0.3,0.3-0.7,0.6-1.1,0.9c-0.1-0.1-0.3-0.3-0.4-0.4c0.4-0.3,0.8-0.6,1.1-0.9
			c-0.3-0.3-0.5-0.5-0.8-0.7l0.5-0.3c0.2,0.2,0.5,0.4,0.7,0.6c0.2-0.3,0.4-0.6,0.5-0.8l0.6,0.1c-0.2,0.3-0.4,0.7-0.7,1.1
			c0.2,0.2,0.4,0.4,0.6,0.6c0.3-0.4,0.5-0.7,0.7-1.1l0.6,0.1c-0.2,0.5-0.6,0.9-0.9,1.4c0.3,0.4,0.7,0.8,0.9,1.1L30.6,24.8z
			 M29.9,28.3c-0.2-0.5-0.7-1.3-1.1-1.9l0.6-0.3c0.4,0.6,0.9,1.4,1.2,1.8L29.9,28.3z M31.7,26.8c0.4,0.7,0.8,1.7,1.1,2.3l-0.6,0.3
			c-0.2-0.6-0.7-1.6-1-2.3L31.7,26.8z"/>
		<path d="M36.9,27H39v0.7h-2.2v2.4h-0.8v-2.4h-2.3V27h2.3v-1.4h-2V25h2.7c0.3-0.5,0.7-1.2,0.9-1.7l0.7,0.2
			c-0.3,0.5-0.6,1.1-0.9,1.5h1.3v0.7h-1.9V27z M39,23.2h-5.2v-0.7h2.3v-1.3h-1.9v-0.7h1.9v-1.3h0.8v1.3h1.8v0.7h-1.8v1.3H39V23.2z
			 M35.3,23.3c0.3,0.4,0.6,1.1,0.6,1.5L35.3,25c-0.1-0.4-0.3-1-0.6-1.5L35.3,23.3z M44.4,24c-0.3,1.4-0.8,2.7-1.5,3.9
			c0.6,0.7,1.2,1.2,1.9,1.6c-0.2,0.2-0.4,0.4-0.6,0.6c-0.7-0.4-1.3-0.9-1.9-1.6c-0.5,0.7-1.1,1.2-1.8,1.7c-0.1-0.1-0.2-0.3-0.4-0.4
			v0.3h-0.7V19.8h4.6v2.3c0,0.4-0.1,0.6-0.4,0.8C43.3,23,42.7,23,41.8,23c0-0.2-0.1-0.5-0.3-0.7c0.8,0,1.4,0,1.6,0
			c0.2,0,0.2-0.1,0.2-0.2v-1.6h-3.1v3.3h3.5l0.1,0L44.4,24z M40.2,29.6c0.7-0.4,1.2-1,1.7-1.7c-0.7-1-1.2-2.1-1.5-3.4h-0.2V29.6z
			 M41.1,24.6c0.3,1,0.8,1.9,1.3,2.7c0.5-0.9,0.9-1.8,1.1-2.7H41.1z"/>
		<path d="M45.8,19.8h4.4v0.7h-1.4v1.6h1.2V30h-0.6v-0.7h-2.8v0.9H46v-8.1h1.1v-1.6h-1.3V19.8z M49.4,28.7v-3.3h0h-0.5
			c-0.4,0-0.6-0.1-0.6-0.6v-2h-0.6v1c0,0.7-0.2,1.7-0.8,2.4c-0.1-0.1-0.2-0.2-0.3-0.3v2.8H49.4z M46.6,22.8v2.9
			c0.5-0.6,0.6-1.3,0.6-1.9v-1H46.6z M47.1,26.7H49v0.6h-1.9V26.7z M48.3,20.5h-0.6v1.6h0.6V20.5z M49.4,22.8h-0.6v2
			c0,0.1,0,0.2,0.1,0.2h0.4c0.1,0,0.1,0,0.1,0V22.8z M51.6,19.5h0.7v4.8c0,2.3-0.2,4.3-1.5,5.9c-0.1-0.1-0.4-0.3-0.6-0.4
			c1.2-1.5,1.4-3.4,1.4-5.5V19.5z M51,25.7c-0.1-0.7-0.4-1.9-0.7-2.7l0.5-0.2c0.3,0.9,0.6,2,0.7,2.7L51,25.7z M52.8,22.8
			c0.3,0.9,0.6,2,0.7,2.7L53,25.6c-0.1-0.7-0.4-1.8-0.6-2.7L52.8,22.8z M56.3,19.5v10.7h-0.7v-4.8l-0.5,0.2
			c-0.1-0.7-0.5-1.9-0.9-2.7V30h-0.6V19.7h0.6v3.2l0.5-0.2c0.4,0.8,0.7,1.7,0.9,2.5v-5.6L56.3,19.5z"/>
		<path d="M57.9,30.9c0.7-0.3,1.2-0.9,1.2-1.6c0,0-0.1,0-0.1,0c-0.4,0-0.7-0.3-0.7-0.7c0-0.4,0.4-0.7,0.8-0.7c0.5,0,0.9,0.5,0.9,1.2
			c0,1.1-0.6,2-1.7,2.4L57.9,30.9z"/>
		<path d="M63.6,23.1c0-1.8,0.8-2.7,2-2.7c1.2,0,2,1,2,2.7c0,1.8-0.8,2.8-2,2.8C64.4,25.9,63.6,24.9,63.6,23.1z M66.8,23.1
			c0-1.4-0.5-2.1-1.2-2.1c-0.7,0-1.2,0.7-1.2,2.1s0.5,2.2,1.2,2.2C66.3,25.3,66.8,24.5,66.8,23.1z M70.7,20.4h0.7l-4.9,9.1h-0.7
			L70.7,20.4z M69.7,26.7c0-1.8,0.8-2.7,2-2.7c1.2,0,2,1,2,2.7c0,1.8-0.8,2.8-2,2.8C70.5,29.5,69.7,28.5,69.7,26.7z M72.9,26.7
			c0-1.4-0.5-2.1-1.2-2.1c-0.7,0-1.2,0.7-1.2,2.1c0,1.4,0.5,2.2,1.2,2.2C72.4,28.8,72.9,28.1,72.9,26.7z"/>
	</g>
	<g class="st4">
		<path d="M30.2,58.8h2v-6.5h-1.5v-0.6c0.8-0.1,1.3-0.3,1.8-0.6h0.7v7.7h1.8v0.8h-4.7V58.8z"/>
		<path d="M36.3,55.3c0-2.9,1-4.4,2.7-4.4c1.7,0,2.7,1.6,2.7,4.4c0,2.9-1,4.5-2.7,4.5C37.3,59.8,36.3,58.2,36.3,55.3z M40.7,55.3
			c0-2.5-0.7-3.6-1.7-3.6c-1,0-1.8,1.1-1.8,3.6c0,2.5,0.7,3.7,1.8,3.7C40,59,40.7,57.9,40.7,55.3z"/>
	</g>
	<g class="st4">
		<path d="M36.6,86.6L37,86c0.5,0.5,1.2,1,2.2,1c1.1,0,1.9-0.8,1.9-2c0-1.2-0.7-2-1.9-2c-0.6,0-1,0.2-1.5,0.5l-0.5-0.3l0.3-4.1h4.2
			v0.8h-3.3l-0.2,2.7c0.4-0.2,0.8-0.4,1.4-0.4c1.5,0,2.6,0.8,2.6,2.7s-1.4,2.9-2.8,2.9C38,87.8,37.1,87.2,36.6,86.6z"/>
	</g>
	<g class="st4">
		<path d="M36.8,111.3c0-2.9,1-4.4,2.7-4.4c1.7,0,2.7,1.6,2.7,4.4c0,2.9-1,4.5-2.7,4.5C37.8,115.8,36.8,114.2,36.8,111.3z
			 M41.2,111.3c0-2.5-0.7-3.6-1.7-3.6c-1,0-1.8,1.1-1.8,3.6c0,2.5,0.7,3.7,1.8,3.7C40.5,115,41.2,113.9,41.2,111.3z"/>
	</g>
	<g class="st4">
		<path d="M32.4,139.9h3v0.8h-3V139.9z"/>
		<path d="M36.3,142.6l0.5-0.6c0.5,0.5,1.2,1,2.2,1c1.1,0,1.9-0.8,1.9-2c0-1.2-0.7-2-1.9-2c-0.6,0-1,0.2-1.5,0.5l-0.5-0.3l0.3-4.1
			h4.2v0.8h-3.3l-0.2,2.7c0.4-0.2,0.8-0.4,1.4-0.4c1.5,0,2.6,0.8,2.6,2.7c0,1.8-1.4,2.9-2.8,2.9C37.7,143.8,36.9,143.2,36.3,142.6z"
			/>
	</g>
	<g class="st4">
		<path d="M25.2,167.9h3v0.8h-3V167.9z"/>
		<path d="M29.8,170.8h2v-6.5h-1.5v-0.6c0.8-0.1,1.3-0.3,1.8-0.6h0.7v7.7h1.8v0.8h-4.7V170.8z"/>
		<path d="M35.9,167.3c0-2.9,1-4.4,2.7-4.4c1.7,0,2.7,1.6,2.7,4.4c0,2.9-1,4.5-2.7,4.5C36.9,171.8,35.9,170.2,35.9,167.3z
			 M40.3,167.3c0-2.5-0.7-3.6-1.7-3.6c-1,0-1.8,1.1-1.8,3.6c0,2.5,0.7,3.7,1.8,3.7C39.7,171,40.3,169.9,40.3,167.3z"/>
	</g>
	<g>
		<g>
			<defs>
				<rect id="SVGID_00000004533754133759171980000007583187840924876441_" x="47.6" y="60" width="533.4" height="107"/>
			</defs>
			<clipPath id="SVGID_00000132796340173036142320000001153669728880284574_">
				<use xlink:href="#SVGID_00000004533754133759171980000007583187840924876441_"  style="overflow:visible;"/>
			</clipPath>
			<path style="clip-path:url(#SVGID_00000132796340173036142320000001153669728880284574_);fill:#00367C;" d="M539.9,77.2h17.6
				v36.3h-17.6V77.2z M495.8,79.1h17.6v34.4h-17.6L495.8,79.1L495.8,79.1z M451.7,94.4h17.6v19.1h-17.6V94.4z M407.6,79.1h17.6v34.4
				h-17.6V79.1z M363.5,75.3h17.6v38.2h-17.6V75.3z M318,92.5h17.6v21H318V92.5z M273.9,82.9h17.6v30.6h-17.6V82.9z M229.8,81h17.6
				v32.5h-17.6V81z M185.7,82.9h17.6v30.6h-17.6V82.9z M141.6,79.1h17.6v34.4h-17.6V79.1z M96.1,102h17.6v11.5H96.1V102z M52,77.2
				h17.6v36.3H52V77.2z"/>
		</g>
	</g>
	<g>
		<g>
			<defs>
				<rect id="SVGID_00000027596896404937100310000008558042682154676910_" x="47.6" y="60" width="533.4" height="107"/>
			</defs>
			<clipPath id="SVGID_00000042013352563660048730000002458109584028206774_">
				<use xlink:href="#SVGID_00000027596896404937100310000008558042682154676910_"  style="overflow:visible;"/>
			</clipPath>
			<path style="clip-path:url(#SVGID_00000042013352563660048730000002458109584028206774_);fill:#FFE400;" d="M558.5,146h17.6
				v-32.5h-17.6V146z M514.4,132.6H532v-19.1h-17.6V132.6z M470.3,107.8h17.6v5.7h-17.6V107.8z M426.2,102h17.6v11.5h-17.6V102z
				 M382.1,102h17.6v11.5h-17.6V102z M336.6,98.2h17.6v15.3h-17.6V98.2z M292.5,98.2h17.6v15.3h-17.6V98.2z M248.4,90.6H266v22.9
				h-17.6V90.6z M204.3,84.8H222v28.7h-17.6L204.3,84.8L204.3,84.8z M160.2,84.8h17.6v28.7h-17.6V84.8z M114.7,82.9h19.1v30.6h-19.1
				C114.7,113.5,114.7,82.9,114.7,82.9z M70.6,82.9h17.6v30.6H70.6V82.9z"/>
		</g>
	</g>
	<g>
		<g class="st4">
			<path d="M190.1,24.5h5v0.8h-4v3.1h3.4v0.8h-3.4v4h-1V24.5z"/>
			<path d="M195.9,30.1c0-2.1,1.4-3.4,2.9-3.4c1.6,0,2.6,1.2,2.6,3c0,0.2,0,0.4,0,0.6h-4.4c0.1,1.4,0.9,2.4,2.2,2.4
				c0.6,0,1.2-0.2,1.6-0.5l0.4,0.6c-0.6,0.4-1.2,0.7-2.1,0.7C197.2,33.5,195.9,32.2,195.9,30.1z M200.5,29.6c0-1.4-0.6-2.1-1.7-2.1
				c-1,0-1.8,0.8-1.9,2.1H200.5z"/>
			<path d="M202.5,30.1c0-2.1,1.3-3.4,2.8-3.4c0.8,0,1.3,0.3,1.9,0.8l0-1.1v-2.5h1v9.5h-0.8l-0.1-0.8h0c-0.5,0.5-1.2,0.9-2,0.9
				C203.5,33.5,202.5,32.2,202.5,30.1z M207.1,31.7v-3.5c-0.6-0.5-1.1-0.7-1.7-0.7c-1.1,0-2,1.1-2,2.6c0,1.6,0.7,2.6,1.9,2.6
				C206,32.6,206.5,32.3,207.1,31.7z"/>
			<path d="M212.3,28.8h-2.4v-0.5h2.4v-0.6h-2v-2.6h2v-0.5H210V24h2.3v-0.8h0.7V24h2.3v0.5H213v0.5h2v2.6h-2v0.6h2.2v0.5H213v0.8
				h-0.7V28.8z M211,26.1h1.3v-0.6H211V26.1z M212.3,27.2v-0.6H211v0.6H212.3z M211.5,29.8h7.4v4.4h-0.8v-0.4h-5.8v0.4h-0.8V29.8z
				 M212.3,30.4v1h5.8v-1H212.3z M218.1,33.1v-1.1h-5.8v1.1H218.1z M213,25.5v0.6h1.3v-0.6H213z M214.4,26.6H213v0.6h1.3V26.6z
				 M220.6,26.6h-1.5v2.9h-0.7v-2.9h-1.7c-0.1,1-0.3,2.1-0.9,2.9c-0.1-0.1-0.4-0.3-0.6-0.4c0.8-1,0.9-2.3,0.9-3.2v-1.8h0
				c1.3-0.1,2.9-0.3,3.8-0.6l0.4,0.6c-0.9,0.3-2.3,0.5-3.5,0.6v1.3V26h3.9L220.6,26.6z"/>
			<path d="M225.2,23.5c-0.3,1-0.8,1.9-1.3,2.8v7.9h-0.7v-6.7c-0.3,0.5-0.7,1-1.1,1.4c-0.1-0.2-0.3-0.6-0.4-0.8
				c1.1-1.2,2.1-3,2.8-4.8L225.2,23.5z M224.9,28.8h7.6v1.9h-0.7v-1.2h-6.2v1.2h-0.7V28.8z M232.6,24.4v0.7h-7.4v-0.7h3.4
				c-0.1-0.3-0.3-0.7-0.5-0.9l0.7-0.2c0.2,0.3,0.5,0.8,0.6,1.2H232.6z M226,30.4h5.5v0.7h-2.3v2.2c0,0.4-0.1,0.6-0.5,0.8
				c-0.4,0.1-1,0.1-1.9,0.1c0-0.2-0.1-0.5-0.3-0.7c0.8,0,1.4,0,1.6,0c0.2,0,0.2-0.1,0.2-0.2v-2.2H226V30.4z M231.5,25.8V28H226v-2.3
				H231.5z M230.8,26.4h-4v1.1h4V26.4z"/>
			<path d="M244.6,28.9H242v5.3h-0.8v-5.3h-3.8c-0.1,2-0.6,3.9-3.1,5.4c-0.1-0.2-0.4-0.5-0.6-0.6c2.3-1.3,2.7-3,2.8-4.8h-2.7v-0.8
				h2.7v-2.8c-0.8,0.2-1.6,0.4-2.3,0.6c0-0.2-0.2-0.5-0.3-0.6c1.9-0.4,4-1.1,5.2-1.8l0.6,0.6c-0.7,0.3-1.5,0.7-2.4,1v3h3.8v-4.6h0.8
				v4.6h2.6V28.9z"/>
			<path d="M245.8,33.3c0.5-0.6,0.9-1.7,1.2-2.4l0.7,0.3c-0.3,0.7-0.8,1.8-1.2,2.5L245.8,33.3z M254.8,30.1h-7.2v-5.6h2.8
				c0.2-0.4,0.4-0.9,0.5-1.2l0.9,0.2c-0.2,0.4-0.4,0.8-0.6,1.1h3.6V30.1z M254,25.1h-5.7v1h5.7V25.1z M254,26.7h-5.7v1h5.7V26.7z
				 M254,28.4h-5.7v1h5.7V28.4z M252.9,33.3c0.7,0,0.8-0.2,0.8-1.4c0.2,0.1,0.5,0.3,0.7,0.3c-0.1,1.5-0.4,1.8-1.5,1.8h-2.8
				c-1.3,0-1.7-0.2-1.7-1.1v-2h0.8v2c0,0.3,0.1,0.4,0.9,0.4H252.9z M250.9,30.1c0.6,0.5,1.3,1.3,1.7,1.8l-0.6,0.4
				c-0.3-0.5-1-1.3-1.6-1.9L250.9,30.1z M255.1,30.7c0.6,0.7,1.2,1.7,1.4,2.4l-0.7,0.3c-0.2-0.6-0.8-1.6-1.4-2.4L255.1,30.7z"/>
			<path d="M261.6,24.1c-0.4,1-0.9,2.1-1.3,3.1c1,1,1.2,1.9,1.2,2.6c0,0.6-0.1,1.1-0.5,1.4c-0.2,0.1-0.4,0.2-0.6,0.2
				c-0.2,0-0.6,0-0.8,0c0-0.2-0.1-0.5-0.2-0.7c0.3,0,0.6,0,0.8,0c0.2,0,0.3,0,0.4-0.1c0.2-0.1,0.3-0.5,0.3-0.9
				c0-0.7-0.3-1.5-1.2-2.5c0.4-0.9,0.8-1.9,1.1-2.7h-1.7v9.7h-0.7V23.8h2.7l0.1,0L261.6,24.1z M264.7,27.1c0,0.2,0.1,0.5,0.1,0.6
				c-2.4,0.6-2.7,0.7-2.9,0.9c0-0.2-0.2-0.6-0.3-0.8c0.2,0,0.4-0.1,0.4-0.5v-4h0.8v1.5h1.9v0.7h-1.9v2L264.7,27.1z M265.3,28.4
				c-0.2,0.3-0.3,0.6-0.5,0.9h3v4.9H267v-0.4h-4v0.5h-0.8v-4.9h1.8c0.1-0.4,0.3-0.8,0.4-1.1L265.3,28.4z M267,30h-4v1.2h4V30z
				 M267,33.1v-1.3h-4v1.3H267z M267.6,27.7c0.3,0,0.3-0.2,0.4-1.3c0.2,0.1,0.5,0.3,0.7,0.3c-0.1,1.3-0.3,1.7-1,1.7h-1.4
				c-0.9,0-1.1-0.2-1.1-1.1v-4h0.8v1.6h2.4v0.7H266v1.8c0,0.3,0.1,0.4,0.4,0.4H267.6z"/>
			<path d="M274.4,31.5c-1,0.2-2,0.3-3,0.5v2.1h-0.8v-2l-0.9,0.1l-0.1-0.8c0.3,0,0.6-0.1,1-0.1v-7l0,0c1.1-0.3,2.4-0.7,3.1-1.1
				l0.7,0.6c-0.8,0.4-2,0.7-3,1v1.4h2.7v0.7h-2.7v1.7h2.7v0.7h-2.7v1.8c0.9-0.1,1.9-0.3,2.9-0.4L274.4,31.5z M279.8,28.9
				c-0.3,1.4-1,2.5-1.8,3.3c0.8,0.6,1.7,1,2.7,1.3c-0.2,0.2-0.4,0.5-0.5,0.7c-1-0.3-2-0.8-2.7-1.5c-0.9,0.7-1.9,1.2-3.1,1.5
				c-0.1-0.2-0.3-0.5-0.4-0.7c1.1-0.3,2.1-0.7,2.9-1.4c-0.7-0.7-1.3-1.6-1.6-2.7l0.4-0.1h-0.8v-0.7h4.3l0.1,0L279.8,28.9z
				 M276.4,25.2c0,1.1-0.3,2.4-1.6,3.3c-0.1-0.1-0.4-0.4-0.6-0.5c1.2-0.8,1.4-1.9,1.4-2.7v-1.4h3.2v3.1c0,0.3,0,0.4,0.2,0.4h0.9
				c0.1,0,0.4,0,0.5,0c0,0.2,0,0.5,0.1,0.6c-0.1,0-0.4,0-0.6,0h-0.9c-0.7,0-0.9-0.3-0.9-1v-2.4h-1.8V25.2z M275.9,29.4
				c0.3,0.9,0.9,1.7,1.5,2.3c0.6-0.6,1.1-1.4,1.4-2.3H275.9z"/>
		</g>
		<rect x="172" y="23.3" class="st2" width="12" height="12"/>
	</g>
	<g>
		<g class="st4">
			<path d="M358.1,24.2h5v0.8h-4v3.1h3.4V29h-3.4v4h-1V24.2z"/>
			<path d="M363.9,29.8c0-2.1,1.4-3.4,2.9-3.4c1.6,0,2.6,1.2,2.6,3c0,0.2,0,0.4,0,0.6h-4.4c0.1,1.4,0.9,2.4,2.2,2.4
				c0.6,0,1.2-0.2,1.6-0.5l0.4,0.6c-0.6,0.4-1.2,0.7-2.1,0.7C365.2,33.1,363.9,31.9,363.9,29.8z M368.5,29.2c0-1.4-0.6-2.1-1.7-2.1
				c-1,0-1.8,0.8-1.9,2.1H368.5z"/>
			<path d="M370.5,29.8c0-2.1,1.3-3.4,2.8-3.4c0.8,0,1.3,0.3,1.9,0.8l0-1.1v-2.5h1V33h-0.8l-0.1-0.8h0c-0.5,0.5-1.2,0.9-2,0.9
				C371.5,33.1,370.5,31.9,370.5,29.8z M375.1,31.4v-3.5c-0.6-0.5-1.1-0.7-1.7-0.7c-1.1,0-2,1.1-2,2.6c0,1.6,0.7,2.6,1.9,2.6
				C374,32.3,374.5,32,375.1,31.4z"/>
			<path d="M381.8,23.8c-0.4,1-0.9,2.1-1.3,3.1c1,1,1.2,1.9,1.2,2.6c0,0.6-0.2,1.1-0.5,1.4c-0.2,0.1-0.4,0.2-0.6,0.2
				c-0.3,0-0.6,0-0.9,0c0-0.2-0.1-0.5-0.2-0.7c0.3,0,0.6,0,0.8,0c0.2,0,0.3,0,0.4-0.1c0.2-0.1,0.3-0.5,0.3-0.9
				c0-0.7-0.3-1.5-1.3-2.5c0.4-0.9,0.8-1.9,1.1-2.7h-1.9v9.7h-0.7V23.5h3l0.1,0L381.8,23.8z M388,24.2c-0.5,0.9-1.2,1.7-2,2.3
				c0.8,0.5,1.8,0.8,2.8,1c-0.2,0.2-0.4,0.5-0.5,0.6c-1.1-0.3-2.1-0.7-2.9-1.2c-1,0.6-2.1,1-3.3,1.3c-0.1-0.2-0.3-0.5-0.4-0.6
				c1.1-0.2,2.1-0.6,3.1-1.1c-0.5-0.4-0.9-0.8-1.2-1.3c-0.4,0.4-0.8,0.7-1.2,1c-0.1-0.2-0.4-0.4-0.5-0.5c1.2-0.8,2.1-1.9,2.6-2.8
				l0.8,0.1c-0.2,0.3-0.4,0.6-0.6,0.9h2.8l0.1,0L388,24.2z M385.9,31.3h2.7V32h-2.7v1.9h-0.8V32H382c0.2-0.6,0.5-1.6,0.7-2.4h-0.5
				v-0.7h2.9v-0.9h0.8v0.9h2.4v0.7h-2.4V31.3z M385.2,31.3v-1.7h-1.7c-0.1,0.6-0.3,1.2-0.5,1.7H385.2z M384,24.8
				c0.3,0.5,0.8,1,1.4,1.4c0.6-0.4,1.2-0.9,1.6-1.5h-2.8L384,24.8z"/>
			<path d="M389.8,33c0.5-0.6,0.9-1.7,1.2-2.4l0.7,0.3c-0.3,0.7-0.8,1.8-1.2,2.5L389.8,33z M398.8,29.7h-7.2v-5.6h2.8
				c0.2-0.4,0.4-0.9,0.5-1.2l0.9,0.2c-0.2,0.4-0.4,0.8-0.6,1.1h3.6V29.7z M398,24.7h-5.7v1h5.7V24.7z M398,26.4h-5.7v1h5.7V26.4z
				 M398,28.1h-5.7v1h5.7V28.1z M396.9,32.9c0.7,0,0.8-0.2,0.8-1.4c0.2,0.1,0.5,0.3,0.7,0.3c-0.1,1.5-0.4,1.8-1.5,1.8h-2.8
				c-1.3,0-1.7-0.2-1.7-1.1v-2h0.8v2c0,0.3,0.1,0.4,0.9,0.4H396.9z M394.9,29.8c0.6,0.5,1.3,1.3,1.7,1.8l-0.6,0.4
				c-0.3-0.5-1-1.3-1.6-1.9L394.9,29.8z M399.1,30.4c0.6,0.7,1.2,1.7,1.4,2.4l-0.7,0.3c-0.2-0.6-0.8-1.6-1.4-2.4L399.1,30.4z"/>
			<path d="M405.6,23.8c-0.4,1-0.9,2.1-1.3,3.1c1,1,1.2,1.9,1.2,2.6c0,0.6-0.1,1.1-0.5,1.4c-0.2,0.1-0.4,0.2-0.6,0.2
				c-0.2,0-0.6,0-0.8,0c0-0.2-0.1-0.5-0.2-0.7c0.3,0,0.6,0,0.8,0c0.2,0,0.3,0,0.4-0.1c0.2-0.1,0.3-0.5,0.3-0.9
				c0-0.7-0.3-1.5-1.2-2.5c0.4-0.9,0.8-1.9,1.1-2.7h-1.7v9.7h-0.7V23.5h2.7l0.1,0L405.6,23.8z M408.7,26.8c0,0.2,0.1,0.5,0.1,0.6
				c-2.4,0.6-2.7,0.7-2.9,0.9c0-0.2-0.2-0.6-0.3-0.8c0.2,0,0.4-0.1,0.4-0.5v-4h0.8v1.5h1.9v0.7h-1.9v2L408.7,26.8z M409.3,28.1
				c-0.2,0.3-0.3,0.6-0.5,0.9h3v4.9H411v-0.4h-4v0.5h-0.8V29h1.8c0.1-0.4,0.3-0.8,0.4-1.1L409.3,28.1z M411,29.7h-4v1.2h4V29.7z
				 M411,32.8v-1.3h-4v1.3H411z M411.6,27.4c0.3,0,0.3-0.2,0.4-1.3c0.2,0.1,0.5,0.3,0.7,0.3c-0.1,1.3-0.3,1.7-1,1.7h-1.4
				c-0.9,0-1.1-0.2-1.1-1.1v-4h0.8v1.6h2.4v0.7H410v1.8c0,0.3,0.1,0.4,0.4,0.4H411.6z"/>
			<path d="M418.4,31.1c-1,0.2-2,0.3-3,0.5v2.1h-0.8v-2l-0.9,0.1l-0.1-0.8c0.3,0,0.6-0.1,1-0.1v-7l0,0c1.1-0.3,2.4-0.7,3.1-1.1
				l0.7,0.6c-0.8,0.4-2,0.7-3,1v1.4h2.7v0.7h-2.7v1.7h2.7v0.7h-2.7v1.8c0.9-0.1,1.9-0.3,2.9-0.4L418.4,31.1z M423.8,28.6
				c-0.3,1.4-1,2.5-1.8,3.3c0.8,0.6,1.7,1,2.7,1.3c-0.2,0.2-0.4,0.5-0.5,0.7c-1-0.3-2-0.8-2.7-1.5c-0.9,0.7-1.9,1.2-3.1,1.5
				c-0.1-0.2-0.3-0.5-0.4-0.7c1.1-0.3,2.1-0.7,2.9-1.4c-0.7-0.7-1.3-1.6-1.6-2.7l0.4-0.1h-0.8v-0.7h4.3l0.1,0L423.8,28.6z
				 M420.4,24.9c0,1.1-0.3,2.4-1.6,3.3c-0.1-0.1-0.4-0.4-0.6-0.5c1.2-0.8,1.4-1.9,1.4-2.7v-1.4h3.2v3.1c0,0.3,0,0.4,0.2,0.4h0.9
				c0.1,0,0.4,0,0.5,0c0,0.2,0,0.5,0.1,0.6c-0.1,0-0.4,0-0.6,0h-0.9c-0.7,0-0.9-0.3-0.9-1v-2.4h-1.8V24.9z M419.9,29.1
				c0.3,0.9,0.9,1.7,1.5,2.3c0.6-0.6,1.1-1.4,1.4-2.3H419.9z"/>
		</g>
		<rect x="341" y="23" class="st3" width="12" height="12"/>
	</g>
	<g class="st4">
		<path d="M555.5,185.6c0,0.4-0.1,0.6-0.4,0.7c-0.3,0.1-0.8,0.1-1.6,0.1c0-0.2-0.1-0.5-0.3-0.7c0.6,0,1.1,0,1.3,0
			c0.2,0,0.2,0,0.2-0.2v-2c-0.8,0.5-1.7,1-2.4,1.3l-0.3-0.7c0.7-0.3,1.7-0.8,2.7-1.3v-2.5h-2.6v2.3c0,1.2-0.1,2.7-1,3.7
			c-0.1-0.2-0.4-0.4-0.6-0.6c0.7-0.9,0.8-2.2,0.8-3.2v-3h4.1V185.6z M554.7,176.4c0.6,0.8,1.3,1.9,1.6,2.6l-0.7,0.3
			c-0.1-0.2-0.2-0.5-0.4-0.8c-3.3,0.3-3.7,0.3-4,0.4c0-0.2-0.2-0.6-0.3-0.8c0.2,0,0.4-0.2,0.6-0.5c0.2-0.2,1-1.2,1.5-2.2l0.8,0.3
			c-0.5,0.8-1.1,1.6-1.7,2.3l2.6-0.2c-0.3-0.4-0.5-0.9-0.8-1.2L554.7,176.4z M552.7,181.2c0.7,0.4,1.5,0.9,2,1.2l-0.4,0.5
			c-0.4-0.4-1.3-0.9-2-1.3L552.7,181.2z M557.9,180.7c-1,0-1.3-0.3-1.3-1.3v-3.8h0.8v1.7h3.3v0.7h-3.3v1.5c0,0.4,0.1,0.6,0.5,0.6
			h2.3c0.3,0,0.8,0,1-0.1c0,0.2,0,0.5,0.1,0.7c-0.2,0-0.6,0.1-1,0.1H557.9z M560.2,185.6c0.5,0,0.6-0.2,0.7-1.5
			c0.2,0.1,0.5,0.3,0.7,0.3c-0.1,1.6-0.3,2-1.3,2H558c-1.1,0-1.4-0.2-1.4-1.2v-4.1h0.8v1.5h3.4v0.7h-3.4v1.9c0,0.4,0.1,0.5,0.7,0.5
			H560.2z"/>
		<path d="M552.5,192.7c-0.5-0.3-1.4-0.9-2-1.3l0.4-0.6c0.7,0.3,1.6,0.9,2.1,1.2L552.5,192.7z M553.2,194.4
			c-0.5,1.3-1.2,2.7-1.8,3.8l-0.7-0.4c0.5-0.9,1.3-2.5,1.8-3.9L553.2,194.4z M553.1,189.6c-0.5-0.4-1.3-1-2-1.4l0.5-0.5
			c0.7,0.4,1.6,0.9,2,1.3L553.1,189.6z M554.9,191.4c0,2.1-0.2,5-1.6,7c-0.1-0.1-0.5-0.3-0.7-0.4c1.4-1.9,1.5-4.6,1.5-6.6v-3.3h7.3
			v0.7h-6.5V191.4z M556.8,195.3c-0.4,0.9-1,1.8-1.5,2.5c-0.1-0.1-0.5-0.3-0.6-0.4c0.6-0.6,1.1-1.5,1.5-2.2L556.8,195.3z
			 M558.6,194.4v3.2c0,0.4-0.1,0.6-0.4,0.7c-0.3,0.1-0.8,0.1-1.6,0.1c0-0.2-0.1-0.5-0.2-0.7c0.6,0,1.1,0,1.3,0
			c0.2,0,0.2-0.1,0.2-0.2v-3.2h-2.2v-4.1h1.8c0.1-0.4,0.3-0.9,0.3-1.2l0.9,0.2c-0.2,0.4-0.3,0.7-0.5,1.1h2.7v4.1H558.6z M556.3,192
			h3.8v-1.1h-3.8V192z M556.3,193.8h3.8v-1.1h-3.8V193.8z M560.1,195c0.5,0.7,1.1,1.7,1.4,2.3l-0.7,0.3c-0.3-0.6-0.9-1.6-1.4-2.4
			L560.1,195z"/>
	</g>
	<g class="st4">
		<path d="M513.3,177.2c-0.3,0.5-0.6,0.9-0.9,1.4v7.9h-0.9v-6.8c-1.2,1.4-2.7,2.7-4.4,3.6c-0.1-0.2-0.4-0.5-0.6-0.7
			c2.4-1.2,4.5-3.2,5.7-5.3h-5.4v-0.8h10.3v0.8H513.3z M513.3,179.3c1.4,0.9,3.3,2.2,4.1,3.2l-0.6,0.6c-0.9-0.9-2.7-2.3-4.1-3.2
			L513.3,179.3z"/>
		<path d="M517.2,190.8c-0.1,5-0.3,6.7-0.7,7.2c-0.2,0.3-0.4,0.4-0.8,0.4c-0.3,0-0.9,0-1.5,0c0-0.2-0.1-0.6-0.2-0.8
			c0.6,0,1.2,0.1,1.4,0.1c0.2,0,0.3,0,0.4-0.2c0.3-0.4,0.4-2,0.6-6.4h-1.8c-0.1,3.2-0.7,5.9-2.8,7.4c-0.1-0.2-0.4-0.4-0.6-0.6
			c0.2-0.2,0.4-0.3,0.6-0.5c-1.9,0.2-3.8,0.4-5.1,0.6l-0.1-0.7c0.7-0.1,1.6-0.2,2.6-0.3V196h-2.3v-0.6h2.3v-0.8h-2.3V191h2.3v-0.8
			h-2.6v-0.6h2.6v-0.9c-0.8,0.1-1.6,0.1-2.3,0.1c0-0.2-0.1-0.4-0.2-0.6c1.8-0.1,4-0.3,5.2-0.6l0.4,0.6c-0.6,0.1-1.5,0.3-2.4,0.4v0.9
			h2.6v0.6h-2.6v0.8h2.4v3.6h-2.4v0.8h2.4v0.6h-2.4v1c0.8-0.1,1.6-0.2,2.4-0.3v0.1c1.1-1.5,1.4-3.4,1.5-5.7h-1.5v-0.7h1.5
			c0-0.9,0-1.8,0-2.7h0.8c0,0.9,0,1.8,0,2.7h2.6V190.8z M507.6,192.5h1.6v-0.9h-1.6V192.5z M509.2,194v-0.9h-1.6v0.9H509.2z
			 M509.9,191.6v0.9h1.7v-0.9H509.9z M511.6,193.1h-1.7v0.9h1.7V193.1z"/>
		<path d="M508.3,204.3v1.9c0,1.3-0.2,3.1-1.3,4.3c-0.1-0.2-0.4-0.4-0.6-0.5c1-1.1,1.1-2.6,1.1-3.8v-2.6h1.5
			c-0.1-0.1-0.3-0.3-0.4-0.4c1-0.2,2.1-0.4,3.1-0.7c-0.9-0.3-1.9-0.5-2.8-0.7l0.5-0.4h-1.9v-0.7h4.5c-0.2-0.3-0.5-0.6-0.7-0.9
			l0.6-0.3c0.3,0.3,0.7,0.9,0.9,1.2h4v0.7h-1.8l0.4,0.3c-0.5,0.3-1.2,0.6-1.9,0.8c0.9,0.3,1.7,0.6,2.4,0.8l-0.4,0.4h1.7v0.7H508.3z
			 M517.5,209.4v0.7h-8.9v-0.7h4v-1.3h-2.8v-0.7h2.8v-1.2h-2.6c-0.3,0.6-0.7,1.1-1.1,1.5c-0.1-0.1-0.3-0.5-0.4-0.6
			c0.7-0.6,1.3-1.6,1.6-2.6l0.7,0.2c-0.1,0.3-0.2,0.6-0.4,0.9h2.2v-1.1h0.8v1.1h3.3v0.7h-3.3v1.2h3v0.7h-3v1.3H517.5z M515.3,203.6
			c-0.7-0.3-1.6-0.6-2.6-0.9c-1.1,0.4-2.3,0.6-3.3,0.9H515.3z M509.6,201.3c1,0.2,2.1,0.5,3.1,0.9c0.8-0.3,1.5-0.6,2-0.9H509.6z"/>
	</g>
	<g class="st4">
		<path d="M473.3,177h-8.8v2.6c0,1.9-0.2,4.7-1.3,6.6c-0.1-0.1-0.5-0.3-0.7-0.4c1.1-1.8,1.2-4.4,1.2-6.2v-3.4h9.6V177z M467.2,183.4
			c-0.6,0.9-1.5,1.9-2.1,2.5c-0.2-0.1-0.5-0.3-0.7-0.5c0.7-0.6,1.5-1.5,2.1-2.3L467.2,183.4z M469.3,182.5v3c0,0.4-0.1,0.6-0.4,0.8
			c-0.3,0.1-0.9,0.1-1.9,0.1c0-0.2-0.1-0.5-0.3-0.7c0.7,0,1.4,0,1.5,0c0.2,0,0.2-0.1,0.2-0.2v-3h-3v-4.3h2.4
			c0.2-0.4,0.4-0.8,0.5-1.2l0.9,0.1c-0.2,0.3-0.4,0.7-0.5,1h3.5v4.3H469.3z M466.3,180.1h5.2v-1.2h-5.2V180.1z M466.3,181.9h5.2
			v-1.2h-5.2V181.9z M471,183.2c0.7,0.7,1.7,1.8,2.2,2.4l-0.7,0.4c-0.5-0.6-1.4-1.7-2.2-2.5L471,183.2z"/>
		<path d="M467,193.6c-0.5,0.2-1,0.3-1.5,0.5v4.4h-0.7v-4.1c-0.7,0.2-1.4,0.4-2,0.6l-0.2-0.8c0.6-0.2,1.4-0.4,2.2-0.6v-2.8h-1.1
			c-0.2,0.7-0.3,1.3-0.6,1.8c-0.1-0.1-0.4-0.3-0.6-0.4c0.5-1,0.7-2.5,0.9-4l0.7,0.1c-0.1,0.6-0.2,1.1-0.3,1.7h1v-2.5h0.7v2.5h1.3
			v0.8h-1.3v2.5l1.5-0.4L467,193.6z M473.3,189.6c0,0,0,0.3,0,0.4c-0.3,5.5-0.5,7.3-1,7.9c-0.2,0.3-0.5,0.4-0.8,0.4
			c-0.3,0-0.8,0-1.4,0c0-0.2-0.1-0.6-0.2-0.8c0.6,0,1.1,0.1,1.3,0.1c0.2,0,0.3,0,0.5-0.2c0.4-0.4,0.7-2.2,0.9-7.1h-0.7
			c-0.6,3.2-1.9,6.4-3.9,8c-0.2-0.2-0.4-0.4-0.7-0.5c2-1.4,3.3-4.4,3.9-7.5h-1.1c-0.5,2.1-1.7,4.3-3,5.5c-0.2-0.2-0.4-0.3-0.6-0.5
			c1.3-1,2.4-3.1,2.9-5h-1.1c-0.4,0.9-0.9,1.7-1.4,2.3c-0.1-0.1-0.4-0.3-0.6-0.5c1-1.1,1.7-2.8,2.1-4.6l0.7,0.1
			c-0.2,0.7-0.3,1.3-0.6,1.9H473.3z"/>
		<path d="M464.3,205.2c-0.3,1.3-0.8,3-1.4,3.8c-0.1-0.2-0.3-0.6-0.4-0.9c0.5-0.7,1-2.1,1.2-3.2L464.3,205.2z M465.3,204.3v6.2h-0.7
			v-6.2h-1.9v-0.7h1.9v-4h0.7v4h2v0.7H465.3z M463.4,203.1c-0.1-0.7-0.3-1.8-0.7-2.6l0.6-0.1c0.3,0.8,0.6,1.9,0.7,2.6L463.4,203.1z
			 M465.9,205c0.2,0.4,1.1,2,1.3,2.4l-0.6,0.6c-0.2-0.6-0.9-2.2-1.1-2.7L465.9,205z M467.3,200.5c-0.3,0.9-0.7,2-1,2.7l-0.5-0.2
			c0.3-0.7,0.6-1.9,0.8-2.7L467.3,200.5z M472,207.1v3.4h-0.8v-3.2l-3.8,0.7l-0.1-0.7l3.9-0.7v-6.9h0.8v6.8l1.5-0.3l0.1,0.7
			L472,207.1z M469.6,205.4c-0.4-0.4-1.3-1-2-1.4l0.4-0.6c0.7,0.4,1.6,0.9,2,1.3L469.6,205.4z M470.1,202.5
			c-0.4-0.5-1.2-1.1-1.9-1.5l0.4-0.5c0.7,0.4,1.5,1,1.9,1.5L470.1,202.5z"/>
	</g>
	<g class="st4">
		<path d="M424.8,175.8c-0.1,0.1-0.2,0.3-0.3,0.4c1.2,1.3,3.3,2.6,5.1,3.2c-0.2,0.2-0.4,0.5-0.6,0.7c-1.7-0.6-3.7-2-5-3.3
			c-0.8,0.9-1.8,1.8-3,2.4h6v0.7h-2.7v1.7h4.3v0.7h-4.3v3h4.8v0.7h-10.3v-0.7h4.7v-3h-4.2v-0.7h4.2v-1.7h-2.6v-0.7
			c-0.6,0.4-1.3,0.7-2,0.9c-0.1-0.2-0.3-0.5-0.5-0.7c2.2-0.7,4.4-2.2,5.6-4L424.8,175.8z M421.1,182.6c0.5,0.7,1,1.6,1.2,2.2
			l-0.7,0.3c-0.2-0.6-0.6-1.5-1.1-2.2L421.1,182.6z M425.5,184.9c0.4-0.6,1-1.6,1.3-2.2l0.8,0.3c-0.5,0.8-1,1.6-1.4,2.2L425.5,184.9
			z"/>
		<path d="M418.7,188.1h5.6v0.7h-5.6V188.1z M424.1,197.5c0,0.4-0.1,0.6-0.3,0.7c-0.2,0.1-0.6,0.1-1.3,0.1c0-0.2-0.1-0.5-0.2-0.6
			c0.5,0,0.9,0,1,0c0.1,0,0.2,0,0.2-0.2v-4.3h-3.9v5.2h-0.6v-5.8h5.2V197.5z M423.7,191.9h-4.4v-2.4h4.4V191.9z M421.8,195.8v2.4
			h-0.6v-2.4h-1.3v-0.6h1.7c0.3-0.5,0.6-1.2,0.8-1.7l0.5,0.2c-0.3,0.5-0.5,1.1-0.8,1.5h0.9v0.6H421.8z M423,190.1h-3v1.2h3V190.1z
			 M420.6,193.5c0.3,0.5,0.6,1.1,0.7,1.4l-0.5,0.2c-0.1-0.4-0.4-1-0.7-1.5L420.6,193.5z M428.9,198.5c0-0.3-0.1-0.6-0.2-1
			c-1.4,0.3-2.9,0.5-4,0.7l-0.2-0.7c0.6-0.1,1.3-0.2,2-0.3v-2.8h-1.8v-4.4h1.8v-2.3h0.7v2.3h1.8v4.4h-1.8v2.7l1.2-0.2
			c-0.2-0.5-0.4-1.1-0.6-1.6l0.6-0.1c0.5,1,0.9,2.4,1,3.2L428.9,198.5z M425.3,193.7h1.2v-3h-1.2V193.7z M428.4,190.6h-1.2v3h1.2
			V190.6z"/>
	</g>
	<g class="st4">
		<path d="M385.4,184.7v0.8h-10.7v-0.8h4.9v-7h-4.3v-0.8h9.5v0.8h-4.4v7H385.4z"/>
		<path d="M379,196.5c-0.9,0.6-2.5,1.2-3.7,1.5c-0.1-0.2-0.3-0.5-0.5-0.6c1.2-0.2,2.8-0.7,3.6-1.2L379,196.5z M385.2,194.9v0.7h-4.8
			v2.9h-0.8v-2.9h-4.8v-0.7h4.8v-1h-3.6v-0.6h3.6v-0.9h-4.3v-0.6h2.7c-0.1-0.4-0.4-0.8-0.6-1.2l0.6-0.2h-3.1v-0.7h2
			c-0.2-0.5-0.6-1.2-1-1.8l0.7-0.2c0.4,0.6,0.9,1.3,1.1,1.8l-0.6,0.2h1.5v-2.2h0.7v2.2h1.5v-2.2h0.8v2.2h1.5l-0.5-0.2
			c0.3-0.5,0.7-1.3,1-1.8l0.8,0.2c-0.3,0.6-0.7,1.3-1.1,1.8h1.9v0.7h-3.1l0.7,0.2c-0.3,0.4-0.6,0.9-0.9,1.2h2.8v0.6h-4.4v0.9h3.8
			v0.6h-3.8v1H385.2z M378.1,190.4c0.3,0.4,0.6,0.9,0.7,1.2l-0.5,0.1h3.3l-0.4-0.1c0.3-0.3,0.6-0.9,0.7-1.2H378.1z M381.7,196.2
			c1.2,0.4,2.7,0.9,3.6,1.3l-0.5,0.5c-0.8-0.4-2.4-1-3.5-1.4L381.7,196.2z"/>
	</g>
	<g class="st4">
		<path d="M334.3,175.6h0.8v5.6c0,1.6-0.4,4.1-3.3,5.4c-0.1-0.2-0.4-0.4-0.6-0.6c1.5-0.6,2.3-1.7,2.7-2.7c-1.1,0.2-2.2,0.4-3,0.6
			l-0.2-0.8c0.9-0.1,2.1-0.3,3.4-0.6c0.1-0.5,0.1-0.9,0.1-1.3v-0.4h-3.1v-0.7h3.1v-1.9H331v-0.7h3.3V175.6z M341.4,183.5h-3.7v2.9
			H337v-10.9h0.8v1.8h3.5v0.8h-3.5v1.9h3.2v0.7h-3.2v2h3.7V183.5z"/>
		<path d="M337.8,197.6c0.7,0,0.8-0.4,0.9-2.3c0.2,0.2,0.6,0.3,0.8,0.3c-0.1,2.1-0.4,2.8-1.7,2.8h-2.5c-1.2,0-1.6-0.3-1.6-1.5v-0.8
			c-0.9,0.6-1.8,1.1-2.8,1.6c-0.1-0.2-0.3-0.5-0.5-0.6c1.2-0.5,2.3-1.2,3.3-2v-4.7h0.8v4c2.1-1.8,3.8-4,5-6.3l0.8,0.3
			c-1.4,2.6-3.3,5-5.7,6.9v1.4c0,0.6,0.1,0.7,0.8,0.7H337.8z M332.6,191.4c-0.3,1.3-0.7,3-1.4,4.1l-0.7-0.3c0.7-1,1.2-2.7,1.4-4
			L332.6,191.4z M336.8,190.5c-0.7-0.6-2-1.6-3-2.3l0.5-0.6c1,0.7,2.4,1.7,3,2.2L336.8,190.5z M339.6,191.5c0.8,1.2,1.7,2.8,2,3.8
			l-0.8,0.4c-0.3-1.1-1.1-2.7-1.9-3.9L339.6,191.5z"/>
		<path d="M336.3,206c-0.1,0.3-0.2,0.6-0.3,0.9h4.5v2.8c0,0.4-0.1,0.6-0.4,0.7c-0.3,0.1-0.7,0.1-1.4,0.1c0-0.2-0.2-0.5-0.3-0.7
			c0.5,0,0.9,0,1,0c0.1,0,0.2,0,0.2-0.2v-2.1h-2v2.8h-0.7v-2.8h-1.9v2.8h-0.7v-2.8h-1.9v2.9h-0.8v-3.6h3.5c0.1-0.3,0.2-0.6,0.3-0.9
			h-4.7v-0.7h10.4v0.7H336.3z M331.7,204.2H331v-2.6h4.6v-0.9h-4.1V200h9v0.6h-4.1v0.9h4.7v2.6h-0.8v-1.9h-3.9v2.7h-0.8v-2.7h-3.8
			V204.2z M332,204.4c0.7-0.1,1.8-0.2,2.8-0.4l0,0.5c-0.9,0.2-1.8,0.4-2.6,0.5L332,204.4z M332.5,202.5c0.8,0.1,1.8,0.4,2.4,0.7
			l-0.2,0.5c-0.5-0.3-1.6-0.6-2.4-0.7L332.5,202.5z M339.7,205c-0.6-0.2-1.9-0.5-2.8-0.6l0.2-0.5c0.9,0.1,2.1,0.4,2.8,0.6L339.7,205
			z M339.7,202.9c-0.7,0.3-1.7,0.6-2.4,0.7l-0.3-0.4c0.7-0.2,1.7-0.5,2.3-0.8L339.7,202.9z"/>
		<path d="M332.8,214.6c-0.4,1-1.1,2.1-1.7,2.8c-0.1-0.1-0.4-0.4-0.6-0.5c0.6-0.7,1.2-1.6,1.6-2.6L332.8,214.6z M334.9,221.2
			c-0.3-0.5-0.7-1.2-1.2-1.8c-0.7,1.1-1.6,2-2.6,2.7c-0.1-0.1-0.4-0.4-0.6-0.6c1.1-0.7,2-1.6,2.7-2.8c-0.5-0.6-1-1.1-1.5-1.6
			l0.6-0.4c0.4,0.4,0.8,0.9,1.3,1.3c0.3-0.6,0.5-1.1,0.7-1.8l0.7,0.1c-0.2,0.8-0.5,1.5-0.9,2.2c0.6,0.7,1.2,1.5,1.5,2L334.9,221.2z
			 M336.1,214h-5.4v-0.7h2.6c-0.2-0.4-0.6-1-0.9-1.5l0.6-0.3c0.4,0.4,0.8,1.1,1,1.5l-0.6,0.3h2.7V214z M335.4,216.7
			c-0.2-0.6-0.8-1.4-1.3-2.1l0.6-0.3c0.5,0.6,1.1,1.5,1.3,2L335.4,216.7z M340.7,214.5c-0.3,2-0.8,3.7-1.6,5c0.6,1,1.5,1.8,2.4,2.4
			c-0.2,0.1-0.4,0.4-0.6,0.6c-0.9-0.5-1.7-1.3-2.3-2.3c-0.7,1-1.6,1.7-2.8,2.3c-0.1-0.1-0.4-0.5-0.6-0.6c1.3-0.6,2.2-1.4,2.9-2.4
			c-0.5-0.9-0.9-2-1.2-3.1c-0.2,0.4-0.4,0.8-0.7,1.2c-0.1-0.2-0.4-0.5-0.5-0.6c1-1.3,1.6-3.3,1.9-5.5l0.7,0.1
			c-0.1,0.7-0.3,1.4-0.5,2.1h3.4v0.7H340.7z M337.8,214.5c-0.1,0.3-0.2,0.6-0.3,0.8c0.3,1.2,0.6,2.4,1.2,3.4c0.6-1.2,1-2.6,1.2-4.2
			H337.8z"/>
		<path d="M335,233.1c-1,0.5-2.5,1.1-3.7,1.4c-0.1-0.2-0.4-0.5-0.6-0.6c1.2-0.3,2.7-0.7,3.5-1.1L335,233.1z M337.7,232.7
			c1.3,0.4,2.7,0.8,3.5,1.2l-0.6,0.5c-0.8-0.4-2.2-0.9-3.6-1.3l0.4-0.4h-5.3v-3.8c-0.3,0.1-0.7,0.2-1.1,0.3
			c-0.1-0.2-0.2-0.5-0.4-0.6c1.5-0.3,2.4-0.7,2.9-1.2h-2.1c0.1-0.5,0.2-1.2,0.3-1.8h2.4v-0.7h-3v-0.6h3v-0.7h0.7v0.7h1.9v-0.7h0.8
			v0.7h2.7v1.8h-2.7v0.8h3.4c0,0,0,0.2,0,0.3c-0.1,0.6-0.2,1-0.3,1.1c-0.1,0.1-0.3,0.2-0.6,0.2h-0.3v4.3H337.7z M332.5,226
			c0,0.3-0.1,0.5-0.1,0.8h1.7c0.1-0.2,0.2-0.5,0.2-0.8H332.5z M339.1,228.7H333v0.8h6.1V228.7z M339.1,230.1H333v0.8h6.1V230.1z
			 M333,232.2h6.1v-0.8H333V232.2z M334.6,227.3c-0.2,0.3-0.5,0.6-0.9,0.9h5.5c0-0.1-0.1-0.3-0.1-0.4c0.4,0,0.7,0,0.9,0
			c0.1,0,0.2,0,0.3-0.1c0.1-0.1,0.1-0.2,0.1-0.5h-2.6v0.8H337v-0.8H334.6z M337,226h-2c0,0.3-0.1,0.5-0.1,0.8h2.1V226z M335,225.5
			h1.9v-0.7H335V225.5z M337.7,224.8v0.7h2v-0.7H337.7z"/>
	</g>
	<g class="st4">
		<path d="M297.3,180.8v0.7h-5c0,0.3-0.1,0.7-0.2,1h5v0.7H292c-0.6,1.7-1.8,2.7-5,3.2c-0.1-0.2-0.3-0.5-0.4-0.7
			c2.8-0.4,4-1.2,4.5-2.5H287v-0.7h4.3c0.1-0.3,0.1-0.6,0.2-1h-4.8v-0.7h4.9v-1.1h-3.8V179h3.8v-1h-4.4v-0.7h2.6
			c-0.2-0.4-0.6-1-1-1.5l0.7-0.3c0.4,0.5,0.9,1.1,1.1,1.5l-0.4,0.2h3.2c0.4-0.5,0.8-1.2,1.1-1.7l0.8,0.3c-0.3,0.5-0.7,1-1,1.5h2.6
			v0.7h-4.4v1h3.9v0.7h-3.9v1.1H297.3z M292.4,183.4c1.7,0.6,3.8,1.7,4.9,2.5l-0.4,0.7c-1.1-0.8-3.2-1.9-4.9-2.6L292.4,183.4z"/>
		<path d="M297,188.1v10.4h-0.8v-0.6h-8.4v0.6H287v-10.4H297z M296.2,197.2v-8.4h-8.4v8.4H296.2z M292,195.3
			c-1.3,0.3-2.6,0.5-3.5,0.7l-0.1-0.6c0.9-0.2,2.3-0.4,3.6-0.7L292,195.3z M295,191.8c-0.3,1.1-0.8,2.1-1.3,3
			c0.3,0.7,0.6,1.1,1.1,1.2c0.2,0,0.3-0.5,0.4-1.3c0.1,0.1,0.4,0.3,0.5,0.3c-0.2,1.3-0.5,1.8-1.1,1.5c-0.6-0.1-1-0.6-1.3-1.2
			c-0.5,0.6-1,1-1.6,1.4c-0.1-0.1-0.3-0.4-0.5-0.5c0.7-0.4,1.3-1,1.8-1.6c-0.3-1-0.5-2.2-0.7-3.6h-3.7v-0.6h3.7
			c0-0.4-0.1-0.9-0.1-1.3h0.7c0,0.4,0,0.9,0.1,1.3h2.7v0.6h-2.6c0.1,1.1,0.3,2.1,0.5,2.9c0.4-0.7,0.7-1.5,0.9-2.3L295,191.8z
			 M291.6,191.9v2.3h-2.7v-2.3H291.6z M291,192.4h-1.5v1.3h1.5V192.4z M294.8,190.3c-0.3-0.3-0.8-0.6-1.3-0.9l0.4-0.4
			c0.5,0.2,1,0.5,1.3,0.8L294.8,190.3z"/>
		<path d="M289,205.9v3.5c0,0.5-0.1,0.7-0.4,0.8c-0.3,0.1-0.8,0.2-1.6,0.2c0-0.2-0.1-0.5-0.2-0.7c0.6,0,1.1,0,1.2,0
			c0.2,0,0.2-0.1,0.2-0.2v-3.2c-0.6,0.2-1.1,0.3-1.6,0.5l-0.2-0.8c0.5-0.1,1.1-0.3,1.8-0.5v-2.7h-1.7V202h1.7v-2.4h0.8v2.4h1.5v0.7
			H289v2.5c0.4-0.1,0.8-0.2,1.2-0.3l0.1,0.7L289,205.9z M296.6,205c-0.5,1.4-1.3,2.6-2.4,3.4c0.9,0.6,2,1.1,3.3,1.3
			c-0.2,0.2-0.4,0.5-0.5,0.7c-1.3-0.3-2.4-0.8-3.4-1.5c-1.1,0.7-2.3,1.2-3.6,1.5c-0.1-0.2-0.3-0.6-0.4-0.7c1.2-0.3,2.3-0.7,3.3-1.3
			c-0.9-0.8-1.5-1.7-2-2.8l0.1,0h-0.4v-0.8h5.4l0.2,0L296.6,205z M292.5,201.3c0,1.1-0.3,2.3-1.8,3.2c-0.1-0.2-0.4-0.5-0.5-0.6
			c1.3-0.8,1.5-1.8,1.5-2.6V200h3.7v2.8c0,0.3,0,0.4,0.2,0.4h1c0.2,0,0.4,0,0.6,0c0,0.2,0,0.5,0.1,0.7c-0.1,0-0.4,0.1-0.6,0.1h-1
			c-0.8,0-0.9-0.3-0.9-1.2v-2h-2.2V201.3z M291.6,205.6c0.4,0.9,1.1,1.7,1.9,2.4c0.8-0.6,1.5-1.4,2-2.4H291.6z"/>
		<path d="M290,214.8h-3.4v-0.6h3.4V214.8z M290.9,221c-1,0.6-2.5,1.1-3.7,1.4c-0.1-0.2-0.4-0.5-0.6-0.6c1.2-0.3,2.7-0.7,3.5-1.2
			L290.9,221z M289.7,212.9h-2.8v-0.6h2.8V212.9z M295.9,220.6h-7.7v-4.8h7.7V220.6z M295.1,216.3H289v0.9h6.2V216.3z M295.1,217.7
			H289v0.9h6.2V217.7z M295.1,219.1H289v0.9h6.2V219.1z M294,213.1c0,0.1,0,0.3,0,0.4c0.6,0.7,2,1.2,3.5,1.4
			c-0.2,0.2-0.4,0.5-0.5,0.6c-1.4-0.2-2.6-0.7-3.3-1.4c-0.4,0.6-1.3,1.2-3.5,1.5c-0.1-0.2-0.3-0.5-0.4-0.6c3.1-0.4,3.4-1.3,3.4-2
			V213h-1.3c-0.3,0.5-0.6,0.9-0.9,1.2c-0.1-0.1-0.4-0.3-0.6-0.4c0.6-0.6,1.1-1.4,1.4-2.3l0.7,0.2c-0.1,0.2-0.2,0.5-0.3,0.7h4.1
			l0.1,0l0.5,0.2c-0.3,0.6-0.7,1.3-1,1.7l-0.6-0.2c0.2-0.3,0.4-0.6,0.6-1h-2V213.1z M293.7,220.7c1.3,0.4,2.7,0.9,3.5,1.3l-0.7,0.5
			c-0.8-0.4-2.1-0.9-3.4-1.3L293.7,220.7z"/>
		<path d="M286.7,227.2c0.2,0,0.4-0.3,0.7-0.7c0.3-0.3,1.1-1.7,1.6-3l0.8,0.3c-0.5,1.2-1.2,2.3-1.9,3.2l1.3-0.1
			c0.3-0.5,0.6-1.1,0.9-1.6l0.7,0.4c-0.8,1.4-1.8,2.8-2.7,3.9l2.2-0.3c-0.1-0.4-0.3-0.8-0.5-1.2l0.6-0.2c0.4,0.8,0.8,1.8,0.9,2.4
			l-0.6,0.3c0-0.2-0.1-0.5-0.2-0.7c-2.8,0.4-3.2,0.5-3.4,0.7c0-0.2-0.2-0.6-0.3-0.8c0.2-0.1,0.5-0.3,0.9-0.8c0.2-0.2,0.6-0.7,1-1.4
			c-1.3,0.2-1.6,0.2-1.8,0.3C286.9,227.8,286.8,227.4,286.7,227.2z M287.9,231.3c-0.1,1-0.4,2.1-0.6,2.9c-0.1-0.1-0.5-0.2-0.6-0.2
			c0.3-0.7,0.5-1.8,0.6-2.8L287.9,231.3z M289.1,231.1c0.1,0.8,0.3,1.7,0.3,2.4l-0.6,0.1c0-0.6-0.2-1.6-0.3-2.4L289.1,231.1z
			 M290.4,230.8c0.3,0.6,0.5,1.4,0.6,1.9l-0.6,0.2c-0.1-0.5-0.3-1.4-0.6-2L290.4,230.8z M297.1,227.7c-0.3,1.7-0.9,3.2-1.7,4.3
			c0.6,0.8,1.3,1.4,2.2,1.7c-0.2,0.1-0.4,0.5-0.6,0.7c-0.8-0.4-1.5-1-2.1-1.8c-0.7,0.8-1.4,1.4-2.2,1.8c-0.1-0.2-0.3-0.5-0.5-0.6
			c0.8-0.4,1.6-1.1,2.3-1.9c-0.6-1.1-1.1-2.3-1.4-3.7c-0.2,2.5-0.7,4.5-1.8,6.1c-0.1-0.1-0.5-0.4-0.7-0.5c1.6-2,1.9-5.1,1.9-9h-1.2
			v-0.8h4.3l0.1,0l0.6,0.1c-0.1,1-0.3,2.3-0.6,3.4h0.9l0.1,0L297.1,227.7z M293.1,224.9c0,0.9,0,1.8-0.1,2.7h1.7
			c0.2-0.8,0.3-1.9,0.5-2.7H293.1z M293.7,228.3c0.3,1.1,0.7,2.2,1.2,3c0.6-0.9,1-1.9,1.3-3H293.7z"/>
		<path d="M290,235.8c-0.3,0.9-0.7,1.7-1.2,2.5v8.2H288v-7c-0.4,0.6-0.9,1.1-1.3,1.6c-0.1-0.2-0.3-0.6-0.4-0.7c1.2-1.2,2.3-3,3-4.8
			L290,235.8z M292.9,244.9c-0.7,0.6-1.9,1.2-2.8,1.6c-0.1-0.1-0.4-0.4-0.6-0.6c1-0.3,2.1-0.8,2.7-1.3L292.9,244.9z M297.5,238.7
			v0.6h-7.8v-0.6h3.5V238h-2.7v-0.6h2.7v-0.6h-3v-0.6h3v-0.7h0.8v0.7h3.1v0.6H294v0.6h2.8v0.6H294v0.7H297.5z M296.7,244.4h-6.1
			v-4.5h6.1V244.4z M295.9,240.4h-4.5v0.8h4.5V240.4z M295.9,241.7h-4.5v0.8h4.5V241.7z M295.9,243h-4.5v0.8h4.5V243z M295.1,244.6
			c0.9,0.5,1.8,1.1,2.4,1.5l-0.7,0.5c-0.5-0.4-1.5-1.2-2.4-1.6L295.1,244.6z"/>
	</g>
	<g class="st4">
		<path d="M246.7,176.2c-0.9,2-2.2,3.9-3.5,5.1c-0.2-0.2-0.5-0.5-0.7-0.6c1.4-1.1,2.6-2.9,3.4-4.7L246.7,176.2z M250.1,181.9
			c1,1.3,2.1,3,2.7,4l-0.8,0.4c-0.2-0.3-0.4-0.7-0.6-1.1c-6.3,0.4-6.9,0.5-7.4,0.6c0-0.2-0.2-0.6-0.3-0.8c0.3-0.1,0.6-0.5,1.1-1.1
			c0.5-0.5,2-2.7,3.1-4.8l0.9,0.4c-1.1,1.9-2.3,3.8-3.6,5.3l5.7-0.3c-0.5-0.8-1.1-1.6-1.5-2.3L250.1,181.9z M250.4,175.8
			c0.6,2,1.8,3.8,3.2,4.7c-0.2,0.2-0.5,0.5-0.6,0.7c-1.4-1-2.5-2.8-3.2-4.6h-2.3v-0.8H250.4z"/>
		<path d="M252.6,197.3c0,0.6-0.2,0.8-0.5,0.9c-0.4,0.1-1.1,0.1-2.2,0.1c0-0.2-0.2-0.6-0.3-0.8c0.9,0,1.7,0,1.9,0
			c0.2,0,0.3-0.1,0.3-0.3v-2.6h-3.3v3.6h-0.8v-3.6h-3.1c-0.2,1.3-0.6,2.7-1.5,3.8c-0.1-0.2-0.4-0.4-0.6-0.5c1.3-1.5,1.5-3.6,1.5-5.3
			v-4.3h8.7V197.3z M247.6,194v-2.1h-3v0.8c0,0.4,0,0.9,0,1.3H247.6z M244.7,189.2v2h3v-2H244.7z M251.8,189.2h-3.3v2h3.3V189.2z
			 M251.8,194v-2.1h-3.3v2.1H251.8z"/>
		<path d="M253.4,207.1h-1.2v2.1h-0.8v-0.5h-3v0.9c0,0.5-0.2,0.7-0.5,0.9c-0.4,0.1-1,0.1-2,0.1c0-0.2-0.2-0.5-0.3-0.7
			c0.8,0,1.5,0,1.7,0c0.2,0,0.3-0.1,0.3-0.3v-0.9h-3.9V208h3.9v-1h-4.9v-0.6h4.9v-0.9h-3.8v-0.6h3.8V204h-3.5v-2.1h3.5v-0.7h-4.7
			v-0.7h4.7v-1h0.8v1h4.8v0.7h-4.8v0.7h3.6v2.1h-3.6v0.9h3.8v1.5h1.2V207.1z M247.6,203.4v-0.9h-2.7v0.9H247.6z M248.4,202.5v0.9
			h2.8v-0.9H248.4z M248.4,206.4h3v-0.9h-3V206.4z M251.4,207.1h-3v1h3V207.1z"/>
		<path d="M247,220.5c-0.9,0.6-2.5,1.2-3.7,1.5c-0.1-0.2-0.3-0.5-0.5-0.6c1.2-0.2,2.8-0.7,3.6-1.2L247,220.5z M253.2,218.9v0.7h-4.8
			v2.9h-0.8v-2.9h-4.8v-0.7h4.8v-1h-3.6v-0.6h3.6v-0.9h-4.3v-0.6h2.7c-0.1-0.4-0.4-0.8-0.6-1.2l0.6-0.2h-3.1v-0.7h2
			c-0.2-0.5-0.6-1.2-1-1.8l0.7-0.2c0.4,0.6,0.9,1.3,1.1,1.8l-0.6,0.2h1.5v-2.2h0.7v2.2h1.5v-2.2h0.8v2.2h1.5l-0.5-0.2
			c0.3-0.5,0.7-1.3,1-1.8l0.8,0.2c-0.3,0.6-0.7,1.3-1.1,1.8h1.9v0.7h-3.1l0.7,0.2c-0.3,0.4-0.6,0.9-0.9,1.2h2.8v0.6h-4.4v0.9h3.8
			v0.6h-3.8v1H253.2z M246.1,214.4c0.3,0.4,0.6,0.9,0.7,1.2l-0.5,0.1h3.3l-0.4-0.1c0.3-0.3,0.6-0.9,0.7-1.2H246.1z M249.7,220.2
			c1.2,0.4,2.7,0.9,3.6,1.3l-0.5,0.5c-0.8-0.4-2.4-1-3.5-1.4L249.7,220.2z"/>
	</g>
	<g class="st4">
		<path d="M201.7,181.4c-0.2,1.1-0.4,2-0.8,2.7c0.8,1.3,2.3,1.5,4.6,1.5c1.2,0,3-0.1,4.1-0.2c-0.1,0.2-0.2,0.5-0.3,0.8
			c-1.1,0.1-2.6,0.1-3.9,0.1c-2.4,0-3.9-0.2-4.9-1.6c-0.4,0.8-1,1.3-1.6,1.8c-0.1-0.2-0.4-0.5-0.5-0.6c1.2-0.7,2-2.1,2.4-4h-1.4
			c-0.3,0-0.6,0.1-0.7,0.2c0-0.2-0.2-0.6-0.3-0.7c0.2,0,0.4-0.1,0.6-0.3c0.3-0.3,1-1.3,1.6-2h-2v-0.7h2.5l0.1-0.1l0.5,0.3
			c-0.5,0.7-1.5,2-2.1,2.8h1.5l0.1,0L201.7,181.4z M200.6,177.8c-0.3-0.5-1-1.3-1.5-1.9l0.6-0.3c0.6,0.6,1.2,1.4,1.5,1.8
			L200.6,177.8z M203.1,184.7h-0.7v-6.1h3.6c-0.8-0.4-1.6-0.8-2.4-1l0.5-0.5c0.5,0.2,1.1,0.4,1.7,0.7c0.6-0.3,1.3-0.6,1.8-1h-5.2
			V176h5.9l0.2,0l0.5,0.4c-0.6,0.6-1.6,1.2-2.5,1.7c0.4,0.2,0.7,0.3,0.9,0.5h1.5v5.4c0,0.4-0.1,0.6-0.4,0.7
			c-0.3,0.1-0.8,0.1-1.6,0.1c0-0.2-0.1-0.5-0.2-0.6c0.6,0,1.1,0,1.3,0c0.2,0,0.2,0,0.2-0.2v-1.2H206v2h-0.7v-2h-2.2V184.7z
			 M203.1,179.2v1.1h2.2v-1.1H203.1z M205.2,182.1v-1.2h-2.2v1.2H205.2z M208.2,179.2H206v1.1h2.3V179.2z M208.2,182.1v-1.2H206v1.2
			H208.2z"/>
		<path d="M202.9,190.2h-4.3v-0.7h4.3V190.2z M202.5,197.7h-2.7v0.6h-0.6v-4h3.4V197.7z M199.1,191.8v-0.6h3.4v0.6H199.1z
			 M199.1,192.7h3.4v0.6h-3.4V192.7z M199.7,195v2.1h2.1V195H199.7z M200.8,189.4c-0.2-0.4-0.5-1.1-0.9-1.6l0.6-0.3
			c0.3,0.5,0.7,1.1,0.9,1.5L200.8,189.4z M208.2,188.2c-0.1,5-0.1,9,0.6,9.2c0.1,0,0.2-0.7,0.2-1.6c0.1,0.2,0.4,0.4,0.5,0.6
			c-0.1,1.7-0.5,2.1-1,1.8c-1.2-0.4-1.1-4.2-1.1-9.2h-2.1v3.6h1.7v0.8h-1.7v5.1h-0.8v-5.1h-1.7v-0.8h1.7V189H203v-0.8H208.2z"/>
		<path d="M202.8,209.5c0,0.5-0.1,0.7-0.4,0.8c-0.3,0.1-0.8,0.1-1.6,0.1c0-0.2-0.1-0.6-0.2-0.8c0.6,0,1.1,0,1.2,0
			c0.2,0,0.2-0.1,0.2-0.2v-3.1h-2c-0.1,1.4-0.3,2.9-0.9,4.1c-0.1-0.1-0.5-0.3-0.6-0.4c0.8-1.7,0.9-4.1,0.9-5.8V200h3.4V209.5z
			 M202,205.7v-2.1h-1.9v0.7c0,0.4,0,0.9,0,1.4H202z M200.1,200.7v2.1h1.9v-2.1H200.1z M209.2,204.2c-0.3,1.6-0.9,3-1.7,4
			c0.6,0.7,1.3,1.2,2.1,1.6c-0.2,0.1-0.4,0.4-0.5,0.6c-0.7-0.4-1.4-1-2-1.7c-0.6,0.6-1.2,1.2-1.9,1.6c-0.1-0.2-0.3-0.4-0.5-0.6
			c0.7-0.4,1.3-0.9,1.9-1.6c-0.7-1-1.2-2.2-1.6-3.4h-0.3v5.7h-0.8V200h5v2.3c0,0.4-0.1,0.6-0.4,0.8c-0.4,0.1-0.9,0.1-1.8,0.1
			c0-0.2-0.2-0.5-0.3-0.7c0.8,0,1.4,0,1.5,0c0.2,0,0.2-0.1,0.2-0.2v-1.5h-3.5v3.3h4l0.1,0L209.2,204.2z M205.7,204.8
			c0.3,1,0.8,2,1.4,2.8c0.5-0.8,1-1.8,1.3-2.8H205.7z"/>
		<path d="M208.4,213.5c-0.3,0.8-0.8,1.5-1.5,2.1c0.8,0.5,1.7,0.9,2.7,1.1c-0.2,0.2-0.4,0.5-0.5,0.7c-1-0.3-2-0.7-2.8-1.3
			c-0.8,0.6-1.7,1-2.6,1.3c-0.1-0.1-0.2-0.3-0.3-0.5c-0.2,0.7-0.5,1.4-0.7,1.8l-0.6-0.3c0.3-0.5,0.5-1.3,0.7-2h-1.3v5.1
			c0,0.4-0.1,0.6-0.4,0.8c-0.3,0.1-0.7,0.1-1.5,0.1c0-0.2-0.1-0.5-0.3-0.7c0.5,0,1,0,1.2,0s0.2,0,0.2-0.2v-4.1
			c-0.5,1.2-1.1,2.4-1.8,3.1c-0.1-0.2-0.3-0.5-0.4-0.7c0.8-0.7,1.5-2.1,2-3.3h-1.9v-0.7h3.3c-0.6-0.6-1.7-1.3-2.7-1.7l0.5-0.5
			c0.4,0.2,0.8,0.4,1.2,0.6c0.5-0.4,1-0.8,1.4-1.3h-3.5v-0.7h4.1l0.1,0l0.5,0.3c-0.5,0.7-1.3,1.5-2,2c0.4,0.3,0.8,0.5,1,0.8
			l-0.4,0.5h0.9l0.1,0l0.5,0.2c-0.1,0.2-0.1,0.5-0.2,0.7c0.9-0.2,1.6-0.6,2.3-1c-0.5-0.5-1-1-1.3-1.5c-0.3,0.3-0.6,0.7-0.9,0.9
			c-0.2-0.1-0.5-0.4-0.7-0.5c0.9-0.7,1.8-1.8,2.3-2.9l0.8,0.2c-0.2,0.4-0.3,0.7-0.6,1.1h4.1v0.7H208.4z M209.1,218.2
			c0,0,0,0.2,0,0.3c-0.2,2.3-0.4,3.2-0.8,3.5c-0.2,0.2-0.4,0.3-0.7,0.3c-0.3,0-0.8,0-1.3,0c0-0.2-0.1-0.5-0.2-0.7
			c0.5,0.1,1,0.1,1.2,0.1c0.2,0,0.3,0,0.4-0.1c0.2-0.2,0.4-0.9,0.6-2.7h-2.1c-0.4,1.5-1.2,2.8-3.2,3.5c-0.1-0.2-0.3-0.5-0.5-0.6
			c1.7-0.6,2.5-1.7,2.8-2.9h-2v-0.7h2.1c0.1-0.4,0.1-0.8,0.2-1.2h0.8c0,0.4-0.1,0.8-0.2,1.2H209.1z M204.9,213.5
			c0.3,0.6,0.8,1.2,1.4,1.6c0.5-0.4,0.9-1,1.2-1.6H204.9z"/>
	</g>
	<g class="st4">
		<path d="M157.4,175.7c-0.2,0.8-0.5,1.6-0.8,2.4v8.3h-0.7v-6.8c-0.3,0.5-0.6,1-0.9,1.5c-0.1-0.2-0.3-0.6-0.4-0.8
			c0.9-1.2,1.7-2.9,2.2-4.7L157.4,175.7z M159.9,180c-0.2,1.7-0.5,3-0.9,4.1c1.2,1.3,2.7,1.5,4.4,1.5c0.3,0,1.6,0,2.1,0
			c-0.1,0.2-0.2,0.5-0.3,0.7h-1.9c-1.8,0-3.5-0.3-4.7-1.5c-0.4,0.7-0.9,1.3-1.4,1.7c-0.1-0.2-0.4-0.4-0.5-0.5c0.6-0.4,1.1-1,1.5-1.8
			c-0.4-0.6-0.8-1.3-1-2.3l0.6-0.2c0.2,0.7,0.5,1.3,0.8,1.8c0.3-0.8,0.5-1.7,0.6-2.9h-1.4c-0.2,0.1-0.3,0.2-0.3,0.3
			c-0.1-0.1-0.2-0.5-0.3-0.6c0.2,0,0.5-0.4,0.7-0.7c0.2-0.3,0.8-1.3,1.2-2.4h-1.6v-0.7h1.9l0.3-0.1l0.5,0.3
			c-0.5,1.2-1.1,2.4-1.7,3.3h1l0.1,0L159.9,180z M161.9,177.2h-1.5v-0.6h1.5v-1h0.7v1h2v1.6h0.9v0.6h-0.9v1.6h-2v1h2.2v0.6h-2.2v1
			h2.6v0.7h-2.6v1.5h-0.7v-1.5h-2.1V183h2.1v-1h-1.8v-0.6h1.8v-1h-1.5v-0.6h1.5v-1h-2.1v-0.6h2.1V177.2z M162.6,177.2v1h1.3v-1
			H162.6z M164,178.8h-1.3v1h1.3V178.8z"/>
		<path d="M158.7,190.2h-4.2v-0.7h4.2V190.2z M155,191.8v-0.6h3.3v0.6H155z M158.3,193.3H155v-0.6h3.3V193.3z M158.3,197.7h-2.6v0.6
			H155v-4h3.3V197.7z M155.7,195v2.1h1.9V195H155.7z M156.8,189.4c-0.2-0.4-0.6-1.1-0.9-1.6l0.6-0.3c0.3,0.5,0.7,1.1,0.9,1.5
			L156.8,189.4z M159.6,191.7c-0.2,0.3-0.4,0.6-0.7,0.8c-0.1-0.1-0.3-0.4-0.5-0.6c0.7-0.6,1.3-1.6,1.6-2.5l0.7,0.2
			c-0.1,0.3-0.2,0.6-0.4,0.9h1.7c-0.1-0.3-0.2-0.6-0.3-0.8l0.7-0.2c0.1,0.3,0.3,0.7,0.4,1h2.3v0.6h-2.4v0.6h2.1v0.5h-2.1v0.6h2.1
			v0.5h-2.1v0.7h2.7v0.5h-5.1v0.3h-0.7V191.7z M164.8,195.3c-0.4,0.8-1.1,1.4-1.9,1.9c0.8,0.3,1.8,0.6,2.7,0.7
			c-0.2,0.2-0.4,0.4-0.5,0.6c-1.1-0.2-2.1-0.5-3-1c-1,0.5-2.2,0.8-3.3,1c-0.1-0.2-0.2-0.5-0.3-0.6c1-0.1,2-0.4,2.9-0.7
			c-0.6-0.4-1.1-0.8-1.5-1.3l0.4-0.1h-1.4V195h5.3l0.1,0L164.8,195.3z M160.8,188.9h-2v-0.6h2v-0.8h0.7v2.1h-0.7V188.9z M162,191
			h-1.7v0.6h1.7V191z M162,192.1h-1.7v0.6h1.7V192.1z M162,193.3h-1.7v0.7h1.7V193.3z M160.7,195.6c0.4,0.4,0.9,0.8,1.5,1.1
			c0.6-0.3,1.2-0.7,1.5-1.1H160.7z M163.5,189.6h-0.7v-2.1h0.7v0.8h1.9v0.6h-1.9V189.6z"/>
		<path d="M161.4,205.9v0.6h2.9v4h-0.8V210h-7v0.5h-0.7v-4h3v-0.6h-4.2v-0.6h10.9v0.6H161.4z M155.3,200.4h-0.4v-0.5h5.2v0.5h-4.2
			v3.3c0,0.4,0.1,0.6,0.6,0.6h2.6c0.3,0,0.8,0,1-0.1c0,0.2,0,0.4,0.1,0.5c-0.2,0.1-0.6,0.1-1.1,0.1h-2.7c-0.9,0-1.2-0.3-1.2-1.2
			V200.4z M158.3,202.7L158.3,202.7c0.5,0.4,1.2,0.8,1.5,1.1l-0.4,0.4c-0.3-0.3-0.9-0.7-1.4-1c-0.2,0.4-0.7,0.8-1.5,1.1
			c-0.1-0.1-0.3-0.3-0.4-0.4c0.9-0.3,1.3-0.7,1.4-1.1h-1.5v-0.5h1.6v-0.1v-0.6H157c-0.2,0.2-0.3,0.4-0.5,0.6
			c-0.1-0.1-0.3-0.2-0.5-0.3c0.4-0.4,0.7-0.9,0.9-1.3l0.5,0.1c0,0.1-0.1,0.3-0.2,0.4h2.4v0.5h-1.4v0.6v0.1h1.6v0.5H158.3z
			 M163.5,209.5v-1.4h-0.1h-1.6c-0.8,0-1-0.1-1-0.7V207h-1.4c-0.1,0.6-0.7,1-2.4,1.3c-0.1-0.2-0.2-0.4-0.3-0.5
			c1.4-0.2,1.9-0.5,2.1-0.9h-2.2v2.5H163.5z M157.6,208.5h5v0.5h-5V208.5z M160.8,205.9h-1.3v0.6h1.3V205.9z M160.4,202.2
			c-0.1-0.1-0.3-0.4-0.4-0.5c0.9-0.4,1.1-0.8,1.1-1.2v-0.6h2.8v1.2c0,0.2,0,0.3,0.2,0.3h0.6c0.1,0,0.3,0,0.5,0c0,0.2,0,0.4,0,0.6
			c-0.1,0-0.3,0-0.5,0h-0.7c-0.6,0-0.7-0.2-0.7-0.9v-0.6h-1.5v0c0,0.6-0.2,1.2-1.2,1.6h3.4l0.1,0l0.4,0.2c-0.3,0.6-0.7,1.2-1.2,1.6
			c0.6,0.3,1.1,0.6,1.5,0.8l-0.3,0.5c-0.4-0.3-1-0.6-1.7-0.9c-0.7,0.4-1.4,0.7-2.1,0.9c-0.1-0.2-0.2-0.4-0.3-0.5
			c0.6-0.1,1.3-0.4,1.9-0.7c-0.5-0.3-1-0.5-1.5-0.7l0.3-0.4c0.5,0.2,1.1,0.5,1.7,0.8c0.4-0.3,0.7-0.6,0.9-0.9h-3L160.4,202.2
			L160.4,202.2z M161.4,207v0.4c0,0.2,0.1,0.3,0.4,0.3h1.4c0.1,0,0.2,0,0.2,0V207H161.4z"/>
		<path d="M157,213.4v3.2c0,1.8-0.2,4.3-1.7,6c-0.1-0.2-0.4-0.4-0.6-0.5c0.9-1.1,1.3-2.5,1.4-3.8c-0.5,0.3-1,0.6-1.5,0.9l-0.3-0.7
			c0.5-0.2,1.1-0.6,1.8-0.9c0-0.3,0-0.6,0-0.9v-3.8h4.3c-0.1-0.3-0.2-0.7-0.3-1l0.8-0.2c0.2,0.3,0.3,0.8,0.4,1.1h4.1v0.7H157z
			 M155.4,216.3c-0.1-0.6-0.5-1.6-0.8-2.3l0.6-0.2c0.3,0.8,0.7,1.7,0.8,2.3L155.4,216.3z M165,215.6c-0.3,0.3-0.7,0.6-1,0.9
			c0.5,0.4,1,0.7,1.5,0.9c-0.2,0.1-0.4,0.4-0.5,0.6c-0.4-0.2-0.7-0.4-1.1-0.6v2.5h-2.3v1.9c0,0.4-0.1,0.6-0.4,0.7
			c-0.3,0.1-0.8,0.1-1.6,0.1c0-0.2-0.2-0.5-0.3-0.7c0.6,0,1.1,0,1.3,0c0.2,0,0.2,0,0.2-0.2v-1.9h-2.3v-2.4c-0.3,0.2-0.7,0.4-1.1,0.6
			c-0.1-0.2-0.3-0.4-0.5-0.5c0.6-0.3,1.1-0.6,1.5-0.9c-0.3-0.3-0.6-0.6-1-0.8l0.4-0.4c0.3,0.2,0.7,0.5,1,0.8c0.3-0.3,0.6-0.6,0.8-1
			h-2.4v-0.6h2.7c0.2-0.4,0.3-0.7,0.4-1.1l0.8,0.1c-0.1,0.3-0.2,0.6-0.4,1h4.2v0.6h-2.6c0.3,0.4,0.6,0.7,0.9,1
			c0.3-0.3,0.7-0.7,0.9-0.9L165,215.6z M159.6,220.3c-0.6,0.6-1.3,1.4-1.9,1.9c-0.1-0.1-0.4-0.4-0.6-0.5c0.6-0.5,1.3-1.1,1.8-1.7
			L159.6,220.3z M163.3,217.1h-4v0.8h4V217.1z M163.3,218.4h-4v0.8h4V218.4z M163.1,216.6c-0.5-0.4-0.9-0.9-1.2-1.4h-1.2
			c-0.3,0.5-0.7,1-1.2,1.4H163.1z M163.3,220.1c0.6,0.6,1.5,1.3,1.9,1.8l-0.6,0.4c-0.4-0.5-1.2-1.3-1.9-1.9L163.3,220.1z"/>
	</g>
	<g class="st4">
		<path d="M114.6,182.6c-0.2-0.4-0.8-1.3-1.2-1.9v5.7h-0.8V181c-0.5,1.3-1.2,2.5-1.8,3.3c-0.1-0.2-0.3-0.5-0.4-0.7
			c0.8-0.9,1.6-2.5,2.1-3.9h-1.9v-0.7h2.1V177c-0.6,0.1-1.2,0.2-1.7,0.3c0-0.2-0.1-0.4-0.2-0.6c1.3-0.2,2.9-0.6,3.8-1l0.5,0.6
			c-0.5,0.2-1,0.4-1.6,0.5v2.1h1.8v0.7h-1.8v0.2c0.4,0.4,1.4,1.8,1.7,2.1L114.6,182.6z M120,183.3v3.1h-0.8v-3l-4,0.6l-0.1-0.7
			l4.1-0.7v-7.1h0.8v7l1.4-0.2l0.1,0.7L120,183.3z M117.7,181.7c-0.4-0.5-1.4-1.3-2.1-1.8l0.5-0.5c0.8,0.5,1.7,1.2,2.2,1.7
			L117.7,181.7z M118,178.5c-0.4-0.5-1.2-1.2-1.9-1.7l0.5-0.5c0.7,0.5,1.6,1.1,2,1.6L118,178.5z"/>
		<path d="M113,194v3.5c0,0.5-0.1,0.7-0.4,0.8c-0.3,0.1-0.8,0.1-1.6,0.1c0-0.2-0.1-0.5-0.2-0.7c0.6,0,1.1,0,1.2,0
			c0.2,0,0.2-0.1,0.2-0.2v-3.2l-1.5,0.4l-0.2-0.8c0.5-0.1,1.1-0.3,1.7-0.5v-2.7h-1.6V190h1.6v-2.4h0.8v2.4h1.3v0.7H113v2.5l1.4-0.4
			l0.1,0.7L113,194z M120.8,192.2c-0.5,1.6-1.4,2.9-2.5,3.9c0.9,0.7,1.9,1.3,3.2,1.6c-0.2,0.2-0.4,0.5-0.5,0.7
			c-1.3-0.4-2.3-1-3.2-1.8c-1.1,0.8-2.2,1.4-3.5,1.8c-0.1-0.2-0.3-0.6-0.4-0.7c1.2-0.3,2.3-0.9,3.3-1.6c-0.9-0.9-1.5-2.1-2-3.4h-0.4
			v-0.7h2.6v-1.9h-2.9v-0.7h2.9v-1.9h0.8v1.9h2.9v0.7h-2.9v1.9h2l0.1,0L120.8,192.2z M115.9,192.8c0.4,1.1,1,2.1,1.8,2.9
			c0.9-0.8,1.6-1.7,2-2.9H115.9z"/>
	</g>
	<g class="st4">
		<path d="M73.8,185.6c0.7,0,0.8-0.4,0.9-2.3c0.2,0.2,0.6,0.3,0.8,0.3c-0.1,2.1-0.4,2.8-1.7,2.8h-2.5c-1.2,0-1.6-0.3-1.6-1.5v-0.8
			c-0.9,0.6-1.8,1.1-2.8,1.6c-0.1-0.2-0.3-0.5-0.5-0.6c1.2-0.5,2.3-1.2,3.3-2v-4.7h0.8v4c2.1-1.8,3.8-4,5-6.3l0.8,0.3
			c-1.4,2.6-3.3,5-5.7,6.9v1.4c0,0.6,0.1,0.7,0.8,0.7H73.8z M68.6,179.4c-0.3,1.3-0.7,3-1.4,4.1l-0.7-0.3c0.7-1,1.2-2.7,1.4-4
			L68.6,179.4z M72.8,178.5c-0.7-0.6-2-1.6-3-2.3l0.5-0.6c1,0.7,2.4,1.7,3,2.2L72.8,178.5z M75.6,179.5c0.8,1.2,1.7,2.8,2,3.8
			l-0.8,0.4c-0.3-1.1-1.1-2.7-1.9-3.9L75.6,179.5z"/>
		<path d="M70.8,194.7c-0.8,1.4-2.2,2.7-3.7,3.5c-0.1-0.2-0.4-0.5-0.6-0.6c1.4-0.7,2.8-1.9,3.6-3.1L70.8,194.7z M70.3,188.1
			c-0.8,1-2.1,1.9-3.2,2.5c-0.1-0.2-0.4-0.4-0.6-0.6c1.1-0.5,2.3-1.4,3-2.3L70.3,188.1z M70.5,191.4c-0.8,1.1-2.1,2.1-3.2,2.8
			c-0.1-0.2-0.4-0.5-0.6-0.6c1.1-0.6,2.4-1.5,3.1-2.5L70.5,191.4z M73.3,196.9c-0.8,0.6-2,1.2-3,1.6c-0.1-0.2-0.3-0.4-0.5-0.6
			c1-0.3,2.3-0.9,2.8-1.4L73.3,196.9z M73.3,190c0.1-0.4,0.2-0.8,0.3-1.2h-2.8v-0.7h6.7v0.7h-2.9c-0.1,0.4-0.3,0.8-0.4,1.2H77v6.2
			h-5.7V190H73.3z M76.2,190.6H72v1.2h4.2V190.6z M76.2,192.5H72v1.2h4.2V192.5z M76.2,194.3H72v1.2h4.2V194.3z M75.2,196.5
			c0.8,0.4,1.9,1,2.4,1.5l-0.6,0.5c-0.5-0.4-1.6-1.1-2.4-1.5L75.2,196.5z"/>
		<path d="M68.7,204.8c-0.5-0.3-1.5-0.9-2.2-1.3l0.4-0.6c0.7,0.4,1.7,0.9,2.2,1.2L68.7,204.8z M66.9,209.8c0.6-0.9,1.6-2.5,2.3-3.9
			l0.6,0.5c-0.6,1.3-1.5,2.8-2.2,3.9L66.9,209.8z M67.6,199.7c0.7,0.4,1.7,1,2.2,1.3l-0.5,0.6c-0.5-0.4-1.5-1-2.2-1.4L67.6,199.7z
			 M76.7,209.4c0,0.5-0.1,0.7-0.4,0.9c-0.3,0.1-0.9,0.1-1.8,0.1c0-0.2-0.1-0.5-0.3-0.8c0.7,0,1.3,0,1.5,0c0.2,0,0.2-0.1,0.2-0.2V207
			c-1.5,0.4-3,0.8-4.2,1l-0.3-0.7c1.1-0.2,2.8-0.6,4.4-1v-2.7h-4.6v2.5c0,1.3-0.1,3.1-0.8,4.3c-0.1-0.1-0.4-0.4-0.6-0.5
			c0.6-1.1,0.7-2.6,0.7-3.8V203h2.7v-3.4h0.8v3.4h2.6V209.4z M71.5,202.5c-0.2-0.6-0.7-1.6-1.2-2.3l0.7-0.3c0.5,0.7,1.1,1.6,1.3,2.2
			L71.5,202.5z M72,204.5c1.1,0.2,2.5,0.6,3.2,1l-0.3,0.6c-0.7-0.4-2.1-0.9-3.2-1.1L72,204.5z M77.1,200.2c-0.4,0.8-0.9,1.7-1.4,2.3
			l-0.7-0.3c0.4-0.6,1-1.6,1.3-2.3L77.1,200.2z"/>
		<path d="M71,221.1c-1,0.5-2.5,1.1-3.7,1.4c-0.1-0.2-0.4-0.5-0.6-0.6c1.2-0.3,2.7-0.7,3.5-1.1L71,221.1z M73.7,220.7
			c1.3,0.4,2.7,0.8,3.5,1.2l-0.6,0.5c-0.8-0.4-2.2-0.9-3.6-1.3l0.4-0.4h-5.3v-3.8c-0.3,0.1-0.7,0.2-1.1,0.3
			c-0.1-0.2-0.2-0.5-0.4-0.6c1.5-0.3,2.4-0.7,2.9-1.2h-2.1c0.1-0.5,0.2-1.2,0.3-1.8h2.4v-0.7h-3v-0.6h3v-0.7H71v0.7H73v-0.7h0.8v0.7
			h2.7v1.8h-2.7v0.8h3.4c0,0,0,0.2,0,0.3c-0.1,0.6-0.2,1-0.3,1.1c-0.1,0.1-0.3,0.2-0.6,0.2h-0.3v4.3H73.7z M68.5,214
			c0,0.3-0.1,0.5-0.1,0.8h1.7c0.1-0.2,0.2-0.5,0.2-0.8H68.5z M75.1,216.7H69v0.8h6.1V216.7z M75.1,218.1H69v0.8h6.1V218.1z
			 M69,220.2h6.1v-0.8H69V220.2z M70.6,215.3c-0.2,0.3-0.5,0.6-0.9,0.9h5.5c0-0.1-0.1-0.3-0.1-0.4c0.4,0,0.7,0,0.9,0
			c0.1,0,0.2,0,0.3-0.1s0.1-0.2,0.1-0.5h-2.6v0.8H73v-0.8H70.6z M73,214h-2c0,0.3-0.1,0.5-0.1,0.8H73V214z M71,213.5H73v-0.7H71
			V213.5z M73.7,212.8v0.7h2v-0.7H73.7z"/>
	</g>
</g>
</svg>
