<?xml version="1.0" encoding="utf-8"?>
<!-- Generator: Adobe Illustrator 27.8.1, SVG Export Plug-In . SVG Version: 6.00 Build 0)  -->
<svg version="1.1" id="圖層_1" xmlns="http://www.w3.org/2000/svg" xmlns:xlink="http://www.w3.org/1999/xlink" x="0px" y="0px"
	 viewBox="0 0 602 259" style="enable-background:new 0 0 602 259;" xml:space="preserve">
<style type="text/css">
	.st0{clip-path:url(#SVGID_00000114789434942003193700000015274214732032537492_);fill:#00367C;}
	
		.st1{clip-path:url(#SVGID_00000046323934518459133160000012479556475096388253_);fill:none;stroke:#00367C;stroke-width:0.75;stroke-linejoin:round;stroke-miterlimit:10;}
	.st2{fill:#00367C;}
	.st3{fill:none;stroke:#00367C;stroke-linejoin:round;stroke-miterlimit:10;}
	.st4{enable-background:new    ;}
	.st5{clip-path:url(#SVGID_00000083088141932352893360000018040064328377957012_);fill:#00367C;}
	
		.st6{clip-path:url(#SVGID_00000108274965827259247790000009675153497904050827_);fill:none;stroke:#00367C;stroke-width:0.75;stroke-linejoin:round;stroke-miterlimit:10;}
</style>
<g>
	<text transform="matrix(1 0 0 1 109.394 301.5646)" style="font-family:'SourceHanSansTC-Normal-B5pc-H'; font-size:12px;">科技</text>
	<text transform="matrix(1 0 0 1 73.394 321.5646)" style="font-family:'SourceHanSansTC-Normal-B5pc-H'; font-size:12px;">非必需消費</text>
	<text transform="matrix(1 0 0 1 85.394 341.5646)" style="font-family:'SourceHanSansTC-Normal-B5pc-H'; font-size:12px;">必須消費</text>
	<text transform="matrix(1 0 0 1 97.394 361.5646)" style="font-family:'SourceHanSansTC-Normal-B5pc-H'; font-size:12px;">原物料</text>
	<text transform="matrix(1 0 0 1 109.394 381.5646)" style="font-family:'SourceHanSansTC-Normal-B5pc-H'; font-size:12px;">能源</text>
	<text transform="matrix(1 0 0 1 109.394 401.5646)" style="font-family:'SourceHanSansTC-Normal-B5pc-H'; font-size:12px;">運輸</text>
	<text transform="matrix(1 0 0 1 13.394 421.5646)" style="font-family:'SourceHanSansTC-Normal-B5pc-H'; font-size:12px;">美國非金融投資級企業</text>
	<text transform="matrix(1 0 0 1 85.394 441.5646)" style="font-family:'SourceHanSansTC-Normal-B5pc-H'; font-size:12px;">通訊服務</text>
	<text transform="matrix(1 0 0 1 109.394 461.5646)" style="font-family:'SourceHanSansTC-Normal-B5pc-H'; font-size:12px;">工業</text>
	<text transform="matrix(1 0 0 1 85.394 481.5646)" style="font-family:'SourceHanSansTC-Normal-B5pc-H'; font-size:12px;">公用事業</text>
	
		<text transform="matrix(1 0 0 1 132.65 499.5139)" style="font-family:'SourceHanSansTC-Normal-B5pc-H'; font-size:12px; letter-spacing:56;">０１２３４５6</text>
	<text transform="matrix(1 0 0 1 560.651 498.5787)" style="font-family:'SourceHanSansTC-Normal-B5pc-H'; font-size:12px;">倍數</text>
	<text transform="matrix(1 0 0 1 347.3179 380.65)" style="font-family:'SourceHanSansTC-Normal-B5pc-H'; font-size:12px;">美國投資級債淨財務槓桿</text>
	<g id="_x30_1_00000072989641639896675700000007338202341187145867_">
		<g>
			<g>
				<defs>
					<rect id="SVGID_1_" x="136.7" y="286.9" width="396.3" height="201.2"/>
				</defs>
				<clipPath id="SVGID_00000120551107261934732370000011584009829511916431_">
					<use xlink:href="#SVGID_1_"  style="overflow:visible;"/>
				</clipPath>
				<path style="clip-path:url(#SVGID_00000120551107261934732370000011584009829511916431_);fill:#00367C;" d="M241.8,302.8H137.4
					v-9.1h104.4L241.8,302.8L241.8,302.8z M255.4,322.4h-118v-9.1h118V322.4z M261.5,343.6h-124V333h124V343.6z M269,363.3H137.4
					v-10.6H269V363.3z M288.7,383H137.4v-10.6h151.3V383z M294.7,402.6H137.4v-9.1h157.3V402.6z M328,422.3H137.4v-9.1H328V422.3z
					 M361.3,443.5H137.4v-10.6h223.9V443.5z M473.2,463.1H137.4v-10.6h335.8L473.2,463.1L473.2,463.1z M486.9,482.8H137.4v-10.6
					h349.4v10.6H486.9z"/>
			</g>
			<g>
				<defs>
					<rect id="SVGID_00000111150211799151028920000015582500275040440489_" x="136.7" y="286.9" width="396.3" height="201.2"/>
				</defs>
				<clipPath id="SVGID_00000173843211183752924350000012453314708397327287_">
					<use xlink:href="#SVGID_00000111150211799151028920000015582500275040440489_"  style="overflow:visible;"/>
				</clipPath>
				
					<path style="clip-path:url(#SVGID_00000173843211183752924350000012453314708397327287_);fill:none;stroke:#00367C;stroke-width:0.75;stroke-linejoin:round;stroke-miterlimit:10;" d="
					M241.8,302.8H137.4v-9.1h104.4L241.8,302.8L241.8,302.8z M255.4,322.4h-118v-9.1h118V322.4z M261.5,343.6h-124V333h124V343.6z
					 M269,363.3H137.4v-10.6H269V363.3z M288.7,383H137.4v-10.6h151.3V383z M294.7,402.6H137.4v-9.1h157.3V402.6z M328,422.3H137.4
					v-9.1H328V422.3z M361.3,443.5H137.4v-10.6h223.9V443.5z M473.2,463.1H137.4v-10.6h335.8L473.2,463.1L473.2,463.1z M486.9,482.8
					H137.4v-10.6h349.4v10.6H486.9z"/>
			</g>
		</g>
		<g>
			<rect x="336" y="371.7" class="st2" width="7.6" height="7.6"/>
			<rect x="336" y="371.7" class="st3" width="7.6" height="7.6"/>
		</g>
	</g>
</g>
<g>
	<g class="st4">
		<path d="M114,41.8c-0.2-0.4-0.8-1.3-1.2-1.9v5.7H112v-5.5c-0.5,1.3-1.2,2.5-1.8,3.3c-0.1-0.2-0.3-0.5-0.4-0.7
			c0.8-0.9,1.6-2.5,2.1-3.9H110v-0.7h2.1v-1.9c-0.6,0.1-1.2,0.2-1.7,0.3c0-0.2-0.1-0.4-0.2-0.6c1.3-0.2,2.9-0.6,3.8-1l0.5,0.6
			c-0.5,0.2-1,0.4-1.6,0.5v2.1h1.8v0.7h-1.8v0.2c0.4,0.4,1.4,1.8,1.7,2.1L114,41.8z M119.3,42.5v3.1h-0.8v-3l-4,0.6l-0.1-0.7
			l4.1-0.7v-7.1h0.8v7l1.4-0.2l0.1,0.7L119.3,42.5z M117.1,40.9c-0.4-0.5-1.4-1.3-2.1-1.8l0.5-0.5c0.8,0.5,1.7,1.2,2.2,1.7
			L117.1,40.9z M117.4,37.7c-0.4-0.5-1.2-1.2-1.9-1.7l0.5-0.5c0.7,0.5,1.6,1.1,2,1.6L117.4,37.7z"/>
		<path d="M124.4,41.2v3.5c0,0.5-0.1,0.7-0.4,0.8c-0.3,0.1-0.8,0.1-1.6,0.1c0-0.2-0.1-0.5-0.2-0.7c0.6,0,1.1,0,1.2,0
			c0.2,0,0.2-0.1,0.2-0.2v-3.2l-1.5,0.4l-0.2-0.8c0.5-0.1,1.1-0.3,1.7-0.5v-2.7H122v-0.7h1.6v-2.4h0.8v2.4h1.3v0.7h-1.3v2.5l1.4-0.4
			l0.1,0.7L124.4,41.2z M132.2,39.4c-0.5,1.6-1.4,2.9-2.5,3.9c0.9,0.7,1.9,1.3,3.2,1.6c-0.2,0.2-0.4,0.5-0.5,0.7
			c-1.3-0.4-2.3-1-3.2-1.8c-1.1,0.8-2.2,1.4-3.5,1.8c-0.1-0.2-0.3-0.6-0.4-0.7c1.2-0.3,2.3-0.9,3.3-1.6c-0.9-0.9-1.5-2.1-2-3.4h-0.4
			v-0.7h2.6v-1.9h-2.9v-0.7h2.9v-1.9h0.8v1.9h2.9v0.7h-2.9v1.9h2l0.1,0L132.2,39.4z M127.3,40c0.4,1.1,1,2.1,1.8,2.9
			c0.9-0.8,1.6-1.7,2-2.9H127.3z"/>
	</g>
	<g class="st4">
		<path d="M77.7,54.8h0.8v5.6c0,1.6-0.4,4.1-3.3,5.4c-0.1-0.2-0.4-0.4-0.6-0.6c1.5-0.6,2.3-1.7,2.7-2.7c-1.1,0.2-2.2,0.4-3,0.6
			l-0.2-0.8c0.9-0.1,2.1-0.3,3.4-0.6c0.1-0.5,0.1-0.9,0.1-1.3V60h-3.1v-0.7h3.1v-1.9h-3.3v-0.7h3.3V54.8z M84.8,62.7h-3.7v2.9h-0.8
			V54.8h0.8v1.8h3.5v0.8h-3.5v1.9h3.2V60h-3.2v2h3.7V62.7z"/>
		<path d="M93.2,64.8c0.7,0,0.8-0.4,0.9-2.3c0.2,0.2,0.6,0.3,0.8,0.3c-0.1,2.1-0.4,2.8-1.7,2.8h-2.5c-1.2,0-1.6-0.3-1.6-1.5v-0.8
			c-0.9,0.6-1.8,1.1-2.8,1.6c-0.1-0.2-0.3-0.5-0.5-0.6c1.2-0.5,2.3-1.2,3.3-2v-4.7H90v4c2.1-1.8,3.8-4,5-6.3l0.8,0.3
			c-1.4,2.6-3.3,5-5.7,6.9v1.4c0,0.6,0.1,0.7,0.8,0.7H93.2z M88,58.6c-0.3,1.3-0.7,3-1.4,4.1l-0.7-0.3c0.7-1,1.2-2.7,1.4-4L88,58.6z
			 M92.2,57.7c-0.7-0.6-2-1.6-3-2.3l0.5-0.6c1,0.7,2.4,1.7,3,2.2L92.2,57.7z M95,58.7c0.8,1.2,1.7,2.8,2,3.8L96.2,63
			c-0.3-1.1-1.1-2.7-1.9-3.9L95,58.7z"/>
		<path d="M103.7,61.2c-0.1,0.3-0.2,0.6-0.3,0.9h4.5v2.8c0,0.4-0.1,0.6-0.4,0.7c-0.3,0.1-0.7,0.1-1.4,0.1c0-0.2-0.2-0.5-0.3-0.7
			c0.5,0,0.9,0,1,0c0.1,0,0.2,0,0.2-0.2v-2.1h-2v2.8h-0.7v-2.8h-1.9v2.8h-0.7v-2.8h-1.9v2.9h-0.8v-3.6h3.5c0.1-0.3,0.2-0.6,0.3-0.9
			h-4.7v-0.7h10.4v0.7H103.7z M99.1,59.4h-0.8v-2.6h4.6v-0.9h-4.1v-0.6h9v0.6h-4.1v0.9h4.7v2.6h-0.8v-1.9h-3.9v2.7H103v-2.7h-3.8
			V59.4z M99.4,59.6c0.7-0.1,1.8-0.2,2.8-0.4l0,0.5c-0.9,0.2-1.8,0.4-2.6,0.5L99.4,59.6z M99.9,57.7c0.8,0.1,1.8,0.4,2.4,0.7
			l-0.2,0.5c-0.5-0.3-1.6-0.6-2.4-0.7L99.9,57.7z M107.1,60.2c-0.6-0.2-1.9-0.5-2.8-0.6l0.2-0.5c0.9,0.1,2.1,0.4,2.8,0.6L107.1,60.2
			z M107.1,58.1c-0.7,0.3-1.7,0.6-2.4,0.7l-0.3-0.4c0.7-0.2,1.7-0.5,2.3-0.8L107.1,58.1z"/>
		<path d="M112.1,60c-0.5-0.3-1.5-0.9-2.2-1.3l0.4-0.6c0.7,0.4,1.7,0.9,2.2,1.2L112.1,60z M110.3,65c0.6-0.9,1.6-2.5,2.3-3.9
			l0.6,0.5c-0.6,1.3-1.5,2.8-2.2,3.9L110.3,65z M111,54.9c0.7,0.4,1.7,1,2.2,1.3l-0.5,0.6c-0.5-0.4-1.5-1-2.2-1.4L111,54.9z
			 M120.1,64.6c0,0.5-0.1,0.7-0.4,0.9c-0.3,0.1-0.9,0.1-1.8,0.1c0-0.2-0.1-0.5-0.3-0.8c0.7,0,1.3,0,1.5,0c0.2,0,0.2-0.1,0.2-0.2
			v-2.4c-1.5,0.4-3,0.8-4.2,1l-0.3-0.7c1.1-0.2,2.8-0.6,4.4-1v-2.7h-4.6v2.5c0,1.3-0.1,3.1-0.8,4.3c-0.1-0.1-0.4-0.4-0.6-0.5
			c0.6-1.1,0.7-2.6,0.7-3.8v-3.2h2.7v-3.4h0.8v3.4h2.6V64.6z M114.9,57.7c-0.2-0.6-0.7-1.6-1.2-2.3l0.7-0.3c0.5,0.7,1.1,1.6,1.3,2.2
			L114.9,57.7z M115.4,59.7c1.1,0.2,2.5,0.6,3.2,1l-0.3,0.6c-0.7-0.4-2.1-0.9-3.2-1.1L115.4,59.7z M120.5,55.4
			c-0.4,0.8-0.9,1.7-1.4,2.3l-0.7-0.3c0.4-0.6,1-1.6,1.3-2.3L120.5,55.4z"/>
		<path d="M126.4,64.3c-1,0.5-2.5,1.1-3.7,1.4c-0.1-0.2-0.4-0.5-0.6-0.6c1.2-0.3,2.7-0.7,3.5-1.1L126.4,64.3z M129.1,63.9
			c1.3,0.4,2.7,0.8,3.5,1.2l-0.6,0.5c-0.8-0.4-2.2-0.9-3.6-1.3l0.4-0.4h-5.3v-3.8c-0.3,0.1-0.7,0.2-1.1,0.3
			c-0.1-0.2-0.2-0.5-0.4-0.6c1.5-0.3,2.4-0.7,2.9-1.2H123c0.1-0.5,0.2-1.2,0.3-1.8h2.4V56h-3v-0.6h3v-0.7h0.7v0.7h1.9v-0.7h0.8v0.7
			h2.7v1.8h-2.7V58h3.4c0,0,0,0.2,0,0.3c-0.1,0.6-0.2,1-0.3,1.1c-0.1,0.1-0.3,0.2-0.6,0.2h-0.3v4.3H129.1z M123.9,57.2
			c0,0.3-0.1,0.5-0.1,0.8h1.7c0.1-0.2,0.2-0.5,0.2-0.8H123.9z M130.5,59.9h-6.1v0.8h6.1V59.9z M130.5,61.3h-6.1V62h6.1V61.3z
			 M124.4,63.4h6.1v-0.8h-6.1V63.4z M126,58.5c-0.2,0.3-0.5,0.6-0.9,0.9h5.5c0-0.1-0.1-0.3-0.1-0.4c0.4,0,0.7,0,0.9,0
			c0.1,0,0.2,0,0.3-0.1s0.1-0.2,0.1-0.5h-2.6v0.8h-0.8v-0.8H126z M128.4,57.2h-2c0,0.3-0.1,0.5-0.1,0.8h2.1V57.2z M126.4,56.7h1.9
			V56h-1.9V56.7z M129.1,56v0.7h2V56H129.1z"/>
	</g>
	<g class="st4">
		<path d="M93.2,84.8c0.7,0,0.8-0.4,0.9-2.3c0.2,0.2,0.6,0.3,0.8,0.3c-0.1,2.1-0.4,2.8-1.7,2.8h-2.5c-1.2,0-1.6-0.3-1.6-1.5v-0.8
			c-0.9,0.6-1.8,1.1-2.8,1.6c-0.1-0.2-0.3-0.5-0.5-0.6c1.2-0.5,2.3-1.2,3.3-2v-4.7H90v4c2.1-1.8,3.8-4,5-6.3l0.8,0.3
			c-1.4,2.6-3.3,5-5.7,6.9v1.4c0,0.6,0.1,0.7,0.8,0.7H93.2z M88,78.6c-0.3,1.3-0.7,3-1.4,4.1l-0.7-0.3c0.7-1,1.2-2.7,1.4-4L88,78.6z
			 M92.2,77.7c-0.7-0.6-2-1.6-3-2.3l0.5-0.6c1,0.7,2.4,1.7,3,2.2L92.2,77.7z M95,78.7c0.8,1.2,1.7,2.8,2,3.8L96.2,83
			c-0.3-1.1-1.1-2.7-1.9-3.9L95,78.7z"/>
		<path d="M102.2,81.9c-0.8,1.4-2.2,2.7-3.7,3.5c-0.1-0.2-0.4-0.5-0.6-0.6c1.4-0.7,2.8-1.9,3.6-3.1L102.2,81.9z M101.7,75.3
			c-0.8,1-2.1,1.9-3.2,2.5c-0.1-0.2-0.4-0.4-0.6-0.6c1.1-0.5,2.3-1.4,3-2.3L101.7,75.3z M101.9,78.6c-0.8,1.1-2.1,2.1-3.2,2.8
			c-0.1-0.2-0.4-0.5-0.6-0.6c1.1-0.6,2.4-1.5,3.1-2.5L101.9,78.6z M104.7,84.1c-0.8,0.6-2,1.2-3,1.6c-0.1-0.2-0.3-0.4-0.5-0.6
			c1-0.3,2.3-0.9,2.8-1.4L104.7,84.1z M104.7,77.2c0.1-0.4,0.2-0.8,0.3-1.2h-2.8v-0.7h6.7V76h-2.9c-0.1,0.4-0.3,0.8-0.4,1.2h2.9v6.2
			h-5.7v-6.2H104.7z M107.6,77.8h-4.2V79h4.2V77.8z M107.6,79.7h-4.2v1.2h4.2V79.7z M107.6,81.5h-4.2v1.2h4.2V81.5z M106.6,83.7
			c0.8,0.4,1.9,1,2.4,1.5l-0.6,0.5c-0.5-0.4-1.6-1.1-2.4-1.5L106.6,83.7z"/>
		<path d="M112.1,80c-0.5-0.3-1.5-0.9-2.2-1.3l0.4-0.6c0.7,0.4,1.7,0.9,2.2,1.2L112.1,80z M110.3,85c0.6-0.9,1.6-2.5,2.3-3.9
			l0.6,0.5c-0.6,1.3-1.5,2.8-2.2,3.9L110.3,85z M111,74.9c0.7,0.4,1.7,1,2.2,1.3l-0.5,0.6c-0.5-0.4-1.5-1-2.2-1.4L111,74.9z
			 M120.1,84.6c0,0.5-0.1,0.7-0.4,0.9c-0.3,0.1-0.9,0.1-1.8,0.1c0-0.2-0.1-0.5-0.3-0.8c0.7,0,1.3,0,1.5,0c0.2,0,0.2-0.1,0.2-0.2
			v-2.4c-1.5,0.4-3,0.8-4.2,1l-0.3-0.7c1.1-0.2,2.8-0.6,4.4-1v-2.7h-4.6v2.5c0,1.3-0.1,3.1-0.8,4.3c-0.1-0.1-0.4-0.4-0.6-0.5
			c0.6-1.1,0.7-2.6,0.7-3.8v-3.2h2.7v-3.4h0.8v3.4h2.6V84.6z M114.9,77.7c-0.2-0.6-0.7-1.6-1.2-2.3l0.7-0.3c0.5,0.7,1.1,1.6,1.3,2.2
			L114.9,77.7z M115.4,79.7c1.1,0.2,2.5,0.6,3.2,1l-0.3,0.6c-0.7-0.4-2.1-0.9-3.2-1.1L115.4,79.7z M120.5,75.4
			c-0.4,0.8-0.9,1.7-1.4,2.3l-0.7-0.3c0.4-0.6,1-1.6,1.3-2.3L120.5,75.4z"/>
		<path d="M126.4,84.3c-1,0.5-2.5,1.1-3.7,1.4c-0.1-0.2-0.4-0.5-0.6-0.6c1.2-0.3,2.7-0.7,3.5-1.1L126.4,84.3z M129.1,83.9
			c1.3,0.4,2.7,0.8,3.5,1.2l-0.6,0.5c-0.8-0.4-2.2-0.9-3.6-1.3l0.4-0.4h-5.3v-3.8c-0.3,0.1-0.7,0.2-1.1,0.3
			c-0.1-0.2-0.2-0.5-0.4-0.6c1.5-0.3,2.4-0.7,2.9-1.2H123c0.1-0.5,0.2-1.2,0.3-1.8h2.4V76h-3v-0.6h3v-0.7h0.7v0.7h1.9v-0.7h0.8v0.7
			h2.7v1.8h-2.7V78h3.4c0,0,0,0.2,0,0.3c-0.1,0.6-0.2,1-0.3,1.1c-0.1,0.1-0.3,0.2-0.6,0.2h-0.3v4.3H129.1z M123.9,77.2
			c0,0.3-0.1,0.5-0.1,0.8h1.7c0.1-0.2,0.2-0.5,0.2-0.8H123.9z M130.5,79.9h-6.1v0.8h6.1V79.9z M130.5,81.3h-6.1V82h6.1V81.3z
			 M124.4,83.4h6.1v-0.8h-6.1V83.4z M126,78.5c-0.2,0.3-0.5,0.6-0.9,0.9h5.5c0-0.1-0.1-0.3-0.1-0.4c0.4,0,0.7,0,0.9,0
			c0.1,0,0.2,0,0.3-0.1s0.1-0.2,0.1-0.5h-2.6v0.8h-0.8v-0.8H126z M128.4,77.2h-2c0,0.3-0.1,0.5-0.1,0.8h2.1V77.2z M126.4,76.7h1.9
			V76h-1.9V76.7z M129.1,76v0.7h2V76H129.1z"/>
	</g>
	<g class="st4">
		<path d="M108.7,96.2h-8.8v2.6c0,1.9-0.2,4.7-1.3,6.6c-0.1-0.1-0.5-0.3-0.7-0.4c1.1-1.8,1.2-4.4,1.2-6.2v-3.4h9.6V96.2z
			 M102.6,102.6c-0.6,0.9-1.5,1.9-2.1,2.5c-0.2-0.1-0.5-0.3-0.7-0.5c0.7-0.6,1.5-1.5,2.1-2.3L102.6,102.6z M104.7,101.7v3
			c0,0.4-0.1,0.6-0.4,0.8c-0.3,0.1-0.9,0.1-1.9,0.1c0-0.2-0.1-0.5-0.3-0.7c0.7,0,1.4,0,1.5,0c0.2,0,0.2-0.1,0.2-0.2v-3h-3v-4.3h2.4
			c0.2-0.4,0.4-0.8,0.5-1.2l0.9,0.1c-0.2,0.3-0.4,0.7-0.5,1h3.5v4.3H104.7z M101.7,99.3h5.2v-1.2h-5.2V99.3z M101.7,101.1h5.2v-1.2
			h-5.2V101.1z M106.4,102.4c0.7,0.7,1.7,1.8,2.2,2.4l-0.7,0.4c-0.5-0.6-1.4-1.7-2.2-2.5L106.4,102.4z"/>
		<path d="M114.4,100.8c-0.5,0.2-1,0.3-1.5,0.5v4.4h-0.7v-4.1c-0.7,0.2-1.4,0.4-2,0.6l-0.2-0.8c0.6-0.2,1.4-0.4,2.2-0.6V98H111
			c-0.2,0.7-0.3,1.3-0.6,1.8c-0.1-0.1-0.4-0.3-0.6-0.4c0.5-1,0.7-2.5,0.9-4l0.7,0.1c-0.1,0.6-0.2,1.1-0.3,1.7h1v-2.5h0.7v2.5h1.3V98
			h-1.3v2.5l1.5-0.4L114.4,100.8z M120.7,96.8c0,0,0,0.3,0,0.4c-0.3,5.5-0.5,7.3-1,7.9c-0.2,0.3-0.5,0.4-0.8,0.4c-0.3,0-0.8,0-1.4,0
			c0-0.2-0.1-0.6-0.2-0.8c0.6,0,1.1,0.1,1.3,0.1c0.2,0,0.3,0,0.5-0.2c0.4-0.4,0.7-2.2,0.9-7.1h-0.7c-0.6,3.2-1.9,6.4-3.9,8
			c-0.2-0.2-0.4-0.4-0.7-0.5c2-1.4,3.3-4.4,3.9-7.5h-1.1c-0.5,2.1-1.7,4.3-3,5.5c-0.2-0.2-0.4-0.3-0.6-0.5c1.3-1,2.4-3.1,2.9-5h-1.1
			c-0.4,0.9-0.9,1.7-1.4,2.3c-0.1-0.1-0.4-0.3-0.6-0.5c1-1.1,1.7-2.8,2.1-4.6l0.7,0.1c-0.2,0.7-0.3,1.3-0.6,1.9H120.7z"/>
		<path d="M123.6,100.4c-0.3,1.3-0.8,3-1.4,3.8c-0.1-0.2-0.3-0.6-0.4-0.9c0.5-0.7,1-2.1,1.2-3.2L123.6,100.4z M124.7,99.5v6.2H124
			v-6.2H122v-0.7h1.9v-4h0.7v4h2v0.7H124.7z M122.8,98.3c-0.1-0.7-0.3-1.8-0.7-2.6l0.6-0.1c0.3,0.8,0.6,1.9,0.7,2.6L122.8,98.3z
			 M125.3,100.2c0.2,0.4,1.1,2,1.3,2.4l-0.6,0.6c-0.2-0.6-0.9-2.2-1.1-2.7L125.3,100.2z M126.7,95.7c-0.3,0.9-0.7,2-1,2.7l-0.5-0.2
			c0.3-0.7,0.6-1.9,0.8-2.7L126.7,95.7z M131.3,102.3v3.4h-0.8v-3.2l-3.8,0.7l-0.1-0.7l3.9-0.7v-6.9h0.8v6.8l1.5-0.3l0.1,0.7
			L131.3,102.3z M129,100.6c-0.4-0.4-1.3-1-2-1.4l0.4-0.6c0.7,0.4,1.6,0.9,2,1.3L129,100.6z M129.5,97.7c-0.4-0.5-1.2-1.1-1.9-1.5
			l0.4-0.5c0.7,0.4,1.5,1,1.9,1.5L129.5,97.7z"/>
	</g>
	<g class="st4">
		<path d="M114.9,124.8c0,0.4-0.1,0.6-0.4,0.7c-0.3,0.1-0.8,0.1-1.6,0.1c0-0.2-0.1-0.5-0.3-0.7c0.6,0,1.1,0,1.3,0
			c0.2,0,0.2,0,0.2-0.2v-2c-0.8,0.5-1.7,1-2.4,1.3l-0.3-0.7c0.7-0.3,1.7-0.8,2.7-1.3v-2.5h-2.6v2.3c0,1.2-0.1,2.7-1,3.7
			c-0.1-0.2-0.4-0.4-0.6-0.6c0.7-0.9,0.8-2.2,0.8-3.2v-3h4.1V124.8z M114.1,115.6c0.6,0.8,1.3,1.9,1.6,2.6l-0.7,0.3
			c-0.1-0.2-0.2-0.5-0.4-0.8c-3.3,0.3-3.7,0.3-4,0.4c0-0.2-0.2-0.6-0.3-0.8c0.2,0,0.4-0.2,0.6-0.5c0.2-0.2,1-1.2,1.5-2.2l0.8,0.3
			c-0.5,0.8-1.1,1.6-1.7,2.3l2.6-0.2c-0.3-0.4-0.5-0.9-0.8-1.2L114.1,115.6z M112.1,120.4c0.7,0.4,1.5,0.9,2,1.2l-0.4,0.5
			c-0.4-0.4-1.3-0.9-2-1.3L112.1,120.4z M117.3,119.9c-1,0-1.3-0.3-1.3-1.3v-3.8h0.8v1.7h3.3v0.7h-3.3v1.5c0,0.4,0.1,0.6,0.5,0.6
			h2.3c0.3,0,0.8,0,1-0.1c0,0.2,0,0.5,0.1,0.7c-0.2,0-0.6,0.1-1,0.1H117.3z M119.6,124.8c0.5,0,0.6-0.2,0.7-1.5
			c0.2,0.1,0.5,0.3,0.7,0.3c-0.1,1.6-0.3,2-1.3,2h-2.2c-1.1,0-1.4-0.2-1.4-1.2v-4.1h0.8v1.5h3.4v0.7h-3.4v1.9c0,0.4,0.1,0.5,0.7,0.5
			H119.6z"/>
		<path d="M123.9,119.9c-0.5-0.3-1.4-0.9-2-1.3l0.4-0.6c0.7,0.3,1.6,0.9,2.1,1.2L123.9,119.9z M124.6,121.6
			c-0.5,1.3-1.2,2.7-1.8,3.8l-0.7-0.4c0.5-0.9,1.3-2.5,1.8-3.9L124.6,121.6z M124.5,116.8c-0.5-0.4-1.3-1-2-1.4l0.5-0.5
			c0.7,0.4,1.6,0.9,2,1.3L124.5,116.8z M126.3,118.6c0,2.1-0.2,5-1.6,7c-0.1-0.1-0.5-0.3-0.7-0.4c1.4-1.9,1.5-4.6,1.5-6.6v-3.3h7.3
			v0.7h-6.5V118.6z M128.2,122.5c-0.4,0.9-1,1.8-1.5,2.5c-0.1-0.1-0.5-0.3-0.6-0.4c0.6-0.6,1.1-1.5,1.5-2.2L128.2,122.5z M130,121.6
			v3.2c0,0.4-0.1,0.6-0.4,0.7c-0.3,0.1-0.8,0.1-1.6,0.1c0-0.2-0.1-0.5-0.2-0.7c0.6,0,1.1,0,1.3,0c0.2,0,0.2-0.1,0.2-0.2v-3.2H127
			v-4.1h1.8c0.1-0.4,0.3-0.9,0.3-1.2l0.9,0.2c-0.2,0.4-0.3,0.7-0.5,1.1h2.7v4.1H130z M127.7,119.2h3.8v-1.1h-3.8V119.2z M127.7,121
			h3.8v-1.1h-3.8V121z M131.5,122.2c0.5,0.7,1.1,1.7,1.4,2.3l-0.7,0.3c-0.3-0.6-0.9-1.6-1.4-2.4L131.5,122.2z"/>
	</g>
	<g class="st4">
		<path d="M112.9,140.6c-0.2,1-0.4,1.9-0.7,2.6c0.8,1.4,2.3,1.5,4.6,1.6c1.3,0,3,0,4.2-0.2c-0.1,0.2-0.2,0.5-0.3,0.8
			c-1.1,0.1-2.6,0.1-3.9,0.1c-2.5,0-4-0.2-5-1.6c-0.4,0.8-0.9,1.4-1.5,1.8c-0.1-0.2-0.4-0.4-0.5-0.6c1.1-0.8,1.9-2.1,2.3-4h-1.2
			c-0.3,0-0.6,0.1-0.7,0.2c0-0.2-0.2-0.6-0.3-0.7c0.2,0,0.4-0.1,0.6-0.3c0.3-0.3,1-1.3,1.5-2H110v-0.7h2.4l0.1-0.1l0.5,0.3
			c-0.5,0.7-1.4,2-2,2.8h1.3l0.1,0L112.9,140.6z M111.9,137c-0.3-0.5-0.9-1.3-1.4-1.9l0.6-0.3c0.5,0.6,1.1,1.4,1.4,1.8L111.9,137z
			 M113.9,137.3h-0.7v-2.1h7.3v2.1h-0.8v-1.5h-5.7V137.3z M116.4,144.2v-1h-3.2v-0.6h3.2v-0.8h-2.6v-3.4h2.6v-0.8h-2.3V137h2.3v-0.6
			h0.8v0.6h2.4v0.6h-2.4v0.8h2.7v3.4h-2.7v0.8h3.4v0.6h-3.4v1H116.4z M114.5,139.8h1.9v-0.9h-1.9V139.8z M116.4,141.2v-0.9h-1.9v0.9
			H116.4z M117.2,138.9v0.9h2v-0.9H117.2z M119.1,140.3h-2v0.9h2V140.3z"/>
		<path d="M124.6,143.6v2.1h-0.7v-2.1H122v-0.7h1.9v-1h-1.6v-4.3h1.6v-0.9h-1.8V136h1.8v-1.3h0.7v1.3h1.8v0.7h-1.8v0.9h1.5v4.3h-1.5
			v1h1.8v0.7H124.6z M123,139.5h1v-1.2h-1V139.5z M123,141.3h1v-1.2h-1V141.3z M125.5,138.3h-1v1.2h1V138.3z M125.5,140.1h-1v1.2h1
			V140.1z M129.6,144.8c0,0.3-0.1,0.5-0.3,0.6c-0.2,0.1-0.6,0.1-1.2,0.1c0-0.2-0.1-0.4-0.2-0.6c0.4,0,0.8,0,0.9,0s0.1,0,0.1-0.1
			v-1.6h-1.5c-0.1,0.8-0.3,1.7-0.7,2.4c-0.1-0.1-0.4-0.3-0.5-0.4c0.6-1.1,0.7-2.4,0.7-3.5v-2.5h2.7V144.8z M130.2,134.9
			c-0.1,0.1-0.1,0.2-0.2,0.4c0.8,1.1,1.8,1.8,2.9,2.5c-0.2,0.2-0.4,0.4-0.5,0.6c-1.1-0.7-2-1.4-2.8-2.5c-0.7,1-1.7,1.9-2.7,2.5
			c-0.1-0.2-0.3-0.4-0.5-0.6c1.3-0.7,2.5-1.9,3.2-3.2L130.2,134.9z M129,142.6v-1.1h-1.4v0.2c0,0.3,0,0.6,0,0.9H129z M127.6,139.8
			v1.1h1.4v-1.1H127.6z M131.3,138.3h-3.2v-0.6h3.2V138.3z M131,143.7h-0.6v-4.3h0.6V143.7z M131.8,139h0.6v5.7
			c0,0.4-0.1,0.6-0.3,0.7c-0.3,0.1-0.7,0.1-1.4,0.1c0-0.2-0.1-0.4-0.2-0.6c0.6,0,1,0,1.2,0s0.2,0,0.2-0.2V139z"/>
	</g>
	<g class="st4">
		<path d="M24.7,160v0.7h-5c0,0.3-0.1,0.7-0.2,1h5v0.7h-5.2c-0.6,1.7-1.8,2.7-5,3.2c-0.1-0.2-0.3-0.5-0.4-0.7c2.8-0.4,4-1.2,4.5-2.5
			h-4.1v-0.7h4.3c0.1-0.3,0.1-0.6,0.2-1h-4.8V160H19v-1.1h-3.8v-0.7H19v-1h-4.4v-0.7h2.6c-0.2-0.4-0.6-1-1-1.5l0.7-0.3
			c0.4,0.5,0.9,1.1,1.1,1.5l-0.4,0.2h3.2c0.4-0.5,0.8-1.2,1.1-1.7l0.8,0.3c-0.3,0.5-0.7,1-1,1.5h2.6v0.7h-4.4v1h3.9v0.7h-3.9v1.1
			H24.7z M19.8,162.6c1.7,0.6,3.8,1.7,4.9,2.5l-0.4,0.7c-1.1-0.8-3.2-1.9-4.9-2.6L19.8,162.6z"/>
		<path d="M36.4,155.3v10.4h-0.8v-0.6h-8.4v0.6h-0.8v-10.4H36.4z M35.6,164.4V156h-8.4v8.4H35.6z M31.4,162.5
			c-1.3,0.3-2.6,0.5-3.5,0.7l-0.1-0.6c0.9-0.2,2.3-0.4,3.6-0.7L31.4,162.5z M34.4,159c-0.3,1.1-0.8,2.1-1.3,3
			c0.3,0.7,0.6,1.1,1.1,1.2c0.2,0,0.3-0.5,0.4-1.3c0.1,0.1,0.4,0.3,0.5,0.3c-0.2,1.3-0.5,1.8-1.1,1.5c-0.6-0.1-1-0.6-1.3-1.2
			c-0.5,0.6-1,1-1.6,1.4c-0.1-0.1-0.3-0.4-0.5-0.5c0.7-0.4,1.3-1,1.8-1.6c-0.3-1-0.5-2.2-0.7-3.6h-3.7v-0.6h3.7
			c0-0.4-0.1-0.9-0.1-1.3h0.7c0,0.4,0,0.9,0.1,1.3h2.7v0.6h-2.6c0.1,1.1,0.3,2.1,0.5,2.9c0.4-0.7,0.7-1.5,0.9-2.3L34.4,159z
			 M31,159.1v2.3h-2.7v-2.3H31z M30.4,159.6h-1.5v1.3h1.5V159.6z M34.2,157.5c-0.3-0.3-0.8-0.6-1.3-0.9l0.4-0.4
			c0.5,0.2,1,0.5,1.3,0.8L34.2,157.5z"/>
		<path d="M41.7,154.8h0.8v5.6c0,1.6-0.4,4.1-3.3,5.4c-0.1-0.2-0.4-0.4-0.6-0.6c1.5-0.6,2.3-1.7,2.7-2.7c-1.1,0.2-2.2,0.4-3,0.6
			l-0.2-0.8c0.9-0.1,2.1-0.3,3.4-0.6c0.1-0.5,0.1-0.9,0.1-1.3V160h-3.1v-0.7h3.1v-1.9h-3.3v-0.7h3.3V154.8z M48.8,162.7h-3.7v2.9
			h-0.8v-10.9h0.8v1.8h3.5v0.8h-3.5v1.9h3.2v0.7h-3.2v2h3.7V162.7z"/>
		<path d="M56.1,155c-0.1,0.1-0.2,0.3-0.3,0.4c1.2,1.3,3.3,2.6,5.1,3.2c-0.2,0.2-0.4,0.5-0.6,0.7c-1.7-0.6-3.7-2-5-3.3
			c-0.8,0.9-1.8,1.8-3,2.4h6v0.7h-2.7v1.7H60v0.7h-4.3v3h4.8v0.7H50.3v-0.7h4.7v-3h-4.2v-0.7h4.2v-1.7h-2.6v-0.7
			c-0.6,0.4-1.3,0.7-2,0.9c-0.1-0.2-0.3-0.5-0.5-0.7c2.2-0.7,4.4-2.2,5.6-4L56.1,155z M52.5,161.8c0.5,0.7,1,1.6,1.2,2.2l-0.7,0.3
			c-0.2-0.6-0.6-1.5-1.1-2.2L52.5,161.8z M56.9,164.1c0.4-0.6,1-1.6,1.3-2.2l0.8,0.3c-0.5,0.8-1,1.6-1.4,2.2L56.9,164.1z"/>
		<path d="M62.1,155.3h5.6v0.7h-5.6V155.3z M67.5,164.7c0,0.4-0.1,0.6-0.3,0.7c-0.2,0.1-0.6,0.1-1.3,0.1c0-0.2-0.1-0.5-0.2-0.6
			c0.5,0,0.9,0,1,0c0.1,0,0.2,0,0.2-0.2v-4.3h-3.9v5.2h-0.6v-5.8h5.2V164.7z M67.1,159.1h-4.4v-2.4h4.4V159.1z M65.2,163v2.4h-0.6
			V163h-1.3v-0.6H65c0.3-0.5,0.6-1.2,0.8-1.7l0.5,0.2c-0.3,0.5-0.5,1.1-0.8,1.5h0.9v0.6H65.2z M66.4,157.3h-3v1.2h3V157.3z
			 M64,160.7c0.3,0.5,0.6,1.1,0.7,1.4l-0.5,0.2c-0.1-0.4-0.4-1-0.7-1.5L64,160.7z M72.3,165.7c0-0.3-0.1-0.6-0.2-1
			c-1.4,0.3-2.9,0.5-4,0.7l-0.2-0.7c0.6-0.1,1.3-0.2,2-0.3v-2.8h-1.8v-4.4h1.8v-2.3h0.7v2.3h1.8v4.4h-1.8v2.7l1.2-0.2
			c-0.2-0.5-0.4-1.1-0.6-1.6l0.6-0.1c0.5,1,0.9,2.4,1,3.2L72.3,165.7z M68.7,160.9H70v-3h-1.2V160.9z M71.8,157.8h-1.2v3h1.2V157.8z
			"/>
		<path d="M76.4,161.1v3.5c0,0.5-0.1,0.7-0.4,0.8c-0.3,0.1-0.8,0.2-1.6,0.2c0-0.2-0.1-0.5-0.2-0.7c0.6,0,1.1,0,1.2,0
			c0.2,0,0.2-0.1,0.2-0.2v-3.2c-0.6,0.2-1.1,0.3-1.6,0.5l-0.2-0.8c0.5-0.1,1.1-0.3,1.8-0.5v-2.7H74v-0.7h1.7v-2.4h0.8v2.4H78v0.7
			h-1.5v2.5c0.4-0.1,0.8-0.2,1.2-0.3l0.1,0.7L76.4,161.1z M84,160.2c-0.5,1.4-1.3,2.6-2.4,3.4c0.9,0.6,2,1.1,3.3,1.3
			c-0.2,0.2-0.4,0.5-0.5,0.7c-1.3-0.3-2.4-0.8-3.4-1.5c-1.1,0.7-2.3,1.2-3.6,1.5c-0.1-0.2-0.3-0.6-0.4-0.7c1.2-0.3,2.3-0.7,3.3-1.3
			c-0.9-0.8-1.5-1.7-2-2.8l0.1,0h-0.4V160h5.4l0.2,0L84,160.2z M79.8,156.5c0,1.1-0.3,2.3-1.8,3.2c-0.1-0.2-0.4-0.5-0.5-0.6
			c1.3-0.8,1.5-1.8,1.5-2.6v-1.3h3.7v2.8c0,0.3,0,0.4,0.2,0.4h1c0.2,0,0.4,0,0.6,0c0,0.2,0,0.5,0.1,0.7c-0.1,0-0.4,0.1-0.6,0.1h-1
			c-0.8,0-0.9-0.3-0.9-1.2v-2h-2.2V156.5z M79,160.8c0.4,0.9,1.1,1.7,1.9,2.4c0.8-0.6,1.5-1.4,2-2.4H79z"/>
		<path d="M89.4,158H86v-0.6h3.4V158z M90.3,164.2c-1,0.6-2.5,1.1-3.7,1.4c-0.1-0.2-0.4-0.5-0.6-0.6c1.2-0.3,2.7-0.7,3.5-1.2
			L90.3,164.2z M89.1,156.1h-2.8v-0.6h2.8V156.1z M95.3,163.8h-7.7V159h7.7V163.8z M94.5,159.5h-6.2v0.9h6.2V159.5z M94.5,160.9
			h-6.2v0.9h6.2V160.9z M94.5,162.3h-6.2v0.9h6.2V162.3z M93.4,156.3c0,0.1,0,0.3,0,0.4c0.6,0.7,2,1.2,3.5,1.4
			c-0.2,0.2-0.4,0.5-0.5,0.6c-1.4-0.2-2.6-0.7-3.3-1.4c-0.4,0.6-1.3,1.2-3.5,1.5c-0.1-0.2-0.3-0.5-0.4-0.6c3.1-0.4,3.4-1.3,3.4-2
			v-0.1h-1.3c-0.3,0.5-0.6,0.9-0.9,1.2c-0.1-0.1-0.4-0.3-0.6-0.4c0.6-0.6,1.1-1.4,1.4-2.3l0.7,0.2c-0.1,0.2-0.2,0.5-0.3,0.7h4.1
			l0.1,0l0.5,0.2c-0.3,0.6-0.7,1.3-1,1.7l-0.6-0.2c0.2-0.3,0.4-0.6,0.6-1h-2V156.3z M93.1,163.9c1.3,0.4,2.7,0.9,3.5,1.3l-0.7,0.5
			c-0.8-0.4-2.1-0.9-3.4-1.3L93.1,163.9z"/>
		<path d="M98.1,158.4c0.2,0,0.4-0.3,0.7-0.7c0.3-0.3,1.1-1.7,1.6-3l0.8,0.3c-0.5,1.2-1.2,2.3-1.9,3.2l1.3-0.1
			c0.3-0.5,0.6-1.1,0.9-1.6l0.7,0.4c-0.8,1.4-1.8,2.8-2.7,3.9l2.2-0.3c-0.1-0.4-0.3-0.8-0.5-1.2l0.6-0.2c0.4,0.8,0.8,1.8,0.9,2.4
			l-0.6,0.3c0-0.2-0.1-0.5-0.2-0.7c-2.8,0.4-3.2,0.5-3.4,0.7c0-0.2-0.2-0.6-0.3-0.8c0.2-0.1,0.5-0.3,0.9-0.8c0.2-0.2,0.6-0.7,1-1.4
			c-1.3,0.2-1.6,0.2-1.8,0.3C98.3,159,98.2,158.6,98.1,158.4z M99.3,162.5c-0.1,1-0.4,2.1-0.6,2.9c-0.1-0.1-0.5-0.2-0.6-0.2
			c0.3-0.7,0.5-1.8,0.6-2.8L99.3,162.5z M100.5,162.3c0.1,0.8,0.3,1.7,0.3,2.4l-0.6,0.1c0-0.6-0.2-1.6-0.3-2.4L100.5,162.3z
			 M101.8,162c0.3,0.6,0.5,1.4,0.6,1.9l-0.6,0.2c-0.1-0.5-0.3-1.4-0.6-2L101.8,162z M108.5,158.9c-0.3,1.7-0.9,3.2-1.7,4.3
			c0.6,0.8,1.3,1.4,2.2,1.7c-0.2,0.1-0.4,0.5-0.6,0.7c-0.8-0.4-1.5-1-2.1-1.8c-0.7,0.8-1.4,1.4-2.2,1.8c-0.1-0.2-0.3-0.5-0.5-0.6
			c0.8-0.4,1.6-1.1,2.3-1.9c-0.6-1.1-1.1-2.3-1.4-3.7c-0.2,2.5-0.7,4.5-1.8,6.1c-0.1-0.1-0.5-0.4-0.7-0.5c1.6-2,1.9-5.1,1.9-9h-1.2
			v-0.8h4.3l0.1,0l0.6,0.1c-0.1,1-0.3,2.3-0.6,3.4h0.9l0.1,0L108.5,158.9z M104.5,156.1c0,0.9,0,1.8-0.1,2.7h1.7
			c0.2-0.8,0.3-1.9,0.5-2.7H104.5z M105.1,159.5c0.3,1.1,0.7,2.2,1.2,3c0.6-0.9,1-1.9,1.3-3H105.1z"/>
		<path d="M116.1,155c-0.1,0.1-0.2,0.3-0.3,0.4c1.5,1.8,3.3,2.8,5.2,3.7c-0.2,0.2-0.4,0.4-0.5,0.7c-1.8-0.9-3.5-2-5.1-3.8
			c-1.3,1.6-3.1,2.9-5,3.8c-0.1-0.2-0.3-0.5-0.5-0.6c2.2-0.9,4.4-2.6,5.5-4.4L116.1,155z M115.9,164.6h4.6v0.7h-10.2v-0.7h1.5v-4.5
			h0.8v4.5h2.4V158h0.8v2.8h3.5v0.7h-3.5V164.6z"/>
		<path d="M126.3,163.7c-0.9,0.6-2.5,1.2-3.7,1.5c-0.1-0.2-0.3-0.5-0.5-0.6c1.2-0.2,2.8-0.7,3.6-1.2L126.3,163.7z M132.6,162.1v0.7
			h-4.8v2.9H127v-2.9h-4.8v-0.7h4.8v-1h-3.6v-0.6h3.6v-0.9h-4.3V159h2.7c-0.1-0.4-0.4-0.8-0.6-1.2l0.6-0.2h-3.1v-0.7h2
			c-0.2-0.5-0.6-1.2-1-1.8l0.7-0.2c0.4,0.6,0.9,1.3,1.1,1.8l-0.6,0.2h1.5v-2.2h0.7v2.2h1.5v-2.2h0.8v2.2h1.5l-0.5-0.2
			c0.3-0.5,0.7-1.3,1-1.8l0.8,0.2c-0.3,0.6-0.7,1.3-1.1,1.8h1.9v0.7h-3.1l0.7,0.2c-0.3,0.4-0.6,0.9-0.9,1.2h2.8v0.6h-4.4v0.9h3.8
			v0.6h-3.8v1H132.6z M125.5,157.6c0.3,0.4,0.6,0.9,0.7,1.2l-0.5,0.1h3.3l-0.4-0.1c0.3-0.3,0.6-0.9,0.7-1.2H125.5z M129.1,163.4
			c1.2,0.4,2.7,0.9,3.6,1.3l-0.5,0.5c-0.8-0.4-2.4-1-3.5-1.4L129.1,163.4z"/>
	</g>
	<g class="st4">
		<path d="M89.1,180.6c-0.2,1.1-0.4,2-0.8,2.7c0.8,1.3,2.3,1.5,4.6,1.5c1.2,0,3-0.1,4.1-0.2c-0.1,0.2-0.2,0.5-0.3,0.8
			c-1.1,0.1-2.6,0.1-3.9,0.1c-2.4,0-3.9-0.2-4.9-1.6c-0.4,0.8-1,1.3-1.6,1.8c-0.1-0.2-0.4-0.5-0.5-0.6c1.2-0.7,2-2.1,2.4-4h-1.4
			c-0.3,0-0.6,0.1-0.7,0.2c0-0.2-0.2-0.6-0.3-0.7c0.2,0,0.4-0.1,0.6-0.3c0.3-0.3,1-1.3,1.6-2h-2v-0.7h2.5l0.1-0.1l0.5,0.3
			c-0.5,0.7-1.5,2-2.1,2.8h1.5l0.1,0L89.1,180.6z M88,177c-0.3-0.5-1-1.3-1.5-1.9l0.6-0.3c0.6,0.6,1.2,1.4,1.5,1.8L88,177z
			 M90.5,183.9h-0.7v-6.1h3.6c-0.8-0.4-1.6-0.8-2.4-1l0.5-0.5c0.5,0.2,1.1,0.4,1.7,0.7c0.6-0.3,1.3-0.6,1.8-1h-5.2v-0.6h5.9l0.2,0
			l0.5,0.4c-0.6,0.6-1.6,1.2-2.5,1.7c0.4,0.2,0.7,0.3,0.9,0.5h1.5v5.4c0,0.4-0.1,0.6-0.4,0.7c-0.3,0.1-0.8,0.1-1.6,0.1
			c0-0.2-0.1-0.5-0.2-0.6c0.6,0,1.1,0,1.3,0c0.2,0,0.2,0,0.2-0.2v-1.2h-2.3v2h-0.7v-2h-2.2V183.9z M90.5,178.4v1.1h2.2v-1.1H90.5z
			 M92.6,181.3v-1.2h-2.2v1.2H92.6z M95.6,178.4h-2.3v1.1h2.3V178.4z M95.6,181.3v-1.2h-2.3v1.2H95.6z"/>
		<path d="M102.3,177.4H98v-0.7h4.3V177.4z M101.9,184.9h-2.7v0.6h-0.6v-4h3.4V184.9z M98.5,179v-0.6h3.4v0.6H98.5z M98.5,179.9h3.4
			v0.6h-3.4V179.9z M99.1,182.2v2.1h2.1v-2.1H99.1z M100.2,176.6c-0.2-0.4-0.5-1.1-0.9-1.6l0.6-0.3c0.3,0.5,0.7,1.1,0.9,1.5
			L100.2,176.6z M107.6,175.4c-0.1,5-0.1,9,0.6,9.2c0.1,0,0.2-0.7,0.2-1.6c0.1,0.2,0.4,0.4,0.5,0.6c-0.1,1.7-0.5,2.1-1,1.8
			c-1.2-0.4-1.1-4.2-1.1-9.2h-2.1v3.6h1.7v0.8h-1.7v5.1H104v-5.1h-1.7v-0.8h1.7v-3.6h-1.5v-0.8H107.6z"/>
		<path d="M114.2,184.7c0,0.5-0.1,0.7-0.4,0.8c-0.3,0.1-0.8,0.1-1.6,0.1c0-0.2-0.1-0.6-0.2-0.8c0.6,0,1.1,0,1.2,0
			c0.2,0,0.2-0.1,0.2-0.2v-3.1h-2c-0.1,1.4-0.3,2.9-0.9,4.1c-0.1-0.1-0.5-0.3-0.6-0.4c0.8-1.7,0.9-4.1,0.9-5.8v-4.3h3.4V184.7z
			 M113.4,180.9v-2.1h-1.9v0.7c0,0.4,0,0.9,0,1.4H113.4z M111.5,175.9v2.1h1.9v-2.1H111.5z M120.6,179.4c-0.3,1.6-0.9,3-1.7,4
			c0.6,0.7,1.3,1.2,2.1,1.6c-0.2,0.1-0.4,0.4-0.5,0.6c-0.7-0.4-1.4-1-2-1.7c-0.6,0.6-1.2,1.2-1.9,1.6c-0.1-0.2-0.3-0.4-0.5-0.6
			c0.7-0.4,1.3-0.9,1.9-1.6c-0.7-1-1.2-2.2-1.6-3.4H116v5.7h-0.8v-10.4h5v2.3c0,0.4-0.1,0.6-0.4,0.8c-0.4,0.1-0.9,0.1-1.8,0.1
			c0-0.2-0.2-0.5-0.3-0.7c0.8,0,1.4,0,1.5,0c0.2,0,0.2-0.1,0.2-0.2V176H116v3.3h4l0.1,0L120.6,179.4z M117.1,180
			c0.3,1,0.8,2,1.4,2.8c0.5-0.8,1-1.8,1.3-2.8H117.1z"/>
		<path d="M131.8,176.7c-0.3,0.8-0.8,1.5-1.5,2.1c0.8,0.5,1.7,0.9,2.7,1.1c-0.2,0.2-0.4,0.5-0.5,0.7c-1-0.3-2-0.7-2.8-1.3
			c-0.8,0.6-1.7,1-2.6,1.3c-0.1-0.1-0.2-0.3-0.3-0.5c-0.2,0.7-0.5,1.4-0.7,1.8l-0.6-0.3c0.3-0.5,0.5-1.3,0.7-2h-1.3v5.1
			c0,0.4-0.1,0.6-0.4,0.8c-0.3,0.1-0.7,0.1-1.5,0.1c0-0.2-0.1-0.5-0.3-0.7c0.5,0,1,0,1.2,0s0.2,0,0.2-0.2v-4.1
			c-0.5,1.2-1.1,2.4-1.8,3.1c-0.1-0.2-0.3-0.5-0.4-0.7c0.8-0.7,1.5-2.1,2-3.3H122v-0.7h3.3c-0.6-0.6-1.7-1.3-2.7-1.7l0.5-0.5
			c0.4,0.2,0.8,0.4,1.2,0.6c0.5-0.4,1-0.8,1.4-1.3h-3.5v-0.7h4.1l0.1,0l0.5,0.3c-0.5,0.7-1.3,1.5-2,2c0.4,0.3,0.8,0.5,1,0.8
			l-0.4,0.5h0.9l0.1,0l0.5,0.2c-0.1,0.2-0.1,0.5-0.2,0.7c0.9-0.2,1.6-0.6,2.3-1c-0.5-0.5-1-1-1.3-1.5c-0.3,0.3-0.6,0.7-0.9,0.9
			c-0.2-0.1-0.5-0.4-0.7-0.5c0.9-0.7,1.8-1.8,2.3-2.9l0.8,0.2c-0.2,0.4-0.3,0.7-0.6,1.1h4.1v0.7H131.8z M132.5,181.4
			c0,0,0,0.2,0,0.3c-0.2,2.3-0.4,3.2-0.8,3.5c-0.2,0.2-0.4,0.3-0.7,0.3c-0.3,0-0.8,0-1.3,0c0-0.2-0.1-0.5-0.2-0.7
			c0.5,0.1,1,0.1,1.2,0.1c0.2,0,0.3,0,0.4-0.1c0.2-0.2,0.4-0.9,0.6-2.7h-2.1c-0.4,1.5-1.2,2.8-3.2,3.5c-0.1-0.2-0.3-0.5-0.5-0.6
			c1.7-0.6,2.5-1.7,2.8-2.9h-2v-0.7h2.1c0.1-0.4,0.1-0.8,0.2-1.2h0.8c0,0.4-0.1,0.8-0.2,1.2H132.5z M128.3,176.7
			c0.3,0.6,0.8,1.2,1.4,1.6c0.5-0.4,0.9-1,1.2-1.6H128.3z"/>
	</g>
	<g class="st4">
		<path d="M120.8,203.9v0.8h-10.7v-0.8h4.9v-7h-4.3v-0.8h9.5v0.8h-4.4v7H120.8z"/>
		<path d="M126.3,203.7c-0.9,0.6-2.5,1.2-3.7,1.5c-0.1-0.2-0.3-0.5-0.5-0.6c1.2-0.2,2.8-0.7,3.6-1.2L126.3,203.7z M132.6,202.1v0.7
			h-4.8v2.9H127v-2.9h-4.8v-0.7h4.8v-1h-3.6v-0.6h3.6v-0.9h-4.3V199h2.7c-0.1-0.4-0.4-0.8-0.6-1.2l0.6-0.2h-3.1v-0.7h2
			c-0.2-0.5-0.6-1.2-1-1.8l0.7-0.2c0.4,0.6,0.9,1.3,1.1,1.8l-0.6,0.2h1.5v-2.2h0.7v2.2h1.5v-2.2h0.8v2.2h1.5l-0.5-0.2
			c0.3-0.5,0.7-1.3,1-1.8l0.8,0.2c-0.3,0.6-0.7,1.3-1.1,1.8h1.9v0.7h-3.1l0.7,0.2c-0.3,0.4-0.6,0.9-0.9,1.2h2.8v0.6h-4.4v0.9h3.8
			v0.6h-3.8v1H132.6z M125.5,197.6c0.3,0.4,0.6,0.9,0.7,1.2l-0.5,0.1h3.3l-0.4-0.1c0.3-0.3,0.6-0.9,0.7-1.2H125.5z M129.1,203.4
			c1.2,0.4,2.7,0.9,3.6,1.3l-0.5,0.5c-0.8-0.4-2.4-1-3.5-1.4L129.1,203.4z"/>
	</g>
	<g class="st4">
		<path d="M90.1,215.4c-0.9,2-2.2,3.9-3.5,5.1c-0.2-0.2-0.5-0.5-0.7-0.6c1.4-1.1,2.6-2.9,3.4-4.7L90.1,215.4z M93.5,221.1
			c1,1.3,2.1,3,2.7,4l-0.8,0.4c-0.2-0.3-0.4-0.7-0.6-1.1c-6.3,0.4-6.9,0.5-7.4,0.6c0-0.2-0.2-0.6-0.3-0.8c0.3-0.1,0.6-0.5,1.1-1.1
			c0.5-0.5,2-2.7,3.1-4.8l0.9,0.4c-1.1,1.9-2.3,3.8-3.6,5.3l5.7-0.3c-0.5-0.8-1.1-1.6-1.5-2.3L93.5,221.1z M93.8,215
			c0.6,2,1.8,3.8,3.2,4.7c-0.2,0.2-0.5,0.5-0.6,0.7c-1.4-1-2.5-2.8-3.2-4.6h-2.3V215H93.8z"/>
		<path d="M108,224.5c0,0.6-0.2,0.8-0.5,0.9c-0.4,0.1-1.1,0.1-2.2,0.1c0-0.2-0.2-0.6-0.3-0.8c0.9,0,1.7,0,1.9,0
			c0.2,0,0.3-0.1,0.3-0.3V222h-3.3v3.6H103V222h-3.1c-0.2,1.3-0.6,2.7-1.5,3.8c-0.1-0.2-0.4-0.4-0.6-0.5c1.3-1.5,1.5-3.6,1.5-5.3
			v-4.3h8.7V224.5z M103,221.2v-2.1h-3v0.8c0,0.4,0,0.9,0,1.3H103z M100.1,216.3v2h3v-2H100.1z M107.2,216.3h-3.3v2h3.3V216.3z
			 M107.2,221.2v-2.1h-3.3v2.1H107.2z"/>
		<path d="M120.8,222.2h-1.2v2.1h-0.8v-0.5h-3v0.9c0,0.5-0.2,0.7-0.5,0.9c-0.4,0.1-1,0.1-2,0.1c0-0.2-0.2-0.5-0.3-0.7
			c0.8,0,1.5,0,1.7,0c0.2,0,0.3-0.1,0.3-0.3v-0.9H111v-0.6h3.9v-1H110v-0.6h4.9v-0.9h-3.8v-0.6h3.8v-0.9h-3.5v-2.1h3.5v-0.7h-4.7
			v-0.7h4.7v-1h0.8v1h4.8v0.7h-4.8v0.7h3.6v2.1h-3.6v0.9h3.8v1.5h1.2V222.2z M115,218.6v-0.9h-2.7v0.9H115z M115.8,217.7v0.9h2.8
			v-0.9H115.8z M115.8,221.6h3v-0.9h-3V221.6z M118.7,222.2h-3v1h3V222.2z"/>
		<path d="M126.3,223.7c-0.9,0.6-2.5,1.2-3.7,1.5c-0.1-0.2-0.3-0.5-0.5-0.6c1.2-0.2,2.8-0.7,3.6-1.2L126.3,223.7z M132.6,222.1v0.7
			h-4.8v2.9H127v-2.9h-4.8v-0.7h4.8v-1h-3.6v-0.6h3.6v-0.9h-4.3V219h2.7c-0.1-0.4-0.4-0.8-0.6-1.2l0.6-0.2h-3.1v-0.7h2
			c-0.2-0.5-0.6-1.2-1-1.8l0.7-0.2c0.4,0.6,0.9,1.3,1.1,1.8l-0.6,0.2h1.5v-2.2h0.7v2.2h1.5v-2.2h0.8v2.2h1.5l-0.5-0.2
			c0.3-0.5,0.7-1.3,1-1.8l0.8,0.2c-0.3,0.6-0.7,1.3-1.1,1.8h1.9v0.7h-3.1l0.7,0.2c-0.3,0.4-0.6,0.9-0.9,1.2h2.8v0.6h-4.4v0.9h3.8
			v0.6h-3.8v1H132.6z M125.5,217.6c0.3,0.4,0.6,0.9,0.7,1.2l-0.5,0.1h3.3l-0.4-0.1c0.3-0.3,0.6-0.9,0.7-1.2H125.5z M129.1,223.4
			c1.2,0.4,2.7,0.9,3.6,1.3l-0.5,0.5c-0.8-0.4-2.4-1-3.5-1.4L129.1,223.4z"/>
	</g>
	<g class="st4">
		<path d="M134,238.3c0-3,1.3-4.5,3.2-4.5s3.2,1.5,3.2,4.5c0,3-1.3,4.6-3.2,4.6S134,241.3,134,238.3z M139.4,238.3
			c0-2.6-0.9-3.7-2.2-3.7c-1.3,0-2.2,1.1-2.2,3.7c0,2.6,0.9,3.8,2.2,3.8C138.5,242,139.4,240.9,139.4,238.3z"/>
		<path d="M200.2,241.9h2.7v-6.7h-2v-0.6c1-0.1,1.7-0.3,2.3-0.6h0.7v8h2.5v0.8h-6.2V241.9z"/>
		<path d="M266,242.1c2.8-2.3,4.8-4.1,4.8-5.7c0-1.1-0.7-1.8-1.9-1.8c-0.9,0-1.7,0.5-2.4,1.3l-0.6-0.6c0.8-0.9,1.8-1.6,3-1.6
			c1.7,0,2.9,1,2.9,2.6c0,1.8-1.9,3.6-4.2,5.5c0.5,0,0.9-0.1,1.4-0.1h3.2v0.8H266V242.1z"/>
		<path d="M331.7,241.4l0.5-0.6c0.7,0.8,1.5,1.3,2.7,1.3c1.2,0,2.1-0.6,2.1-1.7c0-1.1-0.9-1.8-3.1-1.8v-0.8c2,0,2.8-0.8,2.8-1.7
			c0-0.9-0.7-1.5-1.9-1.5c-0.9,0-1.8,0.4-2.4,1.1l-0.6-0.6c0.8-0.8,1.8-1.3,3-1.3c1.7,0,2.8,0.9,2.8,2.2c0,1.1-0.7,1.8-1.7,2.1v0
			c1.1,0.2,2,1,2,2.3c0,1.5-1.4,2.5-3,2.5C333.4,242.8,332.4,242.2,331.7,241.4z"/>
		<path d="M404,240.3h-1.4v2.4h-0.9v-2.4h-4.5v-0.6l4.2-5.7h1.2v5.6h1.4V240.3z M401.7,239.5v-3.1c0-0.5,0-1,0-1.6h0
			c-0.3,0.5-0.6,1-0.9,1.5l-2.4,3.2H401.7z"/>
		<path d="M463.3,241.5l0.5-0.6c0.6,0.6,1.4,1.1,2.6,1.1c1.2,0,2.3-0.8,2.3-2.1c0-1.2-0.9-2.1-2.2-2.1c-0.8,0-1.4,0.2-2,0.6
			l-0.5-0.3l0.3-4.2h5.1v0.8h-4.3l-0.2,2.8c0.5-0.3,1.1-0.5,1.9-0.5c1.6,0,3,0.9,3,2.8c0,1.9-1.6,3-3.2,3
			C465,242.8,464,242.2,463.3,241.5z"/>
		<path d="M528.7,238.8c0-3.5,1.5-4.8,3.2-4.8c0.9,0,1.5,0.4,2,0.9l-0.5,0.6c-0.3-0.4-0.9-0.7-1.4-0.7c-1.2,0-2.3,1-2.3,3.8
			c0.6-0.7,1.3-1.1,2-1.1c1.5,0,2.4,0.9,2.4,2.6c0,1.6-1.1,2.7-2.5,2.7C529.9,242.9,528.7,241.5,528.7,238.8z M529.6,239.4
			c0.1,1.7,0.8,2.7,2,2.7c0.9,0,1.5-0.8,1.5-1.9c0-1.1-0.5-1.9-1.6-1.9C530.9,238.2,530.2,238.6,529.6,239.4z"/>
	</g>
	<g class="st4">
		<path d="M564.6,232c-0.3,0.9-0.8,1.8-1.2,2.7v8h-0.8v-6.8c-0.3,0.5-0.7,1-1.1,1.4c-0.1-0.2-0.3-0.6-0.5-0.8c1.1-1.2,2.2-3,2.8-4.8
			L564.6,232z M572.1,236.5v0.7h-7.7v-0.7h4.6c0.4-0.7,0.8-1.8,1-2.5l0.7,0.2c-0.3,0.8-0.7,1.7-1,2.3H572.1z M571.8,233.8h-6.9v-0.7
			h3.1c-0.1-0.4-0.2-0.9-0.3-1.3l0.7-0.1c0.2,0.5,0.3,1,0.4,1.4h3V233.8z M565.4,238.3h5.6v4.3h-0.8v-0.5h-4.1v0.5h-0.8V238.3z
			 M566.5,236.3c-0.1-0.6-0.4-1.5-0.7-2.1l0.6-0.2c0.4,0.6,0.7,1.5,0.8,2.1L566.5,236.3z M566.2,239v2.4h4.1V239H566.2z"/>
		<path d="M583.2,234.9c-0.2,1.9-0.6,3.4-1.2,4.6c0.6,1.1,1.3,2,2.3,2.5c-0.2,0.1-0.4,0.4-0.5,0.6c-0.9-0.6-1.6-1.4-2.1-2.4
			c-0.7,1-1.6,1.8-2.8,2.5c-0.1-0.2-0.3-0.4-0.4-0.6l-0.3,0.3c-0.4-0.2-0.9-0.5-1.5-0.8c-0.7,0.4-1.6,0.8-3,1.1
			c-0.1-0.2-0.2-0.4-0.4-0.5c1.2-0.2,2-0.5,2.6-0.9c-0.6-0.2-1.2-0.4-1.7-0.6c0.2-0.3,0.5-0.7,0.7-1.1h-1.6V239h1.9
			c0.2-0.3,0.3-0.6,0.4-0.8h-1.8v-1.9h2.3v-0.6h-2v-1.4h-0.8v-0.6h0.8v-1.2h2v-0.8h0.6v0.8h2.1v1.2h0.7v0.6h-0.7v1.4h-2.1v0.6h2.4
			v0.7c0.8-1.3,1.4-3.3,1.7-5.2l0.7,0.1c-0.2,0.8-0.3,1.5-0.5,2.3h3.2v0.7H583.2z M574.5,237.7h1.6v-0.8h-1.6V237.7z M574.7,233.1
			v0.7h1.3v-0.7H574.7z M576,235.2v-0.8h-1.3v0.8H576z M575.6,239.6c-0.2,0.3-0.3,0.5-0.5,0.8c0.4,0.1,0.9,0.3,1.4,0.5
			c0.6-0.4,0.8-0.9,0.9-1.2H575.6z M578.4,242c1.2-0.6,2.1-1.5,2.7-2.6c-0.4-1-0.7-2.1-0.9-3.3c-0.2,0.5-0.4,1-0.7,1.4
			c-0.1-0.1-0.3-0.3-0.5-0.4v1.1h-2.8c-0.1,0.3-0.3,0.5-0.4,0.8h1.6v-0.1v-0.4h0.7v0.4v0.1h1.2v0.6h-1.3c-0.1,0.5-0.3,1-0.9,1.5
			c0.6,0.2,1.1,0.5,1.5,0.7L578.4,242z M576.7,233.1v0.7h1.5v-0.7H576.7z M578.1,235.2v-0.8h-1.5v0.8H578.1z M576.7,236.9v0.8h1.7
			v-0.8H576.7z M580.7,234.9c0,0.1,0,0.1,0,0.2c0.2,1.3,0.5,2.5,0.9,3.6c0.4-1.1,0.7-2.3,0.9-3.8H580.7z"/>
	</g>
	<g class="st4">
		<path d="M358.7,119.1v0.7h-5c0,0.3-0.1,0.7-0.2,1h5v0.7h-5.2c-0.6,1.7-1.8,2.7-5,3.2c-0.1-0.2-0.3-0.5-0.4-0.7
			c2.8-0.4,4-1.2,4.5-2.5h-4.1v-0.7h4.3c0.1-0.3,0.1-0.6,0.2-1H348v-0.7h4.9V118h-3.8v-0.7h3.8v-1h-4.4v-0.7h2.6
			c-0.2-0.4-0.6-1-1-1.5l0.7-0.3c0.4,0.5,0.9,1.1,1.1,1.5l-0.4,0.2h3.2c0.4-0.5,0.8-1.2,1.1-1.7l0.8,0.3c-0.3,0.5-0.7,1-1,1.5h2.6
			v0.7h-4.5v1h3.9v0.7h-3.9v1.1H358.7z M353.7,121.6c1.7,0.6,3.8,1.7,4.9,2.5l-0.4,0.7c-1.1-0.8-3.2-1.9-4.9-2.6L353.7,121.6z"/>
		<path d="M370.3,114.4v10.4h-0.8v-0.6h-8.4v0.6h-0.8v-10.4H370.3z M369.5,123.5v-8.4h-8.4v8.4H369.5z M365.4,121.6
			c-1.3,0.3-2.6,0.5-3.5,0.7l-0.1-0.6c0.9-0.2,2.3-0.4,3.6-0.7L365.4,121.6z M368.3,118.1c-0.3,1.1-0.8,2.1-1.3,3
			c0.3,0.7,0.6,1.1,1.1,1.2c0.2,0,0.3-0.5,0.4-1.3c0.1,0.1,0.4,0.3,0.5,0.3c-0.2,1.3-0.5,1.8-1.1,1.5c-0.6-0.1-1-0.6-1.3-1.2
			c-0.5,0.6-1,1-1.6,1.4c-0.1-0.1-0.3-0.4-0.5-0.5c0.7-0.4,1.3-1,1.8-1.6c-0.3-1-0.5-2.2-0.7-3.6h-3.7v-0.6h3.7
			c0-0.4-0.1-0.9-0.1-1.3h0.7c0,0.4,0,0.9,0.1,1.3h2.7v0.6h-2.6c0.1,1.1,0.3,2.1,0.5,2.9c0.4-0.7,0.7-1.5,0.9-2.3L368.3,118.1z
			 M364.9,118.2v2.3h-2.7v-2.3H364.9z M364.3,118.7h-1.5v1.3h1.5V118.7z M368.1,116.6c-0.3-0.3-0.8-0.6-1.3-0.9l0.4-0.4
			c0.5,0.2,1,0.5,1.3,0.8L368.1,116.6z"/>
		<path d="M374.4,120.2v3.5c0,0.5-0.1,0.7-0.4,0.8c-0.3,0.1-0.8,0.2-1.6,0.2c0-0.2-0.1-0.5-0.2-0.7c0.6,0,1.1,0,1.2,0
			c0.2,0,0.2-0.1,0.2-0.2v-3.2c-0.6,0.2-1.1,0.3-1.6,0.5l-0.2-0.8c0.5-0.1,1.1-0.3,1.8-0.5V117h-1.7v-0.7h1.7v-2.4h0.8v2.4h1.5v0.7
			h-1.5v2.5c0.4-0.1,0.8-0.2,1.2-0.3l0.1,0.7L374.4,120.2z M381.9,119.3c-0.5,1.4-1.3,2.6-2.4,3.4c0.9,0.6,2,1.1,3.2,1.3
			c-0.2,0.2-0.4,0.5-0.5,0.7c-1.3-0.3-2.4-0.8-3.4-1.5c-1.1,0.7-2.3,1.2-3.6,1.5c-0.1-0.2-0.3-0.6-0.4-0.7c1.2-0.3,2.3-0.7,3.3-1.3
			c-0.9-0.8-1.5-1.7-2-2.8l0.1,0h-0.4v-0.8h5.4l0.2,0L381.9,119.3z M377.8,115.6c0,1.1-0.3,2.3-1.8,3.2c-0.1-0.2-0.4-0.5-0.5-0.6
			c1.3-0.8,1.5-1.8,1.5-2.6v-1.3h3.7v2.8c0,0.3,0,0.4,0.2,0.4h1c0.2,0,0.4,0,0.6,0c0,0.2,0,0.5,0.1,0.7c-0.1,0-0.4,0.1-0.6,0.1h-1
			c-0.8,0-0.9-0.3-0.9-1.2v-2h-2.2V115.6z M377,119.9c0.4,0.9,1.1,1.7,1.9,2.4c0.8-0.6,1.5-1.4,2-2.4H377z"/>
		<path d="M387.3,117.1h-3.4v-0.6h3.4V117.1z M388.3,123.3c-1,0.6-2.5,1.1-3.7,1.4c-0.1-0.2-0.4-0.5-0.6-0.6
			c1.2-0.3,2.7-0.7,3.5-1.2L388.3,123.3z M387,115.2h-2.8v-0.6h2.8V115.2z M393.2,122.9h-7.7V118h7.7V122.9z M392.5,118.6h-6.2v0.9
			h6.2V118.6z M392.5,120h-6.2v0.9h6.2V120z M392.5,121.4h-6.2v0.9h6.2V121.4z M391.3,115.4c0,0.1,0,0.3,0,0.4
			c0.6,0.7,2,1.2,3.5,1.4c-0.2,0.2-0.4,0.5-0.5,0.6c-1.4-0.2-2.6-0.7-3.3-1.4c-0.4,0.6-1.3,1.2-3.5,1.5c-0.1-0.2-0.3-0.5-0.4-0.6
			c3.1-0.4,3.4-1.3,3.4-2v-0.1h-1.3c-0.3,0.5-0.6,0.9-0.9,1.2c-0.1-0.1-0.4-0.3-0.6-0.4c0.6-0.6,1.1-1.4,1.4-2.3l0.7,0.2
			c-0.1,0.2-0.2,0.5-0.3,0.7h4.1l0.1,0l0.5,0.2c-0.3,0.6-0.7,1.3-1,1.7l-0.6-0.2c0.2-0.3,0.4-0.6,0.6-1h-2V115.4z M391,123
			c1.3,0.4,2.7,0.9,3.6,1.3l-0.7,0.5c-0.8-0.4-2.1-0.9-3.4-1.3L391,123z"/>
		<path d="M396,117.5c0.2,0,0.4-0.3,0.7-0.7c0.3-0.3,1.1-1.7,1.6-3l0.8,0.3c-0.5,1.2-1.2,2.3-1.9,3.2l1.3-0.1
			c0.3-0.5,0.6-1.1,0.9-1.6l0.7,0.4c-0.8,1.4-1.8,2.8-2.7,3.9l2.2-0.3c-0.1-0.4-0.3-0.8-0.5-1.2l0.6-0.2c0.4,0.8,0.8,1.8,0.9,2.4
			l-0.6,0.3c0-0.2-0.1-0.5-0.2-0.7c-2.8,0.4-3.2,0.5-3.4,0.7c0-0.2-0.2-0.6-0.3-0.8c0.2-0.1,0.5-0.3,0.9-0.8c0.2-0.2,0.6-0.7,1-1.4
			c-1.3,0.2-1.6,0.2-1.8,0.3C396.2,118.1,396.1,117.7,396,117.5z M397.2,121.6c-0.1,1-0.4,2.1-0.6,2.9c-0.1-0.1-0.5-0.2-0.6-0.2
			c0.3-0.7,0.5-1.8,0.6-2.8L397.2,121.6z M398.5,121.4c0.1,0.8,0.3,1.7,0.3,2.4l-0.6,0.1c0-0.6-0.2-1.6-0.3-2.4L398.5,121.4z
			 M399.7,121.1c0.3,0.6,0.5,1.4,0.6,1.9l-0.6,0.2c-0.1-0.5-0.3-1.4-0.6-2L399.7,121.1z M406.4,118c-0.3,1.7-0.9,3.2-1.7,4.3
			c0.6,0.8,1.3,1.4,2.2,1.7c-0.2,0.1-0.4,0.5-0.6,0.7c-0.8-0.4-1.5-1-2.1-1.8c-0.7,0.8-1.4,1.4-2.2,1.8c-0.1-0.2-0.3-0.5-0.5-0.6
			c0.8-0.4,1.6-1.1,2.3-1.9c-0.6-1.1-1.1-2.3-1.4-3.7c-0.2,2.5-0.7,4.5-1.8,6.1c-0.1-0.1-0.5-0.4-0.7-0.5c1.6-2,1.9-5.1,1.9-9h-1.2
			v-0.8h4.3l0.1,0l0.6,0.1c-0.1,1-0.3,2.3-0.6,3.4h0.9l0.1,0L406.4,118z M402.5,115.2c0,0.9,0,1.8-0.1,2.7h1.7
			c0.2-0.8,0.3-1.9,0.5-2.7H402.5z M403,118.5c0.3,1.1,0.7,2.2,1.2,3c0.6-0.9,1-1.9,1.3-3H403z"/>
		<path d="M411.3,114.1c-0.3,0.9-0.7,1.7-1.2,2.5v8.2h-0.8v-7c-0.4,0.6-0.9,1.1-1.3,1.6c-0.1-0.2-0.3-0.6-0.4-0.7
			c1.2-1.2,2.3-3,3-4.8L411.3,114.1z M414.3,123.2c-0.7,0.6-1.9,1.2-2.8,1.6c-0.1-0.1-0.4-0.4-0.6-0.6c1-0.3,2.1-0.8,2.7-1.3
			L414.3,123.2z M418.8,116.9v0.6h-7.8v-0.6h3.5v-0.7h-2.7v-0.6h2.7v-0.6h-3v-0.6h3v-0.7h0.8v0.7h3.1v0.6h-3.1v0.6h2.8v0.6h-2.8v0.7
			H418.8z M418,122.7h-6.1v-4.5h6.1V122.7z M417.2,118.7h-4.5v0.8h4.5V118.7z M417.2,120h-4.5v0.8h4.5V120z M417.2,121.3h-4.5v0.8
			h4.5V121.3z M416.4,122.8c0.9,0.5,1.8,1.1,2.4,1.5l-0.7,0.5c-0.5-0.4-1.5-1.2-2.4-1.6L416.4,122.8z"/>
		<path d="M421.9,119.1c-0.5-0.4-1.4-1-2.1-1.3l0.4-0.6c0.7,0.3,1.7,0.8,2.1,1.2L421.9,119.1z M420,124c0.6-0.9,1.5-2.4,2.1-3.7
			l0.5,0.5c-0.6,1.2-1.4,2.7-2,3.7L420,124z M422.4,115.9c-0.4-0.4-1.3-1-2.1-1.4l0.4-0.6c0.8,0.3,1.7,0.9,2.1,1.3L422.4,115.9z
			 M430.8,120.1h-1v1.8H427v1.8c0,0.5-0.1,0.7-0.4,0.8c-0.3,0.1-0.9,0.1-1.8,0.1c0-0.2-0.1-0.5-0.3-0.7c0.7,0,1.4,0,1.5,0
			c0.2,0,0.2,0,0.2-0.2v-1.8h-2.8v-0.7h2.8v-1.2h-3.4v-0.7h3.4v-1.2h-2.7v-0.7h6.3v1.8h1V120.1z M429.8,114.5
			c-1.7,0.5-4.3,0.8-6.6,1c0-0.2-0.1-0.5-0.2-0.6c2.2-0.2,4.8-0.5,6.2-0.9L429.8,114.5z M424.2,117.4c-0.1-0.4-0.4-1.1-0.6-1.5
			l0.6-0.2c0.3,0.4,0.6,1.1,0.7,1.5L424.2,117.4z M426.4,117.3c-0.1-0.5-0.3-1.2-0.6-1.7l0.6-0.2c0.3,0.5,0.5,1.2,0.6,1.6
			L426.4,117.3z M427,119.4h2.1v-1.2H427V119.4z M429.1,120.1H427v1.2h2.1V120.1z M428.1,117.1c0.3-0.5,0.7-1.3,1-1.9l0.7,0.2
			c-0.3,0.7-0.7,1.4-1,1.9L428.1,117.1z"/>
		<path d="M434,122.2c-0.4,1-1,1.9-1.6,2.5c-0.1-0.1-0.5-0.4-0.6-0.5c0.6-0.6,1.2-1.4,1.5-2.2L434,122.2z M436.5,121.7h-4.1v-7.4
			h4.1V121.7z M435.8,115h-2.6v1.6h2.6V115z M435.8,117.2h-2.6v1.6h2.6V117.2z M435.8,119.4h-2.6v1.6h2.6V119.4z M435.6,122
			c0.5,0.6,1,1.4,1.3,1.9l-0.7,0.4c-0.2-0.5-0.8-1.4-1.3-2L435.6,122z M442.8,117.4h-1.6v6.3c0,0.5-0.1,0.7-0.5,0.9
			c-0.3,0.1-0.9,0.2-1.8,0.2c0-0.2-0.2-0.6-0.3-0.8c0.7,0,1.3,0,1.5,0c0.2,0,0.3-0.1,0.3-0.3v-5.3c-0.8,1.8-2,3.5-3.2,4.5
			c-0.1-0.2-0.4-0.5-0.5-0.6c1.3-1,2.7-2.9,3.4-4.8h-3.2v-0.7h3.5v-2.8h0.8v2.8h1.6V117.4z"/>
		<path d="M453.7,115.8c-0.3,0.8-0.8,1.5-1.5,2.1c0.8,0.5,1.7,0.9,2.7,1.1c-0.2,0.2-0.4,0.5-0.5,0.7c-1-0.3-2-0.7-2.8-1.3
			c-0.8,0.6-1.7,1-2.6,1.3c-0.1-0.1-0.2-0.3-0.3-0.5c-0.2,0.7-0.5,1.4-0.7,1.8l-0.6-0.3c0.3-0.5,0.5-1.3,0.7-2h-1.3v5.1
			c0,0.4-0.1,0.6-0.4,0.8c-0.3,0.1-0.7,0.1-1.5,0.1c0-0.2-0.1-0.5-0.3-0.7c0.5,0,1,0,1.2,0s0.2,0,0.2-0.2v-4.1
			c-0.5,1.2-1.1,2.4-1.8,3.1c-0.1-0.2-0.3-0.5-0.4-0.7c0.8-0.7,1.5-2.1,2-3.3h-1.9V118h3.3c-0.6-0.6-1.7-1.3-2.7-1.7l0.5-0.5
			c0.4,0.2,0.8,0.4,1.2,0.6c0.5-0.4,1-0.8,1.4-1.3H444v-0.7h4.1l0.1,0l0.5,0.3c-0.5,0.7-1.3,1.5-2,2c0.4,0.3,0.8,0.5,1,0.8l-0.4,0.5
			h0.9l0.1,0l0.5,0.2c-0.1,0.2-0.1,0.5-0.2,0.7c0.9-0.2,1.6-0.6,2.3-1c-0.5-0.5-1-1-1.3-1.5c-0.3,0.3-0.6,0.7-0.9,0.9
			c-0.2-0.1-0.5-0.4-0.7-0.5c0.9-0.7,1.8-1.8,2.3-2.9l0.8,0.2c-0.2,0.4-0.3,0.7-0.6,1.1h4.1v0.7H453.7z M454.4,120.5
			c0,0,0,0.2,0,0.3c-0.2,2.3-0.4,3.2-0.8,3.5c-0.2,0.2-0.4,0.3-0.7,0.3c-0.3,0-0.8,0-1.3,0c0-0.2-0.1-0.5-0.2-0.7
			c0.5,0.1,1,0.1,1.2,0.1c0.2,0,0.3,0,0.4-0.1c0.2-0.2,0.4-0.9,0.6-2.7h-2.1c-0.4,1.5-1.2,2.8-3.2,3.5c-0.1-0.2-0.3-0.5-0.5-0.6
			c1.7-0.6,2.5-1.7,2.8-2.9h-2v-0.7h2.1c0.1-0.4,0.1-0.8,0.2-1.2h0.8c0,0.4-0.1,0.8-0.2,1.2H454.4z M450.2,115.8
			c0.3,0.6,0.8,1.2,1.4,1.6c0.5-0.4,0.9-1,1.2-1.6H450.2z"/>
		<path d="M459.6,120.9c-0.2-0.4-0.7-1.2-1.1-1.9v5.7h-0.7v-5.8c-0.4,1.4-1,2.7-1.6,3.6c-0.1-0.2-0.3-0.5-0.4-0.7
			c0.8-1,1.6-2.9,1.9-4.6H456v-0.7h1.8v-2.6h0.7v2.6h1.5v0.7h-1.5v1c0.4,0.4,1.3,1.8,1.6,2.2L459.6,120.9z M462.8,123.1
			c-0.7,0.6-1.7,1.3-2.6,1.7c-0.1-0.1-0.4-0.4-0.5-0.6c0.9-0.4,1.9-1,2.4-1.6L462.8,123.1z M466.8,117h-6.6v-0.7h2.8V115h-2.4v-0.7
			h5.7v0.7h-2.5v1.3h3.1V117z M460.8,122.5v-4.7h5.4v4.7H460.8z M461.5,119.2h3.8v-0.8h-3.8V119.2z M461.5,120.5h3.8v-0.8h-3.8
			V120.5z M461.5,121.9h3.8v-0.8h-3.8V121.9z M464.7,122.7c0.7,0.5,1.7,1.2,2.2,1.6l-0.6,0.5c-0.5-0.5-1.4-1.2-2.2-1.7L464.7,122.7z
			"/>
		<path d="M471.6,120.9c-0.2-0.4-0.7-1.2-1.1-1.9v5.7h-0.7v-5.8c-0.4,1.4-1,2.7-1.6,3.6c-0.1-0.2-0.3-0.5-0.4-0.7
			c0.8-1,1.6-2.9,1.9-4.6H468v-0.7h1.8v-2.6h0.7v2.6h1.5v0.7h-1.5v1c0.4,0.4,1.3,1.8,1.6,2.2L471.6,120.9z M478.8,122.3h-3.1v2.5
			h-0.8v-2.5h-3.2v-0.7h3.2v-1.4h-2.7v-0.7h6.3v0.7h-2.8v1.4h3.1V122.3z M478.2,118.6h-5.7v-4.3h5.7V118.6z M477.4,114.9h-4.1v1.2
			h4.1V114.9z M477.4,116.7h-4.1v1.2h4.1V116.7z"/>
	</g>
	<g id="_x30_1_00000061446627618938589440000005231940656161482661_">
		<g>
			<g>
				<defs>
					<rect id="SVGID_00000076598019274860951000000011636593510218896009_" x="136.7" y="30.1" width="396.3" height="201.2"/>
				</defs>
				<clipPath id="SVGID_00000176007376935671902660000016982090577022152099_">
					<use xlink:href="#SVGID_00000076598019274860951000000011636593510218896009_"  style="overflow:visible;"/>
				</clipPath>
				<path style="clip-path:url(#SVGID_00000176007376935671902660000016982090577022152099_);fill:#00367C;" d="M241.8,46H137.4
					v-9.1h104.4L241.8,46L241.8,46z M255.4,65.6h-118v-9.1h118V65.6z M261.5,86.8h-124V76.2h124V86.8z M269,106.5H137.4V95.9H269
					V106.5z M288.7,126.2H137.4v-10.6h151.3V126.2z M294.7,145.8H137.4v-9.1h157.3V145.8z M328,165.5H137.4v-9.1H328V165.5z
					 M361.3,186.7H137.4v-10.6h223.9V186.7z M473.2,206.3H137.4v-10.6h335.8L473.2,206.3L473.2,206.3z M486.9,226H137.4v-10.6h349.4
					V226H486.9z"/>
			</g>
			<g>
				<defs>
					<rect id="SVGID_00000086687134410768160560000012781937329118087333_" x="136.7" y="30.1" width="396.3" height="201.2"/>
				</defs>
				<clipPath id="SVGID_00000000223755106127944930000001444079308174792339_">
					<use xlink:href="#SVGID_00000086687134410768160560000012781937329118087333_"  style="overflow:visible;"/>
				</clipPath>
				
					<path style="clip-path:url(#SVGID_00000000223755106127944930000001444079308174792339_);fill:none;stroke:#00367C;stroke-width:0.75;stroke-linejoin:round;stroke-miterlimit:10;" d="
					M241.8,46H137.4v-9.1h104.4L241.8,46L241.8,46z M255.4,65.6h-118v-9.1h118V65.6z M261.5,86.8h-124V76.2h124V86.8z M269,106.5
					H137.4V95.9H269V106.5z M288.7,126.2H137.4v-10.6h151.3V126.2z M294.7,145.8H137.4v-9.1h157.3V145.8z M328,165.5H137.4v-9.1H328
					V165.5z M361.3,186.7H137.4v-10.6h223.9V186.7z M473.2,206.3H137.4v-10.6h335.8L473.2,206.3L473.2,206.3z M486.9,226H137.4
					v-10.6h349.4V226H486.9z"/>
			</g>
		</g>
		<g>
			<rect x="336" y="114.9" class="st2" width="7.6" height="7.6"/>
			<rect x="336" y="114.9" class="st3" width="7.6" height="7.6"/>
		</g>
	</g>
</g>
</svg>
