<?xml version="1.0" encoding="utf-8"?>
<!-- Generator: Adobe Illustrator 27.8.1, SVG Export Plug-In . SVG Version: 6.00 Build 0)  -->
<svg version="1.1" id="圖層_1" xmlns="http://www.w3.org/2000/svg" xmlns:xlink="http://www.w3.org/1999/xlink" x="0px" y="0px"
	 viewBox="0 0 602 259" style="enable-background:new 0 0 602 259;" xml:space="preserve">
<style type="text/css">
	.st0{clip-path:url(#SVGID_00000131327487361440438560000000035469925653231753_);fill:#00367C;}
	
		.st1{clip-path:url(#SVGID_00000016035333427478294930000008757684261823431340_);fill:none;stroke:#00367C;stroke-width:0.75;stroke-linejoin:round;stroke-miterlimit:10;}
	.st2{clip-path:url(#SVGID_00000098936068644793851410000001287216847996494481_);fill:#00367C;}
	
		.st3{clip-path:url(#SVGID_00000096033259359982118680000006522692645983995284_);fill:none;stroke:#00367C;stroke-width:0.75;stroke-linejoin:round;stroke-miterlimit:10;}
	.st4{enable-background:new    ;}
</style>
<g>
	<g>
		<g>
			<defs>
				<rect id="SVGID_1_" x="42" y="365.3" width="534" height="96.5"/>
			</defs>
			<clipPath id="SVGID_00000114776288748453596190000006369064055219553438_">
				<use xlink:href="#SVGID_1_"  style="overflow:visible;"/>
			</clipPath>
			<path style="clip-path:url(#SVGID_00000114776288748453596190000006369064055219553438_);fill:#00367C;" d="M549.1,366H563v96.5
				h-13.8V366H549.1z M507.7,378.6h13.8v83.9h-13.8V378.6z M466.3,396.7h13.8v65.7h-13.8V396.7z M424.8,398.1h13.8v64.3h-13.8V398.1
				z M384.9,400.9h13.8v61.5h-13.8V400.9z M343.5,403.7h13.8v58.8h-13.8V403.7z M302.1,409.3h13.8v53.2h-13.8V409.3z M262.2,423.3
				H276v39.2h-13.8V423.3z M220.8,431.7h13.8v30.8h-13.8V431.7z M179.3,441.5h13.8v21h-13.8V441.5z M139.4,444.3h12.3v18.2h-12.3
				V444.3z M98,452.7h13.8v9.8H98V452.7z M56.6,452.7h13.8v9.8H56.6V452.7z"/>
		</g>
	</g>
	<g>
		<g>
			<defs>
				<rect id="SVGID_00000088831258162187642220000014292792056853838242_" x="42" y="365.3" width="534" height="96.5"/>
			</defs>
			<clipPath id="SVGID_00000034063787676622090750000010596910345349801402_">
				<use xlink:href="#SVGID_00000088831258162187642220000014292792056853838242_"  style="overflow:visible;"/>
			</clipPath>
			
				<path style="clip-path:url(#SVGID_00000034063787676622090750000010596910345349801402_);fill:none;stroke:#00367C;stroke-width:0.75;stroke-linejoin:round;stroke-miterlimit:10;" d="
				M549.1,366H563v96.5h-13.8V366H549.1z M507.7,378.6h13.8v83.9h-13.8V378.6z M466.3,396.7h13.8v65.7h-13.8V396.7z M424.8,398.1
				h13.8v64.3h-13.8V398.1z M384.9,400.9h13.8v61.5h-13.8V400.9z M343.5,403.7h13.8v58.8h-13.8V403.7z M302.1,409.3h13.8v53.2h-13.8
				V409.3z M262.2,423.3H276v39.2h-13.8V423.3z M220.8,431.7h13.8v30.8h-13.8V431.7z M179.3,441.5h13.8v21h-13.8V441.5z
				 M139.4,444.3h12.3v18.2h-12.3V444.3z M98,452.7h13.8v9.8H98V452.7z M56.6,452.7h13.8v9.8H56.6V452.7z"/>
		</g>
	</g>
</g>
<text transform="matrix(1 0 0 1 31.5901 363.924)" style="font-family:'SourceHanSansTC-Normal-B5pc-H'; font-size:12px;">4</text>
<text transform="matrix(1 0 0 1 31.5901 388.924)" style="font-family:'SourceHanSansTC-Normal-B5pc-H'; font-size:12px;">3</text>
<text transform="matrix(1 0 0 1 31.5901 413.924)" style="font-family:'SourceHanSansTC-Normal-B5pc-H'; font-size:12px;">2</text>
<text transform="matrix(1 0 0 1 31.5901 438.924)" style="font-family:'SourceHanSansTC-Normal-B5pc-H'; font-size:12px;">1</text>
<text transform="matrix(1 0 0 1 31.5901 463.924)" style="font-family:'SourceHanSansTC-Normal-B5pc-H'; font-size:12px;">0</text>
<text transform="matrix(1 0 0 1 558.4265 469.6628)" style="font-family:'SourceHanSansTC-Normal-B5pc-H'; font-size:12px;glyph-orientation-vertical:0;writing-mode:tb;">能源與天然氣</text>
<text transform="matrix(1 0 0 1 517.1765 469.6628)" style="font-family:'SourceHanSansTC-Normal-B5pc-H'; font-size:12px;glyph-orientation-vertical:0;writing-mode:tb;">休閒娛樂／媒體</text>
<text transform="matrix(1 0 0 1 475.9265 469.6628)" style="font-family:'SourceHanSansTC-Normal-B5pc-H'; font-size:12px;glyph-orientation-vertical:0;writing-mode:tb;">消費／服務</text>
<text transform="matrix(1 0 0 1 434.6765 469.6628)" style="font-family:'SourceHanSansTC-Normal-B5pc-H'; font-size:12px;glyph-orientation-vertical:0;writing-mode:tb;">營造與建材</text>
<text transform="matrix(1 0 0 1 393.4265 469.6628)" style="font-family:'SourceHanSansTC-Normal-B5pc-H'; font-size:12px;glyph-orientation-vertical:0;writing-mode:tb;">通訊服務</text>
<text transform="matrix(1 0 0 1 352.1765 469.6628)" style="font-family:'SourceHanSansTC-Normal-B5pc-H'; font-size:12px;glyph-orientation-vertical:0;writing-mode:tb;">運輸</text>
<text transform="matrix(1 0 0 1 310.9265 469.6628)" style="font-family:'SourceHanSansTC-Normal-B5pc-H'; font-size:12px;glyph-orientation-vertical:0;writing-mode:tb;">航太軍工</text>
<text transform="matrix(1 0 0 1 269.6765 469.6628)" style="font-family:'SourceHanSansTC-Normal-B5pc-H'; font-size:12px;glyph-orientation-vertical:0;writing-mode:tb;">醫療保健</text>
<text transform="matrix(1 0 0 1 228.4265 469.6628)" style="font-family:'SourceHanSansTC-Normal-B5pc-H'; font-size:12px;glyph-orientation-vertical:0;writing-mode:tb;">科技</text>
<text transform="matrix(1 0 0 1 187.1765 469.6628)" style="font-family:'SourceHanSansTC-Normal-B5pc-H'; font-size:12px;glyph-orientation-vertical:0;writing-mode:tb;">金融</text>
<text transform="matrix(1 0 0 1 145.9265 469.6628)" style="font-family:'SourceHanSansTC-Normal-B5pc-H'; font-size:12px;glyph-orientation-vertical:0;writing-mode:tb;">不動產</text>
<text transform="matrix(1 0 0 1 104.6765 469.6628)" style="font-family:'SourceHanSansTC-Normal-B5pc-H'; font-size:12px;glyph-orientation-vertical:0;writing-mode:tb;">公用事業</text>
<text transform="matrix(1 0 0 1 63.4265 469.6628)" style="font-family:'SourceHanSansTC-Normal-B5pc-H'; font-size:12px;glyph-orientation-vertical:0;writing-mode:tb;">保險</text>
<text transform="matrix(1 0 0 1 27.3325 339.9995)" style="font-family:'SourceHanSansTC-Normal-B5pc-H'; font-size:12px;">過去４０年各產業平均各違約率 ,％</text>
<g>
	<g>
		<g>
			<g>
				<defs>
					<rect id="SVGID_00000072253965392428031890000011672662427019158462_" x="42" y="58.3" width="534" height="96.5"/>
				</defs>
				<clipPath id="SVGID_00000001639740154534194720000004529274532842326666_">
					<use xlink:href="#SVGID_00000072253965392428031890000011672662427019158462_"  style="overflow:visible;"/>
				</clipPath>
				<path style="clip-path:url(#SVGID_00000001639740154534194720000004529274532842326666_);fill:#00367C;" d="M549.1,59H563v96.5
					h-13.8V59H549.1z M507.7,71.6h13.8v83.9h-13.8V71.6z M466.3,89.7h13.8v65.7h-13.8V89.7z M424.8,91.1h13.8v64.3h-13.8V91.1z
					 M384.9,93.9h13.8v61.5h-13.8V93.9z M343.5,96.7h13.8v58.8h-13.8V96.7z M302.1,102.3h13.8v53.2h-13.8V102.3z M262.2,116.3H276
					v39.2h-13.8V116.3z M220.8,124.7h13.8v30.8h-13.8V124.7z M179.3,134.5h13.8v21h-13.8V134.5z M139.4,137.3h12.3v18.2h-12.3V137.3
					z M98,145.7h13.8v9.8H98V145.7z M56.6,145.7h13.8v9.8H56.6V145.7z"/>
			</g>
		</g>
		<g>
			<g>
				<defs>
					<rect id="SVGID_00000165954886771607110310000005948837760973608638_" x="42" y="58.3" width="534" height="96.5"/>
				</defs>
				<clipPath id="SVGID_00000036240958795202327740000014143944744262219443_">
					<use xlink:href="#SVGID_00000165954886771607110310000005948837760973608638_"  style="overflow:visible;"/>
				</clipPath>
				
					<path style="clip-path:url(#SVGID_00000036240958795202327740000014143944744262219443_);fill:none;stroke:#00367C;stroke-width:0.75;stroke-linejoin:round;stroke-miterlimit:10;" d="
					M549.1,59H563v96.5h-13.8V59H549.1z M507.7,71.6h13.8v83.9h-13.8V71.6z M466.3,89.7h13.8v65.7h-13.8V89.7z M424.8,91.1h13.8
					v64.3h-13.8V91.1z M384.9,93.9h13.8v61.5h-13.8V93.9z M343.5,96.7h13.8v58.8h-13.8V96.7z M302.1,102.3h13.8v53.2h-13.8V102.3z
					 M262.2,116.3H276v39.2h-13.8V116.3z M220.8,124.7h13.8v30.8h-13.8V124.7z M179.3,134.5h13.8v21h-13.8V134.5z M139.4,137.3h12.3
					v18.2h-12.3V137.3z M98,145.7h13.8v9.8H98V145.7z M56.6,145.7h13.8v9.8H56.6V145.7z"/>
			</g>
		</g>
	</g>
	<g class="st4">
		<path d="M35.7,54.5h-3.8v-0.6l3.7-5.5h1v5.3h1.2v0.8h-1.2v2.4h-0.9V54.5z M35.7,53.7v-2.7c0-0.4,0-1.2,0.1-1.6h-0.1
			c-0.2,0.4-0.5,0.8-0.7,1.2l-2.1,3.1H35.7z"/>
	</g>
	<g class="st4">
		<path d="M32,80.9l0.5-0.6c0.5,0.5,1.2,1,2.2,1c1.1,0,1.8-0.6,1.8-1.6c0-1.1-0.7-1.8-2.8-1.8v-0.8c1.8,0,2.5-0.7,2.5-1.7
			c0-0.9-0.6-1.4-1.5-1.4c-0.7,0-1.4,0.4-1.8,0.9l-0.5-0.6c0.6-0.6,1.4-1.1,2.4-1.1c1.4,0,2.5,0.8,2.5,2.1c0,1-0.6,1.7-1.6,2v0.1
			c1,0.2,1.9,1,1.9,2.2c0,1.5-1.2,2.4-2.8,2.4C33.4,82.1,32.5,81.5,32,80.9z"/>
	</g>
	<g class="st4">
		<path d="M32.1,106.3c2.6-2.6,4.1-4.2,4.1-5.6c0-1-0.5-1.7-1.7-1.7c-0.7,0-1.4,0.5-1.9,1l-0.6-0.6c0.7-0.8,1.5-1.3,2.6-1.3
			c1.6,0,2.5,1,2.5,2.5c0,1.6-1.5,3.2-3.6,5.4c0.5,0,1-0.1,1.4-0.1h2.6v0.8h-5.4V106.3z"/>
	</g>
	<g class="st4">
		<path d="M32.7,131.1h2v-6.5h-1.5V124c0.8-0.1,1.3-0.3,1.8-0.6h0.7v7.7h1.8v0.8h-4.7V131.1z"/>
	</g>
	<g class="st4">
		<path d="M32.2,152.6c0-2.9,1-4.4,2.7-4.4c1.7,0,2.7,1.6,2.7,4.4c0,2.9-1,4.5-2.7,4.5C33.2,157.1,32.2,155.5,32.2,152.6z
			 M36.6,152.6c0-2.5-0.7-3.6-1.7-3.6c-1,0-1.8,1.1-1.8,3.6c0,2.5,0.7,3.7,1.8,3.7C35.9,156.3,36.6,155.2,36.6,152.6z"/>
	</g>
	<g class="st4">
		<path d="M557.9,173.2c0,0.4-0.1,0.6-0.4,0.7c-0.3,0.1-0.8,0.1-1.6,0.1c0-0.2-0.1-0.5-0.3-0.7c0.6,0,1.1,0,1.3,0
			c0.2,0,0.2,0,0.2-0.2v-2c-0.8,0.5-1.7,1-2.4,1.3l-0.3-0.7c0.7-0.3,1.7-0.8,2.7-1.3v-2.5h-2.6v2.3c0,1.2-0.1,2.7-1,3.7
			c-0.1-0.2-0.4-0.4-0.6-0.6c0.7-0.9,0.8-2.2,0.8-3.2v-3h4.1V173.2z M557.1,164.1c0.6,0.8,1.3,1.9,1.6,2.6L558,167
			c-0.1-0.2-0.2-0.5-0.4-0.8c-3.3,0.3-3.7,0.3-4,0.4c0-0.2-0.2-0.6-0.3-0.8c0.2,0,0.4-0.2,0.6-0.5c0.2-0.2,1-1.2,1.5-2.2l0.8,0.3
			c-0.5,0.8-1.1,1.6-1.7,2.3l2.6-0.2c-0.3-0.4-0.5-0.9-0.8-1.2L557.1,164.1z M555.1,168.9c0.7,0.4,1.5,0.9,2,1.2l-0.4,0.5
			c-0.4-0.4-1.3-0.9-2-1.3L555.1,168.9z M560.3,168.4c-1,0-1.3-0.3-1.3-1.3v-3.8h0.8v1.7h3.3v0.7h-3.3v1.5c0,0.4,0.1,0.6,0.5,0.6
			h2.3c0.3,0,0.8,0,1-0.1c0,0.2,0,0.5,0.1,0.7c-0.2,0-0.6,0.1-1,0.1H560.3z M562.6,173.3c0.5,0,0.6-0.2,0.7-1.5
			c0.2,0.1,0.5,0.3,0.7,0.3c-0.1,1.6-0.3,2-1.3,2h-2.2c-1.1,0-1.4-0.2-1.4-1.2v-4.1h0.8v1.5h3.4v0.7h-3.4v1.9c0,0.4,0.1,0.5,0.7,0.5
			H562.6z"/>
		<path d="M555,180.4c-0.5-0.3-1.4-0.9-2-1.3l0.4-0.6c0.7,0.3,1.6,0.9,2.1,1.2L555,180.4z M555.7,182.1c-0.5,1.3-1.2,2.7-1.8,3.8
			l-0.7-0.4c0.5-0.9,1.3-2.5,1.8-3.9L555.7,182.1z M555.5,177.3c-0.5-0.4-1.3-1-2-1.4l0.5-0.5c0.7,0.4,1.6,0.9,2,1.3L555.5,177.3z
			 M557.3,179.1c0,2.1-0.2,5-1.6,7c-0.1-0.1-0.5-0.3-0.7-0.4c1.4-1.9,1.5-4.6,1.5-6.6v-3.3h7.3v0.7h-6.5V179.1z M559.2,182.9
			c-0.4,0.9-1,1.8-1.5,2.5c-0.1-0.1-0.5-0.3-0.6-0.4c0.6-0.6,1.1-1.5,1.5-2.2L559.2,182.9z M561,182v3.2c0,0.4-0.1,0.6-0.4,0.7
			c-0.3,0.1-0.8,0.1-1.6,0.1c0-0.2-0.1-0.5-0.2-0.7c0.6,0,1.1,0,1.3,0c0.2,0,0.2-0.1,0.2-0.2V182H558V178h1.8
			c0.1-0.4,0.3-0.9,0.3-1.2l0.9,0.2c-0.2,0.4-0.3,0.7-0.5,1.1h2.7v4.1H561z M558.8,179.7h3.8v-1.1h-3.8V179.7z M558.8,181.4h3.8
			v-1.1h-3.8V181.4z M562.5,182.7c0.5,0.7,1.1,1.7,1.4,2.3l-0.7,0.3c-0.3-0.6-0.9-1.6-1.4-2.4L562.5,182.7z"/>
		<path d="M563.8,194.6v0.7H553v-0.7h1.2l-0.2-6.4c0.7-0.3,1.6-0.6,2.2-0.9l0.4,0.7c-0.6,0.2-1.2,0.5-1.9,0.7l0,1.5h1.7v0.7h-1.6
			l0.1,1.6h1.6v0.7h-1.6l0.1,1.6h6.9c0-0.4,0.1-1,0.1-1.5h-1.6v-0.7h1.7c0-0.5,0-1,0.1-1.6h-1.7v-0.7h1.7c0-0.6,0-1.1,0-1.6h-1.8
			v-0.7h2.5c0,2.1-0.1,5-0.2,6.7H563.8z M557.2,196c-1,0.8-2.4,1.6-3.6,2.1c-0.1-0.2-0.3-0.4-0.5-0.6c1.1-0.5,2.6-1.3,3.3-2
			L557.2,196z M558.2,191.8c-0.1,0.9-0.4,1.7-0.8,2.3c-0.1-0.1-0.4-0.3-0.6-0.4c0.4-0.5,0.6-1.3,0.7-2L558.2,191.8z M559.1,191.1
			h-1.9v-3.9h0.7v1.2h2v0.7h-2v1.4h1.6v0h0.3v3.2c0,0.3-0.1,0.5-0.3,0.6c-0.3,0.1-0.7,0.1-1.2,0.1c0-0.2-0.1-0.4-0.2-0.6
			c0.5,0,0.8,0,0.9,0c0.1,0,0.2,0,0.2-0.2V191.1z M560.1,195.5c1.3,0.6,2.7,1.4,3.5,2l-0.5,0.6c-0.8-0.6-2.2-1.4-3.4-2L560.1,195.5z
			"/>
		<path d="M559,204.6c0.8,2.3,2.5,4.1,4.9,4.8c-0.2,0.2-0.4,0.5-0.5,0.7c-2.4-0.8-4-2.5-5-4.9c-0.5,1.8-1.8,3.6-4.9,4.9
			c-0.1-0.2-0.4-0.5-0.5-0.7c3.1-1.3,4.3-3.1,4.7-4.8h-4.5v-0.8h4.6c0.1-0.5,0.1-1,0.1-1.4V201h-4.3v-0.8h9.5v0.8h-4.4v1.5
			c0,0.5,0,0.9-0.1,1.4h4.9v0.8H559z"/>
		<path d="M553,221.8c0.6-0.6,1.2-1.5,1.6-2.3l0.7,0.2c-0.4,0.8-1,1.8-1.6,2.4L553,221.8z M558.6,212.5c-0.7,3.5-2.6,5.6-4.9,6.6
			c-0.1-0.2-0.4-0.5-0.6-0.6c1.4-0.6,2.7-1.6,3.5-3.1c-0.4-0.5-1.1-1.1-1.7-1.6c-0.5,0.7-1,1.4-1.6,1.9c-0.1-0.2-0.3-0.5-0.4-0.6
			c1.1-1,2.1-2.6,2.5-3.9l0.8,0.2c-0.1,0.3-0.3,0.6-0.4,0.9h2.1l0.1,0L558.6,212.5z M555.8,216.1l-2.4,0.7l-0.2-0.6
			c0.7-0.1,1.6-0.4,2.5-0.6L555.8,216.1z M555.5,212.9c-0.1,0.1-0.1,0.3-0.2,0.4c0.6,0.4,1.3,1,1.7,1.5c0.3-0.6,0.5-1.2,0.7-1.8
			H555.5z M557.3,219.8c0.2,0.7,0.3,1.6,0.3,2.1l-0.8,0.1c0-0.6-0.1-1.5-0.3-2.2L557.3,219.8z M563.2,219.1c-0.4-1-1.3-2.6-2.3-4
			c-0.4,1.4-1.2,2.9-3,4.1c-0.1-0.2-0.4-0.4-0.6-0.5c1.9-1.3,2.7-2.8,3-4.2h-1.8v-0.8h2c0-0.4,0.1-0.8,0.1-1.2v-1.3h0.8v1.3
			c0,0.4,0,0.7,0,1.2h2.6v0.8h-2.4c1,1.4,2.1,3.1,2.5,4.2L563.2,219.1z M559.8,219.7c0.3,0.7,0.7,1.6,0.8,2.2l-0.8,0.2
			c-0.1-0.6-0.4-1.5-0.7-2.2L559.8,219.7z M562.2,219.5c0.6,0.7,1.3,1.7,1.6,2.3l-0.7,0.3c-0.3-0.6-1-1.6-1.6-2.4L562.2,219.5z
			 M562.9,213.5c-0.3-0.4-0.8-1.1-1.3-1.6l0.6-0.3c0.5,0.5,1.1,1.1,1.3,1.6L562.9,213.5z"/>
		<path d="M555.6,225c-0.6,0.9-1.3,1.7-2,2.3c-0.1-0.2-0.4-0.5-0.6-0.6c1.1-0.8,2.1-2.1,2.7-3.5l0.8,0.2c-0.1,0.3-0.3,0.6-0.5,0.9
			h7.4v0.6H555.6z M556.3,231.6c-0.6,0.9-1.6,2-2.5,2.5c-0.1-0.2-0.3-0.4-0.5-0.6c0.9-0.4,1.9-1.3,2.4-2.1L556.3,231.6z
			 M557.4,230.9v3.2h-0.8v-3.2h-3.3v-0.6h3.3v-2.1h0.8v2.1h3.2v0.6H557.4z M561.9,227.2c0,3.8,0.1,6.1,1.1,6.1
			c0.3,0,0.3-0.7,0.3-1.8c0.2,0.2,0.4,0.4,0.6,0.5c-0.1,1.6-0.2,2.1-0.9,2.1c-1.7,0-1.8-2.3-1.8-6.2h-6.9v-0.6H561.9z M554.9,228.3
			c0.4,0.5,0.8,1.1,1,1.5l-0.6,0.3c-0.1-0.4-0.6-1.1-1-1.5L554.9,228.3z M555.4,226.4v-0.6h7.1v0.6H555.4z M558.5,231.4
			c0.8,0.6,1.8,1.4,2.3,2l-0.5,0.5c-0.5-0.6-1.4-1.4-2.2-2L558.5,231.4z M560,228.6c-0.4,0.6-0.9,1.2-1.3,1.6l-0.5-0.2
			c0.4-0.5,0.9-1.2,1.1-1.7L560,228.6z"/>
	</g>
	<g class="st4">
		<path d="M515.6,163.5c-0.4,0.9-0.8,1.8-1.3,2.6v8h-0.8v-6.9c-0.5,0.6-1,1.2-1.5,1.7c-0.1-0.2-0.3-0.6-0.5-0.8
			c1.3-1.2,2.6-3,3.3-4.9L515.6,163.5z M519.5,167c0.8,1.9,2.1,3.9,3.3,4.9c-0.2,0.1-0.5,0.4-0.6,0.6c-1.2-1.1-2.4-3-3.2-5v6.5h-0.8
			v-6.3c-0.8,2-2,3.8-3.2,4.8c-0.1-0.2-0.4-0.5-0.6-0.6c1.3-1,2.6-3,3.4-5h-3v-0.8h3.4v-2.9h0.8v2.9h3.5v0.8H519.5z"/>
		<path d="M513.2,179.7v6.4h-0.8v-10.4h4v3.9H513.2z M513.2,176.4v1h2.5v-1H513.2z M515.7,179v-1h-2.5v1H515.7z M519.1,184.9
			c0,0.4-0.1,0.6-0.4,0.7c-0.3,0.1-0.8,0.1-1.5,0.1c0-0.2-0.1-0.5-0.2-0.7c0.6,0,1.1,0,1.2,0c0.2,0,0.2,0,0.2-0.2v-1h-2.5
			c-0.1,0.7-0.4,1.5-0.9,2.1c-0.1-0.1-0.5-0.3-0.6-0.4c0.8-0.8,0.9-2,0.9-2.9v-2.2h3.8V184.9z M518.4,183.3v-0.8H516v0.2
			c0,0.2,0,0.4,0,0.7H518.4z M516,181v0.8h2.4V181H516z M522,185.1c0,0.5-0.1,0.8-0.5,0.9c-0.4,0.1-0.9,0.1-1.9,0.1
			c0-0.2-0.2-0.6-0.3-0.8c0.7,0,1.4,0,1.6,0c0.2,0,0.3-0.1,0.3-0.3v-5.4h-3.3v-3.9h4.1V185.1z M518.6,176.4v1h2.6v-1H518.6z
			 M521.2,179v-1h-2.6v1H521.2z"/>
		<path d="M515.3,197.1c-0.3-0.4-0.7-0.9-1.2-1.4c-0.4,0.8-1.1,1.6-1.9,2.3c-0.1-0.2-0.4-0.4-0.5-0.5c0.9-0.7,1.5-1.5,1.9-2.3
			c-0.5-0.5-1.1-1.1-1.7-1.5c0.3-0.8,0.5-2,0.7-3.2l-0.9,0l-0.1-0.7c0.3,0,0.7,0,1.1,0c0.1-0.9,0.3-1.8,0.3-2.6l0.7,0
			c-0.1,0.8-0.2,1.7-0.4,2.6l1.1-0.1v-0.9h0.7v0.8l0.6,0v0.7l-0.6,0c0,1.4-0.1,3-0.8,4.6c0.6,0.5,1,1,1.4,1.5L515.3,197.1z
			 M513.3,190.6c-0.2,1.1-0.4,2.1-0.6,3c0.4,0.3,0.8,0.7,1.2,1c0.6-1.4,0.7-2.9,0.7-4.1L513.3,190.6z M522.6,194.3v0.7H519
			c-0.4,1.5-1.3,2.5-3.3,3.1c-0.1-0.2-0.3-0.5-0.5-0.6c1.7-0.5,2.5-1.3,2.9-2.5h-2.6v-0.7h2.8c0.1-0.5,0.2-1,0.2-1.6h-2.4v-4.3h0.7
			v3.6h4.9v2.3H522.6z M521.5,191.2h-3.8v-3.4h3.8V191.2z M520.8,188.5h-2.4v2.1h2.4V188.5z M519.5,195.5c1,0.6,2.4,1.5,3.1,2.1
			l-0.5,0.6c-0.7-0.6-2.1-1.5-3.1-2.2L519.5,195.5z M519.4,192.7c0,0.6-0.1,1.1-0.2,1.6h2v-1.6H519.4z"/>
		<path d="M516.1,207.3c-0.9,1-2.5,2-3.9,2.4c-0.1-0.2-0.3-0.5-0.5-0.7c1.4-0.4,3-1.2,3.8-2.1L516.1,207.3z M522.5,205.9v0.7h-4.9
			v3.5h-0.8v-3.5h-4.9v-0.7h4.9v-0.7h0.8v0.7H522.5z M514.8,205.2c0-0.2,0-0.4-0.1-0.6c-2,0.3-2.3,0.3-2.5,0.5
			c0-0.1-0.1-0.5-0.2-0.6c0.2,0,0.4-0.3,0.7-0.7c0.2-0.2,0.5-0.7,0.9-1.3c-1.1,0.1-1.3,0.2-1.4,0.3c0-0.1-0.1-0.5-0.2-0.6
			c0.2,0,0.3-0.2,0.5-0.5c0.2-0.3,0.8-1.3,1.1-2.3l0.6,0.2c-0.3,0.9-0.8,1.8-1.2,2.4l1.1-0.1c0.2-0.4,0.4-0.8,0.6-1.2l0.6,0.3
			c-0.7,1.2-1.5,2.4-2.3,3.3l1.6-0.2c-0.1-0.3-0.1-0.6-0.2-0.9l0.6-0.1c0.2,0.6,0.4,1.4,0.5,2L514.8,205.2z M518.7,204.9h-3.1v-4.5
			h1c0.1-0.4,0.2-0.9,0.3-1.2l0.8,0.1c-0.1,0.3-0.3,0.7-0.4,1.1h1.5V204.9z M518,201h-1.7v1.3h1.7V201z M518,202.9h-1.7v1.3h1.7
			V202.9z M518.8,206.9c1.2,0.6,2.8,1.6,3.6,2.3l-0.5,0.6c-0.8-0.7-2.4-1.7-3.6-2.3L518.8,206.9z M521.9,205.3
			c0-0.1-0.1-0.3-0.1-0.5c-2,0.3-2.3,0.3-2.5,0.4c0-0.1-0.1-0.5-0.2-0.6c0.2,0,0.4-0.3,0.7-0.7c0.2-0.2,0.6-0.7,1-1.3
			c-1.2,0.2-1.5,0.2-1.6,0.3c0-0.1-0.1-0.5-0.2-0.7c0.1,0,0.3-0.2,0.5-0.5c0.2-0.3,0.8-1.4,1.1-2.4l0.7,0.2
			c-0.4,0.9-0.8,1.8-1.3,2.6l1.3-0.1c0.2-0.4,0.4-0.7,0.6-1.1l0.6,0.3c-0.6,1.2-1.5,2.4-2.2,3.3l1.5-0.2c-0.1-0.3-0.2-0.5-0.3-0.8
			l0.5-0.2c0.2,0.6,0.5,1.3,0.6,1.8L521.9,205.3z"/>
		<path d="M522.8,211.4l-10.8,10.8l-0.3-0.3l10.8-10.8L522.8,211.4z"/>
		<path d="M515.3,233.2c-0.3-0.4-0.7-0.9-1.2-1.4c-0.4,0.8-1.1,1.6-1.9,2.3c-0.1-0.1-0.4-0.4-0.5-0.5c0.9-0.7,1.5-1.5,1.9-2.3
			c-0.5-0.5-1.1-1-1.7-1.5c0.3-0.8,0.5-2,0.7-3.2l-0.9,0l-0.1-0.7c0.3,0,0.7,0,1.1,0c0.1-0.9,0.3-1.8,0.3-2.6l0.7,0
			c-0.1,0.8-0.2,1.7-0.4,2.6l1.1-0.1v-0.9h0.7v0.8l0.6,0v0.7l-0.6,0c0,1.4-0.1,3-0.8,4.6c0.6,0.5,1,1,1.4,1.5L515.3,233.2z
			 M513.3,226.6c-0.2,1.1-0.4,2.1-0.6,3c0.4,0.3,0.8,0.7,1.2,1c0.6-1.4,0.7-2.9,0.7-4.1L513.3,226.6z M518.2,231.3
			c-0.4,1-1.2,2.1-2,2.7c-0.1-0.2-0.4-0.4-0.5-0.6c0.8-0.5,1.6-1.4,1.9-2.3L518.2,231.3z M519.5,230.7v3.5h-0.8v-3.5h-2.9V230h2.9
			v-1.1h-1.9v-3.6h-1.1v-0.7h1.1v-1.3h0.7v1.3h3v-1.3h0.8v1.3h1.1v0.7h-1.1v3.6h-1.8v1.1h2.9v0.7H519.5z M517.7,225.2v1.1h3v-1.1
			H517.7z M517.7,228.2h3V227h-3V228.2z M520.7,231.1c0.7,0.8,1.5,1.8,1.9,2.5l-0.6,0.3c-0.4-0.6-1.2-1.7-1.8-2.5L520.7,231.1z"/>
		<path d="M515.8,238.9h0.5v1.7h-0.6v4.7c0,0.4-0.1,0.5-0.3,0.7c-0.3,0.1-0.6,0.1-1.3,0.1c0-0.2-0.1-0.4-0.2-0.6c0.5,0,0.9,0,1,0
			c0.1,0,0.2,0,0.2-0.2v-1.7c-0.6,0.4-1.2,0.7-1.7,1l-0.3-0.6c0.5-0.2,1.3-0.6,2-1V241h-2v1.7c0,1.1-0.1,2.5-0.8,3.5
			c-0.1-0.1-0.4-0.4-0.6-0.4c0.6-0.9,0.7-2.2,0.7-3.1v-2h-0.6v-1.7h0.5v-3.3h3.5V238.9z M515.7,239.5h-3.2v0.8h3.2V239.5z
			 M513,238.9h0.8v-1.9h1.3v-0.8H513V238.9z M514.6,242.9c-0.3-0.3-0.9-0.8-1.3-1.1l0.4-0.4c0.5,0.3,1,0.7,1.3,1L514.6,242.9z
			 M515.2,238.9v-1.3h-0.8v1.3H515.2z M522.6,245.2v0.6h-6.2v-0.6h1.8c-0.1-0.4-0.3-0.8-0.4-1.2l0.6-0.2c0.2,0.4,0.4,1,0.5,1.4h1.2
			c0.2-0.4,0.4-1,0.5-1.4l0.7,0.2c-0.2,0.4-0.4,0.8-0.6,1.2H522.6z M522.5,241h-5.9v-0.6h5.9V241z M522.2,239.7h-5.3v-3.6h1.5v-0.9
			h0.7v0.9h0.9v-0.9h0.7v0.9h1.6V239.7z M517.2,243.8v-2.2h4.7v2.2H517.2z M517.5,237.6h1v-0.9h-1V237.6z M517.5,239.1h1v-0.9h-1
			V239.1z M517.9,243.2h3.3v-1.1h-3.3V243.2z M520,237.6v-0.9H519v0.9H520z M519,238.2v0.9h0.9v-0.9H519z M521.6,236.7h-1v0.9h1
			V236.7z M521.6,238.2h-1v0.9h1V238.2z"/>
	</g>
	<g class="st4">
		<path d="M472.6,168.5c-0.5-0.3-1.5-0.9-2.2-1.3l0.4-0.6c0.7,0.4,1.7,0.9,2.2,1.2L472.6,168.5z M470.8,173.4
			c0.6-0.9,1.6-2.5,2.3-3.9l0.6,0.5c-0.6,1.3-1.5,2.8-2.2,3.9L470.8,173.4z M471.5,163.4c0.7,0.4,1.7,1,2.2,1.3l-0.5,0.6
			c-0.5-0.4-1.5-1-2.2-1.4L471.5,163.4z M480.6,173.1c0,0.5-0.1,0.7-0.4,0.9c-0.3,0.1-0.9,0.1-1.8,0.1c0-0.2-0.1-0.5-0.3-0.8
			c0.7,0,1.3,0,1.5,0c0.2,0,0.2-0.1,0.2-0.2v-2.4c-1.5,0.4-3,0.8-4.2,1l-0.3-0.7c1.1-0.2,2.8-0.6,4.5-1v-2.7h-4.6v2.5
			c0,1.3-0.1,3.1-0.8,4.3c-0.1-0.1-0.4-0.4-0.6-0.5c0.6-1.1,0.7-2.6,0.7-3.8v-3.2h2.7v-3.4h0.8v3.4h2.6V173.1z M475.4,166.2
			c-0.2-0.6-0.7-1.6-1.2-2.3l0.7-0.3c0.5,0.7,1.1,1.6,1.3,2.2L475.4,166.2z M475.9,168.2c1.1,0.2,2.5,0.6,3.2,1l-0.3,0.6
			c-0.7-0.4-2.1-0.9-3.2-1.1L475.9,168.2z M481.1,163.9c-0.4,0.8-0.9,1.7-1.4,2.3l-0.7-0.3c0.4-0.6,1-1.6,1.3-2.3L481.1,163.9z"/>
		<path d="M474.9,184.7c-1,0.5-2.5,1.1-3.7,1.4c-0.1-0.2-0.4-0.5-0.6-0.6c1.2-0.3,2.7-0.7,3.5-1.1L474.9,184.7z M477.7,184.4
			c1.3,0.4,2.7,0.8,3.5,1.2l-0.6,0.5c-0.8-0.4-2.2-0.9-3.6-1.3l0.4-0.4h-5.3v-3.8c-0.3,0.1-0.7,0.2-1.1,0.3
			c-0.1-0.2-0.2-0.5-0.4-0.6c1.5-0.3,2.4-0.7,2.9-1.2h-2.1c0.1-0.5,0.2-1.2,0.3-1.8h2.4v-0.7h-3v-0.6h3v-0.7h0.7v0.7h1.9v-0.7h0.8
			v0.7h2.7v1.8h-2.7v0.8h3.4c0,0,0,0.2,0,0.3c-0.1,0.6-0.2,1-0.3,1.1c-0.1,0.1-0.3,0.2-0.6,0.2h-0.3v4.3H477.7z M472.4,177.7
			c0,0.3-0.1,0.5-0.1,0.8h1.7c0.1-0.2,0.2-0.5,0.2-0.8H472.4z M479.1,180.4h-6.1v0.8h6.1V180.4z M479.1,181.7h-6.1v0.8h6.1V181.7z
			 M472.9,183.8h6.1V183h-6.1V183.8z M474.6,179c-0.2,0.3-0.5,0.6-0.9,0.9h5.5c0-0.1-0.1-0.3-0.1-0.4c0.4,0,0.7,0,0.9,0
			c0.1,0,0.2,0,0.3-0.1c0.1-0.1,0.1-0.2,0.1-0.5h-2.6v0.8h-0.8V179H474.6z M476.9,177.7h-2c0,0.3-0.1,0.5-0.1,0.8h2.1V177.7z
			 M475,177.2h1.9v-0.7H475V177.2z M477.7,176.4v0.7h2v-0.7H477.7z"/>
		<path d="M481.5,187.4l-10.8,10.8l-0.3-0.3l10.8-10.8L481.5,187.4z"/>
		<path d="M474.7,209.2c0,0.5-0.1,0.7-0.4,0.8c-0.3,0.1-0.8,0.1-1.6,0.1c0-0.2-0.1-0.6-0.2-0.8c0.6,0,1.1,0,1.2,0
			c0.2,0,0.2-0.1,0.2-0.2v-3.1h-2c-0.1,1.4-0.3,2.9-0.9,4.1c-0.1-0.1-0.5-0.3-0.6-0.4c0.8-1.7,0.9-4.1,0.9-5.8v-4.3h3.4V209.2z
			 M473.9,205.3v-2.1H472v0.7c0,0.4,0,0.9,0,1.4H473.9z M472,200.4v2.1h1.9v-2.1H472z M481.1,203.9c-0.3,1.6-0.9,3-1.7,4
			c0.6,0.7,1.3,1.2,2.1,1.6c-0.2,0.1-0.4,0.4-0.5,0.6c-0.7-0.4-1.4-1-2-1.7c-0.6,0.6-1.2,1.2-1.9,1.6c-0.1-0.2-0.3-0.4-0.5-0.6
			c0.7-0.4,1.3-0.9,1.9-1.6c-0.7-1-1.2-2.2-1.6-3.4h-0.3v5.7h-0.8v-10.4h5v2.3c0,0.4-0.1,0.6-0.4,0.8c-0.4,0.1-0.9,0.1-1.8,0.1
			c0-0.2-0.2-0.5-0.3-0.7c0.8,0,1.4,0,1.5,0c0.2,0,0.2-0.1,0.2-0.2v-1.5h-3.5v3.3h4l0.1,0L481.1,203.9z M477.6,204.4
			c0.3,1,0.8,2,1.4,2.8c0.5-0.8,1-1.8,1.3-2.8H477.6z"/>
		<path d="M480.3,213.2c-0.3,0.8-0.8,1.5-1.5,2.1c0.8,0.5,1.7,0.9,2.7,1.1c-0.2,0.2-0.4,0.5-0.5,0.7c-1-0.3-2-0.7-2.8-1.3
			c-0.8,0.6-1.7,1-2.6,1.3c-0.1-0.1-0.2-0.3-0.3-0.5c-0.2,0.7-0.5,1.4-0.7,1.8l-0.6-0.3c0.3-0.5,0.5-1.3,0.7-2h-1.3v5.1
			c0,0.4-0.1,0.6-0.4,0.8c-0.3,0.1-0.7,0.1-1.5,0.1c0-0.2-0.1-0.5-0.3-0.7c0.5,0,1,0,1.2,0c0.1,0,0.2,0,0.2-0.2v-4.1
			c-0.5,1.2-1.1,2.4-1.8,3.1c-0.1-0.2-0.3-0.5-0.4-0.7c0.8-0.7,1.5-2.1,2-3.3h-1.9v-0.7h3.3c-0.6-0.6-1.7-1.3-2.7-1.7l0.5-0.5
			c0.4,0.2,0.8,0.4,1.2,0.6c0.5-0.4,1-0.8,1.4-1.3h-3.5v-0.7h4.1l0.1,0l0.5,0.3c-0.5,0.7-1.3,1.5-2,2c0.4,0.3,0.8,0.5,1,0.8
			l-0.4,0.5h0.9l0.1,0l0.5,0.2c-0.1,0.2-0.1,0.5-0.2,0.7c0.9-0.2,1.6-0.6,2.3-1c-0.5-0.5-1-1-1.3-1.5c-0.3,0.3-0.6,0.7-0.9,0.9
			c-0.2-0.1-0.5-0.4-0.7-0.5c0.9-0.7,1.8-1.8,2.3-2.9l0.8,0.2c-0.2,0.4-0.3,0.7-0.6,1.1h4.1v0.7H480.3z M481,217.9c0,0,0,0.2,0,0.3
			c-0.2,2.3-0.4,3.2-0.8,3.5c-0.2,0.2-0.4,0.3-0.7,0.3c-0.3,0-0.8,0-1.3,0c0-0.2-0.1-0.5-0.2-0.7c0.5,0.1,1,0.1,1.2,0.1
			c0.2,0,0.3,0,0.4-0.1c0.2-0.2,0.4-0.9,0.6-2.7H478c-0.4,1.5-1.2,2.8-3.2,3.5c-0.1-0.2-0.3-0.5-0.5-0.6c1.7-0.6,2.5-1.7,2.8-2.9h-2
			v-0.7h2.1c0.1-0.4,0.1-0.8,0.2-1.2h0.8c0,0.4-0.1,0.8-0.2,1.2H481z M476.8,213.2c0.3,0.6,0.8,1.2,1.4,1.6c0.5-0.4,0.9-1,1.2-1.6
			H476.8z"/>
	</g>
	<g class="st4">
		<path d="M433.6,166.9c-0.4-0.3-1.1-0.8-1.7-1.2c-0.4,0.6-1.1,1-2.3,1.3c-0.1-0.2-0.3-0.4-0.4-0.6c2.1-0.5,2.5-1.3,2.6-3.2h0.7
			c0,0.8-0.1,1.4-0.4,1.9c0.6,0.4,1.5,0.9,1.9,1.2L433.6,166.9z M430.6,165.1c-0.2-0.3-0.6-0.8-0.9-1.2l0.5-0.3
			c0.3,0.4,0.7,0.9,0.9,1.1L430.6,165.1z M439.4,167.1h0.3v2.1h-0.8v-1.5h-8.4v1.5h-0.8v-2.1H439.4c-0.6-0.4-1.6-1-2.4-1.4
			c-0.4,0.6-1.1,1-2.2,1.3c-0.1-0.2-0.3-0.5-0.4-0.6c2-0.5,2.5-1.3,2.6-3.1h0.7c0,0.7-0.2,1.4-0.4,1.9c0.9,0.4,1.9,1.1,2.5,1.5
			L439.4,167.1z M434.4,170.6c-0.1,0.3-0.3,0.5-0.4,0.7h4.9v2.8h-0.8v-0.3h-6.6v0.3h-0.8v-2.8h2.6c0.1-0.2,0.2-0.5,0.3-0.7h-2.2
			v-2.2h6.5v2.2H434.4z M438.1,172h-6.6v1.2h6.6V172z M432.2,170.1h4.9V169h-4.9V170.1z M434.5,164.1c-0.3,0.4-0.7,0.9-1.1,1.2
			l-0.5-0.2c0.3-0.3,0.7-0.9,0.9-1.2L434.5,164.1z M435.6,165c-0.2-0.3-0.6-0.8-0.9-1.2l0.5-0.4c0.3,0.4,0.7,0.9,0.9,1.1L435.6,165z
			 M439.8,164c-0.4,0.4-0.8,0.9-1.2,1.2l-0.5-0.3c0.3-0.3,0.8-0.9,1-1.3L439.8,164z"/>
		<path d="M432.3,181.1c-0.2,1-0.4,1.9-0.8,2.7c0.8,1.3,2.3,1.5,4.6,1.5c1.2,0,3-0.1,4.1-0.2c-0.1,0.2-0.2,0.5-0.3,0.8
			c-1.1,0.1-2.6,0.1-3.9,0.1c-2.4,0-4-0.3-4.9-1.6c-0.4,0.8-1,1.4-1.6,1.8c-0.1-0.2-0.4-0.5-0.5-0.6c1.2-0.8,2-2.1,2.4-4h-1.3
			c-0.3,0-0.6,0.1-0.7,0.2c0-0.2-0.2-0.6-0.3-0.7c0.2,0,0.4-0.1,0.6-0.4c0.3-0.3,1-1.3,1.5-2h-1.9V178h2.4l0.1-0.1l0.5,0.2
			c-0.5,0.7-1.4,2-2.1,2.8h1.5l0.1,0L432.3,181.1z M431.3,177.5c-0.3-0.5-1-1.3-1.5-1.9l0.6-0.3c0.6,0.6,1.2,1.3,1.5,1.8
			L431.3,177.5z M439.9,179.8h-7.4v-0.7h3.4v-1.6H434c-0.3,0.5-0.6,0.9-0.9,1.3c-0.2-0.1-0.5-0.3-0.7-0.4c0.7-0.7,1.3-1.9,1.7-3
			l0.7,0.2c-0.1,0.4-0.3,0.8-0.5,1.2h1.5v-1.5h0.8v1.5h2.8v0.7h-2.8v1.6h3.2V179.8z M433.5,184.1v-3.4h5.6v3.4H433.5z M434.2,183.5
			h4.1v-2.1h-4.1V183.5z"/>
		<path d="M440.1,194.6v0.7h-10.8v-0.7h1.2l-0.2-6.4c0.7-0.3,1.6-0.6,2.2-0.9l0.4,0.7c-0.6,0.2-1.2,0.5-1.9,0.7l0,1.5h1.7v0.7h-1.6
			l0.1,1.6h1.6v0.7h-1.6l0.1,1.6h6.9c0-0.4,0.1-1,0.1-1.5h-1.6v-0.7h1.7c0-0.5,0-1,0.1-1.6h-1.7v-0.7h1.7c0-0.6,0-1.1,0-1.6h-1.8
			v-0.7h2.5c0,2.1-0.1,5-0.2,6.7H440.1z M433.5,196c-1,0.8-2.4,1.6-3.6,2.1c-0.1-0.2-0.3-0.4-0.5-0.6c1.1-0.5,2.6-1.3,3.3-2
			L433.5,196z M434.5,191.8c-0.1,0.9-0.4,1.7-0.8,2.3c-0.1-0.1-0.4-0.3-0.6-0.4c0.4-0.5,0.6-1.3,0.7-2L434.5,191.8z M435.3,191.1
			h-1.9v-3.9h0.7v1.2h2v0.7h-2v1.4h1.6v0h0.3v3.2c0,0.3-0.1,0.5-0.3,0.6c-0.3,0.1-0.7,0.1-1.2,0.1c0-0.2-0.1-0.4-0.2-0.6
			c0.5,0,0.8,0,0.9,0c0.1,0,0.2,0,0.2-0.2V191.1z M436.3,195.5c1.3,0.6,2.7,1.4,3.5,2l-0.5,0.6c-0.8-0.6-2.2-1.4-3.4-2L436.3,195.5z
			"/>
		<path d="M432.7,203.5c-0.2,1.7-0.5,3-1,4.1c1.2,1.2,2.8,1.5,4.9,1.5c0.4,0,3,0,3.6,0c-0.1,0.2-0.3,0.5-0.3,0.7h-3.3
			c-2.2,0-4-0.3-5.3-1.5c-0.4,0.8-0.9,1.4-1.5,1.8c-0.1-0.2-0.4-0.4-0.6-0.5c0.6-0.5,1.2-1.1,1.6-1.9c-0.4-0.6-0.8-1.4-1.1-2.3
			l0.6-0.2c0.2,0.8,0.5,1.4,0.8,1.9c0.3-0.8,0.6-1.8,0.7-2.9h-1.5c-0.2,0.1-0.4,0.2-0.4,0.3c0-0.2-0.2-0.5-0.3-0.6
			c0.2,0,0.5-0.3,0.7-0.7c0.2-0.3,0.9-1.3,1.3-2.4h-2.1V200h2.4l0.3-0.1l0.5,0.3c-0.6,1.2-1.2,2.3-1.8,3.2h1.2l0.1,0L432.7,203.5z
			 M435.7,200.9h-2.3v-0.6h2.3v-1h0.8v1h2.7v1.6h0.9v0.6h-0.9v1.6h-2.7v1h3v0.6h-3v1h3.4v0.6h-3.4v1.3h-0.8v-1.3h-3v-0.6h3v-1h-2.5
			v-0.6h2.5v-1h-2.4v-0.6h2.4v-1h-3.1v-0.6h3.1V200.9z M436.4,200.9v1h2v-1H436.4z M438.4,202.5h-2v1h2V202.5z"/>
		<path d="M433.7,217.9c-0.3-0.4-0.9-1.4-1.4-2v6.3h-0.8v-6c-0.5,1.5-1.2,2.9-2,3.8c-0.1-0.2-0.3-0.6-0.5-0.7c0.9-1,1.9-2.9,2.3-4.6
			h-1.9v-0.8h2v-2.6h0.8v2.6h1.7v0.8h-1.7v0.3c0.4,0.5,1.7,1.9,2,2.3L433.7,217.9z M440.1,214.6h-1.2v6.5c0,0.6-0.2,0.8-0.5,1
			c-0.4,0.1-1.1,0.2-2.1,0.2c0-0.2-0.2-0.6-0.3-0.8c0.8,0,1.6,0,1.8,0c0.2,0,0.3-0.1,0.3-0.3v-5.4c-0.9,1.8-2.4,3.5-3.7,4.6
			c-0.1-0.2-0.4-0.5-0.6-0.6c1.5-1,3.1-3.1,4-5h-3.4v-0.8h3.6v-2.6h0.8v2.6h1.2V214.6z"/>
	</g>
	<g class="st4">
		<path d="M391.1,169.1c-0.2,1.1-0.4,2-0.8,2.7c0.8,1.3,2.3,1.5,4.6,1.5c1.2,0,3-0.1,4.1-0.2c-0.1,0.2-0.2,0.5-0.3,0.8
			c-1.1,0.1-2.6,0.1-3.9,0.1c-2.4,0-3.9-0.2-4.9-1.6c-0.4,0.8-1,1.3-1.6,1.8c-0.1-0.2-0.4-0.5-0.5-0.6c1.2-0.7,2-2.1,2.4-4h-1.4
			c-0.3,0-0.6,0.1-0.7,0.2c0-0.2-0.2-0.6-0.3-0.7c0.2,0,0.4-0.1,0.6-0.3c0.3-0.3,1-1.3,1.6-2h-2V166h2.5l0.1-0.1l0.5,0.3
			c-0.5,0.7-1.5,2-2.1,2.8h1.5l0.1,0L391.1,169.1z M390,165.5c-0.3-0.5-1-1.3-1.5-1.9l0.6-0.3c0.6,0.6,1.2,1.4,1.5,1.8L390,165.5z
			 M392.5,172.3h-0.7v-6.1h3.6c-0.8-0.4-1.6-0.8-2.4-1l0.5-0.5c0.5,0.2,1.1,0.4,1.7,0.7c0.6-0.3,1.3-0.6,1.8-1h-5.2v-0.6h5.9l0.2,0
			l0.5,0.4c-0.6,0.6-1.6,1.2-2.5,1.7c0.4,0.2,0.7,0.3,0.9,0.5h1.5v5.4c0,0.4-0.1,0.6-0.4,0.7c-0.3,0.1-0.8,0.1-1.6,0.1
			c0-0.2-0.1-0.5-0.2-0.6c0.6,0,1.1,0,1.3,0c0.2,0,0.2,0,0.2-0.2v-1.2h-2.3v2h-0.7v-2h-2.2V172.3z M392.5,166.8v1.1h2.2v-1.1H392.5z
			 M394.7,169.7v-1.2h-2.2v1.2H394.7z M397.6,166.8h-2.3v1.1h2.3V166.8z M397.6,169.7v-1.2h-2.3v1.2H397.6z"/>
		<path d="M392.4,177.9H388v-0.7h4.3V177.9z M391.9,185.4h-2.7v0.6h-0.6v-4h3.4V185.4z M388.5,179.4v-0.6h3.4v0.6H388.5z
			 M388.5,180.4h3.4v0.6h-3.4V180.4z M389.2,182.6v2.1h2.1v-2.1H389.2z M390.2,177.1c-0.2-0.4-0.5-1.1-0.9-1.6l0.6-0.3
			c0.3,0.5,0.7,1.1,0.9,1.5L390.2,177.1z M397.7,175.9c-0.1,5-0.1,9,0.6,9.2c0.1,0,0.2-0.7,0.2-1.6c0.1,0.2,0.4,0.4,0.5,0.6
			c-0.1,1.7-0.5,2.1-1,1.8c-1.2-0.4-1.1-4.2-1.1-9.2h-2.1v3.6h1.7v0.8h-1.7v5.1H394V181h-1.7v-0.8h1.7v-3.6h-1.5v-0.8H397.7z"/>
		<path d="M392.2,197.2c0,0.5-0.1,0.7-0.4,0.8c-0.3,0.1-0.8,0.1-1.6,0.1c0-0.2-0.1-0.6-0.2-0.8c0.6,0,1.1,0,1.2,0
			c0.2,0,0.2-0.1,0.2-0.2v-3.1h-2c-0.1,1.4-0.3,2.9-0.9,4.1c-0.1-0.1-0.5-0.3-0.6-0.4c0.8-1.7,0.9-4.1,0.9-5.8v-4.3h3.4V197.2z
			 M391.4,193.3v-2.1h-1.9v0.7c0,0.4,0,0.9,0,1.4H391.4z M389.5,188.4v2.1h1.9v-2.1H389.5z M398.6,191.9c-0.3,1.6-0.9,3-1.7,4
			c0.6,0.7,1.3,1.2,2.1,1.6c-0.2,0.1-0.4,0.4-0.5,0.6c-0.7-0.4-1.4-1-2-1.7c-0.6,0.6-1.2,1.2-1.9,1.6c-0.1-0.2-0.3-0.4-0.5-0.6
			c0.7-0.4,1.3-0.9,1.9-1.6c-0.7-1-1.2-2.2-1.6-3.4h-0.3v5.7h-0.8v-10.4h5v2.3c0,0.4-0.1,0.6-0.4,0.8c-0.4,0.1-0.9,0.1-1.8,0.1
			c0-0.2-0.2-0.5-0.3-0.7c0.8,0,1.4,0,1.5,0c0.2,0,0.2-0.1,0.2-0.2v-1.5h-3.5v3.3h4l0.1,0L398.6,191.9z M395.1,192.4
			c0.3,1,0.8,2,1.4,2.8c0.5-0.8,1-1.8,1.3-2.8H395.1z"/>
		<path d="M397.8,201.2c-0.3,0.8-0.8,1.5-1.5,2.1c0.8,0.5,1.7,0.9,2.7,1.1c-0.2,0.2-0.4,0.5-0.5,0.7c-1-0.3-2-0.7-2.8-1.3
			c-0.8,0.6-1.7,1-2.6,1.3c-0.1-0.1-0.2-0.3-0.3-0.5c-0.2,0.7-0.5,1.4-0.7,1.8l-0.6-0.3c0.3-0.5,0.5-1.3,0.7-2h-1.3v5.1
			c0,0.4-0.1,0.6-0.4,0.8c-0.3,0.1-0.7,0.1-1.5,0.1c0-0.2-0.1-0.5-0.3-0.7c0.5,0,1,0,1.2,0c0.1,0,0.2,0,0.2-0.2v-4.1
			c-0.5,1.2-1.1,2.4-1.8,3.1c-0.1-0.2-0.3-0.5-0.4-0.7c0.8-0.7,1.5-2.1,2-3.3H388v-0.7h3.3c-0.6-0.6-1.7-1.3-2.7-1.7l0.5-0.5
			c0.4,0.2,0.8,0.4,1.2,0.6c0.5-0.4,1-0.8,1.4-1.3h-3.5v-0.7h4.1l0.1,0l0.5,0.3c-0.5,0.7-1.3,1.5-2,2c0.4,0.3,0.8,0.5,1,0.8
			l-0.4,0.5h0.9l0.1,0l0.5,0.2c-0.1,0.2-0.1,0.5-0.2,0.7c0.9-0.2,1.6-0.6,2.3-1c-0.5-0.5-1-1-1.3-1.5c-0.3,0.3-0.6,0.7-0.9,0.9
			c-0.2-0.1-0.5-0.4-0.7-0.5c0.9-0.7,1.8-1.8,2.3-2.9l0.8,0.2c-0.2,0.4-0.3,0.7-0.6,1.1h4.1v0.7H397.8z M398.5,205.9
			c0,0,0,0.2,0,0.3c-0.2,2.3-0.4,3.2-0.8,3.5c-0.2,0.2-0.4,0.3-0.7,0.3c-0.3,0-0.8,0-1.3,0c0-0.2-0.1-0.5-0.2-0.7
			c0.5,0.1,1,0.1,1.2,0.1c0.2,0,0.3,0,0.4-0.1c0.2-0.2,0.4-0.9,0.6-2.7h-2.1c-0.4,1.5-1.2,2.8-3.2,3.5c-0.1-0.2-0.3-0.5-0.5-0.6
			c1.7-0.6,2.5-1.7,2.8-2.9h-2v-0.7h2.1c0.1-0.4,0.1-0.8,0.2-1.2h0.8c0,0.4-0.1,0.8-0.2,1.2H398.5z M394.3,201.2
			c0.3,0.6,0.8,1.2,1.4,1.6c0.5-0.4,0.9-1,1.2-1.6H394.3z"/>
	</g>
	<g class="st4">
		<path d="M349.7,169.1c-0.2,1-0.4,1.9-0.7,2.6c0.8,1.4,2.3,1.5,4.6,1.6c1.3,0,3,0,4.2-0.2c-0.1,0.2-0.2,0.5-0.3,0.8
			c-1.1,0.1-2.6,0.1-3.9,0.1c-2.5,0-4-0.2-5-1.6c-0.4,0.8-0.9,1.4-1.5,1.8c-0.1-0.2-0.4-0.4-0.5-0.6c1.1-0.8,1.9-2.1,2.3-4h-1.2
			c-0.3,0-0.6,0.1-0.7,0.2c0-0.2-0.2-0.6-0.3-0.7c0.2,0,0.4-0.1,0.6-0.3c0.3-0.3,1-1.3,1.5-2h-1.9V166h2.4l0.1-0.1l0.5,0.3
			c-0.5,0.7-1.4,2-2,2.8h1.3l0.1,0L349.7,169.1z M348.6,165.5c-0.3-0.5-0.9-1.3-1.4-1.9l0.6-0.3c0.5,0.6,1.1,1.4,1.4,1.8
			L348.6,165.5z M350.7,165.7h-0.7v-2.1h7.3v2.1h-0.8v-1.5h-5.7V165.7z M353.2,172.6v-1H350V171h3.2v-0.8h-2.6v-3.4h2.6V166h-2.3
			v-0.6h2.3v-0.6h0.8v0.6h2.4v0.6H354v0.8h2.7v3.4H354v0.8h3.4v0.6H354v1H353.2z M351.3,168.2h1.9v-0.9h-1.9V168.2z M353.2,169.6
			v-0.9h-1.9v0.9H353.2z M354,167.4v0.9h2v-0.9H354z M355.9,168.8h-2v0.9h2V168.8z"/>
		<path d="M349.4,184.1v2.1h-0.7v-2.1h-1.9v-0.7h1.9v-1h-1.6v-4.3h1.6v-0.9h-1.8v-0.7h1.8v-1.3h0.7v1.3h1.8v0.7h-1.8v0.9h1.5v4.3
			h-1.5v1h1.8v0.7H349.4z M347.8,180h1v-1.2h-1V180z M347.8,181.8h1v-1.2h-1V181.8z M350.3,178.8h-1v1.2h1V178.8z M350.3,180.6h-1
			v1.2h1V180.6z M354.4,185.3c0,0.3-0.1,0.5-0.3,0.6c-0.2,0.1-0.6,0.1-1.2,0.1c0-0.2-0.1-0.4-0.2-0.6c0.4,0,0.8,0,0.9,0
			c0.1,0,0.1,0,0.1-0.1v-1.6h-1.5c-0.1,0.8-0.3,1.7-0.7,2.4c-0.1-0.1-0.4-0.3-0.5-0.4c0.6-1.1,0.7-2.4,0.7-3.5v-2.5h2.7V185.3z
			 M355,175.4c-0.1,0.1-0.1,0.2-0.2,0.4c0.8,1.1,1.8,1.8,2.9,2.5c-0.2,0.2-0.4,0.4-0.5,0.6c-1.1-0.7-2-1.4-2.8-2.5
			c-0.7,1-1.7,1.9-2.7,2.5c-0.1-0.2-0.3-0.4-0.5-0.6c1.3-0.7,2.5-1.9,3.2-3.2L355,175.4z M353.8,183.1V182h-1.4v0.2
			c0,0.3,0,0.6,0,0.9H353.8z M352.4,180.3v1.1h1.4v-1.1H352.4z M356.1,178.7h-3.2v-0.6h3.2V178.7z M355.8,184.2h-0.6v-4.3h0.6V184.2
			z M356.6,179.5h0.6v5.7c0,0.4-0.1,0.6-0.3,0.7c-0.3,0.1-0.7,0.1-1.4,0.1c0-0.2-0.1-0.4-0.2-0.6c0.6,0,1,0,1.2,0
			c0.1,0,0.2,0,0.2-0.2V179.5z"/>
	</g>
	<g class="st4">
		<path d="M309.8,168.8v4.3c0,0.4-0.1,0.6-0.4,0.8c-0.3,0.1-0.7,0.1-1.5,0.1c0-0.2-0.1-0.5-0.2-0.7c0.5,0,1,0,1.1,0
			c0.1,0,0.2,0,0.2-0.2v-4.2l-2.1,0.3c0,1.6-0.1,3.7-1,5c-0.1-0.1-0.4-0.3-0.6-0.4c0.8-1.3,0.9-3,0.9-4.5l-0.8,0.1l-0.1-0.7
			c0.3,0,0.6-0.1,0.9-0.1v-3.9h1c0.2-0.5,0.3-1.1,0.4-1.5l0.8,0.2c-0.2,0.5-0.3,1-0.5,1.4h1.8v3.4l0.7-0.1l0,0.6L309.8,168.8z
			 M307,168.5c0.7-0.1,1.4-0.2,2.1-0.3v-2.9H307V168.5z M308.2,171.7c-0.2-0.5-0.6-1.3-0.9-1.9l0.5-0.2c0.3,0.6,0.7,1.4,0.9,1.8
			L308.2,171.7z M307.9,165.9c0.3,0.5,0.6,1.2,0.8,1.7l-0.5,0.2c-0.1-0.5-0.5-1.2-0.7-1.7L307.9,165.9z M315.4,173.2
			c0.1,0,0.2,0,0.3-0.1s0.1-0.2,0.1-0.3c0-0.2,0-0.7,0-1.3c0.2,0.1,0.4,0.3,0.6,0.3c0,0.6,0,1.2-0.1,1.4c-0.1,0.2-0.2,0.4-0.3,0.5
			c-0.1,0.1-0.3,0.1-0.6,0.1h-0.5c-0.2,0-0.5-0.1-0.6-0.2s-0.2-0.3-0.2-1.2v-4.7H312v2c0,1.4-0.2,3.1-1.4,4.3
			c-0.1-0.1-0.4-0.4-0.6-0.5c1.1-1.1,1.2-2.6,1.2-3.9v-2.7h3.6v5.5c0,0.3,0,0.5,0.1,0.5c0,0,0.1,0.1,0.2,0.1H315.4z M316,165.8h-5.6
			V165h2.4c-0.2-0.5-0.5-1.1-0.8-1.6l0.7-0.2c0.4,0.6,0.7,1.3,0.9,1.8h2.3V165.8z"/>
		<path d="M311.7,179.2c0.8,2.9,2.4,5.2,4.8,6.2c-0.2,0.2-0.5,0.5-0.6,0.7c-2.4-1.2-4-3.5-4.9-6.5c-0.3,1.3-0.7,2.5-1.5,3.7l0.3-0.2
			c0.9,0.7,1.9,1.7,2.4,2.3l-0.7,0.5c-0.5-0.6-1.4-1.6-2.3-2.3c-0.8,1-1.8,1.8-3.2,2.5c-0.1-0.2-0.4-0.5-0.6-0.7
			c3.2-1.3,4.4-3.8,4.8-6.2h-4.5v-0.8h4.7c0.1-1.2,0.1-2.3,0.1-3.2h0.9c0,0.9,0,2-0.2,3.2h5v0.8H311.7z"/>
		<path d="M316.2,196.6h-4.9v1.5h-0.8v-1.5h-4.8v-0.7h4.8v-1H307V191h3.5v-0.9h-3.2v-0.6h3.2v-1h-3.8v1.6H306v-2.3h10v2.3h-0.8v-1.6
			h-3.8v1h3.3v0.6h-3.3v0.9h3.6v3.9h-3.6v1h4.9V196.6z M307.8,192.7h2.7v-1.1h-2.7V192.7z M310.5,194.3v-1.1h-2.7v1.1H310.5z
			 M311.3,191.6v1.1h2.9v-1.1H311.3z M314.2,193.3h-2.9v1.1h2.9V193.3z"/>
		<path d="M316.3,208.4v0.8h-10.7v-0.8h4.9v-7h-4.3v-0.8h9.5v0.8h-4.4v7H316.3z"/>
	</g>
	<g class="st4">
		<path d="M271.1,169.5v0.6h2.9v4h-0.8v-0.5h-7v0.5h-0.7v-4h3v-0.6h-4.2V169h10.9v0.6H271.1z M264.9,164.1h-0.4v-0.5h5.2v0.5h-4.2
			v3.3c0,0.4,0.1,0.6,0.6,0.6h2.6c0.3,0,0.8,0,1-0.1c0,0.2,0,0.4,0.1,0.5c-0.2,0.1-0.6,0.1-1.1,0.1h-2.7c-0.9,0-1.2-0.3-1.2-1.2
			V164.1z M268,166.4L268,166.4c0.5,0.4,1.2,0.8,1.5,1.1l-0.4,0.4c-0.3-0.3-0.9-0.7-1.4-1c-0.2,0.4-0.7,0.8-1.5,1.1
			c-0.1-0.1-0.3-0.3-0.4-0.4c0.9-0.3,1.3-0.7,1.4-1.1h-1.5v-0.5h1.6v-0.1v-0.6h-0.8c-0.2,0.2-0.3,0.4-0.5,0.6
			c-0.1-0.1-0.3-0.2-0.5-0.3c0.4-0.4,0.7-0.9,0.9-1.3l0.5,0.1c0,0.1-0.1,0.3-0.2,0.4h2.4v0.5H268v0.6v0.1h1.6v0.5H268z M273.2,173.1
			v-1.4h-0.1h-1.6c-0.8,0-1-0.1-1-0.7v-0.4h-1.4c-0.1,0.6-0.7,1-2.4,1.3c-0.1-0.2-0.2-0.4-0.3-0.5c1.4-0.2,1.9-0.5,2.1-0.9h-2.2v2.5
			H273.2z M267.3,172.1h5v0.5h-5V172.1z M270.4,169.5h-1.3v0.6h1.3V169.5z M270.1,165.8c-0.1-0.1-0.3-0.4-0.4-0.5
			c0.9-0.4,1.1-0.8,1.1-1.2v-0.6h2.8v1.2c0,0.2,0,0.3,0.2,0.3h0.6c0.1,0,0.3,0,0.5,0c0,0.2,0,0.4,0,0.6c-0.1,0-0.3,0-0.5,0h-0.7
			c-0.6,0-0.7-0.2-0.7-0.9v-0.6h-1.5v0c0,0.6-0.2,1.2-1.2,1.6h3.4l0.1,0l0.4,0.2c-0.3,0.6-0.7,1.2-1.2,1.6c0.6,0.3,1.1,0.6,1.5,0.8
			l-0.3,0.5c-0.4-0.3-1-0.6-1.7-0.9c-0.7,0.4-1.4,0.7-2.1,0.9c-0.1-0.2-0.2-0.4-0.3-0.5c0.6-0.1,1.3-0.4,1.9-0.7
			c-0.5-0.3-1-0.5-1.5-0.7l0.3-0.4c0.5,0.2,1.1,0.5,1.7,0.8c0.4-0.3,0.7-0.6,0.9-0.9h-3L270.1,165.8L270.1,165.8z M271.1,170.6v0.4
			c0,0.2,0.1,0.3,0.4,0.3h1.4c0.1,0,0.2,0,0.2,0v-0.6H271.1z"/>
		<path d="M266.7,177v3.2c0,1.8-0.2,4.3-1.7,6c-0.1-0.2-0.4-0.4-0.6-0.5c0.9-1.1,1.3-2.5,1.4-3.8c-0.5,0.3-1,0.6-1.5,0.9l-0.3-0.7
			c0.5-0.2,1.1-0.6,1.8-0.9c0-0.3,0-0.6,0-0.9v-3.8h4.3c-0.1-0.3-0.2-0.7-0.3-1l0.8-0.2c0.2,0.3,0.3,0.8,0.4,1.1h4.1v0.7H266.7z
			 M265,179.9c-0.1-0.6-0.5-1.6-0.8-2.3l0.6-0.2c0.3,0.8,0.7,1.7,0.8,2.3L265,179.9z M274.7,179.3c-0.3,0.3-0.7,0.6-1,0.9
			c0.5,0.4,1,0.7,1.5,0.9c-0.2,0.1-0.4,0.4-0.5,0.6c-0.4-0.2-0.7-0.4-1.1-0.6v2.5h-2.3v1.9c0,0.4-0.1,0.6-0.4,0.7
			c-0.3,0.1-0.8,0.1-1.6,0.1c0-0.2-0.2-0.5-0.3-0.7c0.6,0,1.1,0,1.3,0c0.2,0,0.2,0,0.2-0.2v-1.9h-2.3V181c-0.3,0.2-0.7,0.4-1.1,0.6
			c-0.1-0.2-0.3-0.4-0.5-0.5c0.6-0.3,1.1-0.6,1.5-0.9c-0.3-0.3-0.6-0.6-1-0.8l0.4-0.4c0.3,0.2,0.7,0.5,1,0.8c0.3-0.3,0.6-0.6,0.8-1
			h-2.4v-0.6h2.7c0.2-0.4,0.3-0.7,0.4-1.1l0.8,0.1c-0.1,0.3-0.2,0.6-0.4,1h4.2v0.6h-2.6c0.3,0.4,0.6,0.7,0.9,1
			c0.3-0.3,0.7-0.7,0.9-0.9L274.7,179.3z M269.3,184c-0.6,0.6-1.3,1.4-1.9,1.9c-0.1-0.1-0.4-0.4-0.6-0.5c0.6-0.5,1.3-1.1,1.8-1.7
			L269.3,184z M273,180.8h-4v0.8h4V180.8z M273,182.1h-4v0.8h4V182.1z M272.8,180.3c-0.5-0.4-0.9-0.9-1.2-1.4h-1.2
			c-0.3,0.5-0.7,1-1.2,1.4H272.8z M273,183.7c0.6,0.6,1.5,1.3,1.9,1.8l-0.6,0.4c-0.4-0.5-1.2-1.3-1.9-1.9L273,183.7z"/>
		<path d="M267.8,187.5c-0.4,0.9-0.8,1.8-1.3,2.6v8.1h-0.8v-6.9c-0.4,0.6-0.9,1.1-1.3,1.6c-0.1-0.2-0.3-0.6-0.5-0.8
			c1.2-1.1,2.4-2.9,3.1-4.8L267.8,187.5z M270,194.6c-0.6,1-1.4,2.2-2.1,3c-0.1-0.1-0.4-0.4-0.6-0.5c0.7-0.7,1.5-1.8,2-2.7
			L270,194.6z M271.7,193.7v4.4h-0.8v-4.4h-3.5V193h3.5v-1.5h-2.7v-3.7h6.2v3.7h-2.7v1.5h3.4v0.7H271.7z M269,190.8h4.6v-2.3H269
			V190.8z M273,194.4c0.8,0.9,1.7,2,2.1,2.7l-0.6,0.4c-0.4-0.7-1.3-1.9-2.1-2.8L273,194.4z"/>
		<path d="M267,199.4c-0.2,0.8-0.5,1.6-0.8,2.4v8.3h-0.7v-6.8c-0.3,0.5-0.6,1-0.9,1.5c-0.1-0.2-0.3-0.6-0.4-0.8
			c0.9-1.2,1.7-2.9,2.2-4.7L267,199.4z M269.6,203.7c-0.2,1.7-0.5,3-0.9,4.1c1.2,1.3,2.7,1.5,4.4,1.5c0.3,0,1.6,0,2.1,0
			c-0.1,0.2-0.2,0.5-0.3,0.7H273c-1.8,0-3.5-0.3-4.7-1.5c-0.4,0.7-0.9,1.3-1.4,1.7c-0.1-0.2-0.4-0.4-0.5-0.5c0.6-0.4,1.1-1,1.5-1.8
			c-0.4-0.6-0.8-1.3-1-2.3l0.6-0.2c0.2,0.7,0.5,1.3,0.8,1.8c0.3-0.8,0.5-1.7,0.6-2.9h-1.4c-0.2,0.1-0.3,0.2-0.3,0.3
			c-0.1-0.1-0.2-0.5-0.3-0.6c0.2,0,0.5-0.4,0.7-0.7c0.2-0.3,0.8-1.3,1.2-2.4h-1.6v-0.7h1.9l0.3-0.1l0.5,0.3
			c-0.5,1.2-1.1,2.4-1.7,3.3h1l0.1,0L269.6,203.7z M271.6,200.8h-1.5v-0.6h1.5v-1h0.7v1h2v1.6h0.9v0.6h-0.9v1.6h-2v1h2.2v0.6h-2.2v1
			h2.6v0.7h-2.6v1.5h-0.7v-1.5h-2.1v-0.7h2.1v-1h-1.8v-0.6h1.8v-1h-1.5v-0.6h1.5v-1h-2.1v-0.6h2.1V200.8z M272.3,200.8v1h1.3v-1
			H272.3z M273.6,202.4h-1.3v1h1.3V202.4z"/>
	</g>
	<g class="st4">
		<path d="M227,170.3c-0.2-0.4-0.8-1.3-1.2-1.9v5.7h-0.8v-5.5c-0.5,1.3-1.2,2.5-1.8,3.3c-0.1-0.2-0.3-0.5-0.4-0.7
			c0.8-0.9,1.6-2.5,2.1-3.9H223v-0.7h2.1v-1.9c-0.6,0.1-1.2,0.2-1.7,0.3c0-0.2-0.1-0.4-0.2-0.6c1.3-0.2,2.9-0.6,3.8-1l0.5,0.6
			c-0.5,0.2-1,0.4-1.6,0.5v2.1h1.8v0.7h-1.8v0.2c0.4,0.4,1.4,1.8,1.7,2.1L227,170.3z M232.4,171v3.1h-0.8v-3l-4,0.6l-0.1-0.7
			l4.1-0.7v-7.1h0.8v7l1.4-0.2l0.1,0.7L232.4,171z M230.2,169.4c-0.4-0.5-1.4-1.3-2.1-1.8l0.5-0.5c0.8,0.5,1.7,1.2,2.2,1.7
			L230.2,169.4z M230.4,166.2c-0.4-0.5-1.2-1.2-1.9-1.7l0.5-0.5c0.7,0.5,1.6,1.1,2,1.6L230.4,166.2z"/>
		<path d="M225.4,181.6v3.5c0,0.5-0.1,0.7-0.4,0.8c-0.3,0.1-0.8,0.1-1.6,0.1c0-0.2-0.1-0.5-0.2-0.7c0.6,0,1.1,0,1.2,0
			c0.2,0,0.2-0.1,0.2-0.2v-3.2l-1.5,0.4l-0.2-0.8c0.5-0.1,1.1-0.3,1.7-0.5v-2.7h-1.6v-0.7h1.6v-2.4h0.8v2.4h1.3v0.7h-1.3v2.5
			l1.4-0.4l0.1,0.7L225.4,181.6z M233.2,179.9c-0.5,1.6-1.4,2.9-2.5,3.9c0.9,0.7,1.9,1.3,3.2,1.6c-0.2,0.2-0.4,0.5-0.5,0.7
			c-1.3-0.4-2.3-1-3.2-1.8c-1.1,0.8-2.2,1.4-3.5,1.8c-0.1-0.2-0.3-0.6-0.4-0.7c1.2-0.3,2.3-0.9,3.3-1.6c-0.9-0.9-1.5-2.1-2-3.4h-0.4
			v-0.7h2.6v-1.9h-2.9v-0.7h2.9v-1.9h0.8v1.9h2.9v0.7h-2.9v1.9h2l0.1,0L233.2,179.9z M228.4,180.4c0.4,1.1,1,2.1,1.8,2.9
			c0.9-0.8,1.6-1.7,2-2.9H228.4z"/>
	</g>
	<g class="st4">
		<path d="M187.9,163.4c-0.1,0.1-0.2,0.3-0.3,0.4c1.2,1.3,3.3,2.6,5.1,3.2c-0.2,0.2-0.4,0.5-0.6,0.7c-1.7-0.6-3.7-2-5-3.3
			c-0.8,0.9-1.8,1.8-3,2.4h6v0.7h-2.7v1.7h4.3v0.7h-4.3v3h4.8v0.7H182V173h4.7v-3h-4.2v-0.7h4.2v-1.7h-2.6v-0.7
			c-0.6,0.4-1.3,0.7-2,0.9c-0.1-0.2-0.3-0.5-0.5-0.7c2.2-0.7,4.4-2.2,5.6-4L187.9,163.4z M184.3,170.3c0.5,0.7,1,1.6,1.2,2.2
			l-0.7,0.3c-0.2-0.6-0.6-1.5-1.1-2.2L184.3,170.3z M188.7,172.5c0.4-0.6,1-1.6,1.3-2.2l0.8,0.3c-0.5,0.8-1,1.6-1.4,2.2L188.7,172.5
			z"/>
		<path d="M181.9,175.7h5.6v0.7h-5.6V175.7z M187.3,185.2c0,0.4-0.1,0.6-0.3,0.7c-0.2,0.1-0.6,0.1-1.3,0.1c0-0.2-0.1-0.5-0.2-0.6
			c0.5,0,0.9,0,1,0c0.1,0,0.2,0,0.2-0.2v-4.3h-3.9v5.2h-0.6v-5.8h5.2V185.2z M186.9,179.6h-4.4v-2.4h4.4V179.6z M185,183.4v2.4h-0.6
			v-2.4h-1.3v-0.6h1.7c0.3-0.5,0.6-1.2,0.8-1.7l0.5,0.2c-0.3,0.5-0.5,1.1-0.8,1.5h0.9v0.6H185z M186.2,177.8h-3v1.2h3V177.8z
			 M183.7,181.2c0.3,0.5,0.6,1.1,0.7,1.4l-0.5,0.2c-0.1-0.4-0.4-1-0.7-1.5L183.7,181.2z M192.1,186.1c0-0.3-0.1-0.6-0.2-1
			c-1.4,0.3-2.9,0.5-4,0.7l-0.2-0.7c0.6-0.1,1.3-0.2,2-0.3V182h-1.8v-4.4h1.8v-2.3h0.7v2.3h1.8v4.4h-1.8v2.7l1.2-0.2
			c-0.2-0.5-0.4-1.1-0.6-1.6l0.6-0.1c0.5,1,0.9,2.4,1,3.2L192.1,186.1z M188.5,181.3h1.2v-3h-1.2V181.3z M191.6,178.3h-1.2v3h1.2
			V178.3z"/>
	</g>
	<g class="st4">
		<path d="M147.2,164.9c-0.3,0.5-0.6,0.9-0.9,1.4v7.9h-0.9v-6.8c-1.2,1.4-2.7,2.7-4.4,3.6c-0.1-0.2-0.4-0.5-0.6-0.7
			c2.4-1.2,4.5-3.2,5.7-5.3h-5.4v-0.8h10.3v0.8H147.2z M147.2,166.9c1.4,0.9,3.3,2.2,4.1,3.2l-0.6,0.6c-0.9-0.9-2.7-2.3-4.1-3.2
			L147.2,166.9z"/>
		<path d="M151.1,178.4c-0.1,5-0.3,6.7-0.7,7.2c-0.2,0.3-0.4,0.4-0.8,0.4c-0.3,0-0.9,0-1.5,0c0-0.2-0.1-0.6-0.2-0.8
			c0.6,0,1.2,0.1,1.4,0.1c0.2,0,0.3,0,0.4-0.2c0.3-0.4,0.4-2,0.6-6.4h-1.8c-0.1,3.2-0.7,5.9-2.8,7.4c-0.1-0.2-0.4-0.4-0.6-0.6
			c0.2-0.2,0.4-0.3,0.6-0.5c-1.9,0.2-3.8,0.4-5.1,0.6l-0.1-0.7c0.7-0.1,1.6-0.2,2.6-0.3v-1.1h-2.3V183h2.3v-0.8h-2.3v-3.6h2.3v-0.8
			h-2.6v-0.6h2.6v-0.9c-0.8,0.1-1.6,0.1-2.3,0.1c0-0.2-0.1-0.4-0.2-0.6c1.8-0.1,4-0.3,5.2-0.6l0.4,0.6c-0.6,0.1-1.5,0.3-2.4,0.4v0.9
			h2.6v0.6h-2.6v0.8h2.4v3.6h-2.4v0.8h2.4v0.6h-2.4v1c0.8-0.1,1.6-0.2,2.4-0.3v0.1c1.1-1.5,1.4-3.4,1.5-5.7h-1.5V178h1.5
			c0-0.9,0-1.8,0-2.7h0.8c0,0.9,0,1.8,0,2.7h2.6V178.4z M141.5,180.2h1.6v-0.9h-1.6V180.2z M143.1,181.7v-0.9h-1.6v0.9H143.1z
			 M143.8,179.2v0.9h1.7v-0.9H143.8z M145.5,180.7h-1.7v0.9h1.7V180.7z"/>
		<path d="M142.2,192v1.9c0,1.3-0.2,3.1-1.3,4.3c-0.1-0.2-0.4-0.4-0.6-0.5c1-1.1,1.1-2.6,1.1-3.8v-2.6h1.5c-0.1-0.1-0.3-0.3-0.4-0.4
			c1-0.2,2.1-0.4,3.1-0.7c-0.9-0.3-1.9-0.5-2.8-0.7l0.5-0.4h-1.9v-0.7h4.5c-0.2-0.3-0.5-0.6-0.7-0.9l0.6-0.3
			c0.3,0.3,0.7,0.9,0.9,1.2h4v0.7H149l0.4,0.3c-0.5,0.3-1.2,0.6-1.9,0.8c0.9,0.3,1.7,0.6,2.4,0.8l-0.4,0.4h1.7v0.7H142.2z
			 M151.4,197v0.7h-8.9V197h4v-1.3h-2.8v-0.7h2.8v-1.2h-2.6c-0.3,0.6-0.7,1.1-1.1,1.5c-0.1-0.1-0.3-0.5-0.4-0.6
			c0.7-0.6,1.3-1.6,1.6-2.6l0.7,0.2c-0.1,0.3-0.2,0.6-0.4,0.9h2.2v-1.1h0.8v1.1h3.3v0.7h-3.3v1.2h3v0.7h-3v1.3H151.4z M149.2,191.3
			c-0.7-0.3-1.6-0.6-2.6-0.9c-1.1,0.4-2.3,0.6-3.3,0.9H149.2z M143.5,189c1,0.2,2.1,0.5,3.1,0.9c0.8-0.3,1.5-0.6,2-0.9H143.5z"/>
	</g>
	<g class="st4">
		<path d="M103.4,163.8c-0.9,2-2.2,3.9-3.5,5.1c-0.2-0.2-0.5-0.5-0.7-0.6c1.4-1.1,2.6-2.9,3.4-4.7L103.4,163.8z M106.8,169.6
			c1,1.3,2.1,3,2.7,4l-0.8,0.4c-0.2-0.3-0.4-0.7-0.6-1.1c-6.3,0.4-6.9,0.5-7.4,0.6c0-0.2-0.2-0.6-0.3-0.8c0.3-0.1,0.6-0.5,1.1-1.1
			c0.5-0.5,2-2.7,3.1-4.8l0.9,0.4c-1.1,1.9-2.3,3.8-3.6,5.3l5.7-0.3c-0.5-0.8-1.1-1.6-1.5-2.3L106.8,169.6z M107,163.5
			c0.6,2,1.8,3.8,3.2,4.7c-0.2,0.2-0.5,0.5-0.6,0.7c-1.4-1-2.5-2.8-3.2-4.6h-2.3v-0.8H107z"/>
		<path d="M109.3,185c0,0.6-0.2,0.8-0.5,0.9c-0.4,0.1-1.1,0.1-2.2,0.1c0-0.2-0.2-0.6-0.3-0.8c0.9,0,1.7,0,1.9,0
			c0.2,0,0.3-0.1,0.3-0.3v-2.6h-3.3v3.6h-0.8v-3.6h-3.1c-0.2,1.3-0.6,2.7-1.5,3.8c-0.1-0.2-0.4-0.4-0.6-0.5c1.3-1.5,1.5-3.6,1.5-5.3
			v-4.3h8.7V185z M104.3,181.7v-2.1h-3v0.8c0,0.4,0,0.9,0,1.3H104.3z M101.4,176.8v2h3v-2H101.4z M108.5,176.8h-3.3v2h3.3V176.8z
			 M108.5,181.7v-2.1h-3.3v2.1H108.5z"/>
		<path d="M110.1,194.7h-1.2v2.1H108v-0.5h-3v0.9c0,0.5-0.2,0.7-0.5,0.9c-0.4,0.1-1,0.1-2,0.1c0-0.2-0.2-0.5-0.3-0.7
			c0.8,0,1.5,0,1.7,0c0.2,0,0.3-0.1,0.3-0.3v-0.9h-3.9v-0.6h3.9v-1h-4.9v-0.6h4.9v-0.9h-3.8v-0.6h3.8v-0.9h-3.5v-2.1h3.5v-0.7h-4.7
			v-0.7h4.7v-1h0.8v1h4.8v0.7H105v0.7h3.6v2.1H105v0.9h3.8v1.5h1.2V194.7z M104.2,191.1v-0.9h-2.7v0.9H104.2z M105,190.2v0.9h2.8
			v-0.9H105z M105,194.1h3v-0.9h-3V194.1z M108,194.7h-3v1h3V194.7z"/>
		<path d="M103.6,208.2c-0.9,0.6-2.5,1.2-3.7,1.5c-0.1-0.2-0.3-0.5-0.5-0.6c1.2-0.2,2.8-0.7,3.6-1.2L103.6,208.2z M109.9,206.6v0.7
			h-4.8v2.9h-0.8v-2.9h-4.8v-0.7h4.8v-1h-3.6V205h3.6v-0.9H100v-0.6h2.7c-0.1-0.4-0.4-0.8-0.6-1.2l0.6-0.2h-3.1v-0.7h2
			c-0.2-0.5-0.6-1.2-1-1.8l0.7-0.2c0.4,0.6,0.9,1.3,1.1,1.8l-0.6,0.2h1.5v-2.2h0.7v2.2h1.5v-2.2h0.8v2.2h1.5l-0.5-0.2
			c0.3-0.5,0.7-1.3,1-1.8l0.8,0.2c-0.3,0.6-0.7,1.3-1.1,1.8h1.9v0.7h-3.1l0.7,0.2c-0.3,0.4-0.6,0.9-0.9,1.2h2.8v0.6h-4.4v0.9h3.8
			v0.6h-3.8v1H109.9z M102.8,202c0.3,0.4,0.6,0.9,0.7,1.2l-0.5,0.1h3.3l-0.4-0.1c0.3-0.3,0.6-0.9,0.7-1.2H102.8z M106.3,207.8
			c1.2,0.4,2.7,0.9,3.6,1.3l-0.5,0.5c-0.8-0.4-2.4-1-3.5-1.4L106.3,207.8z"/>
	</g>
	<g class="st4">
		<path d="M61.6,163.5c-0.4,0.9-0.8,1.8-1.3,2.6v8.1h-0.8v-6.9c-0.4,0.6-0.9,1.1-1.3,1.6c-0.1-0.2-0.3-0.6-0.5-0.8
			c1.2-1.1,2.4-2.9,3.1-4.8L61.6,163.5z M63.7,170.6c-0.6,1-1.4,2.2-2.1,3c-0.1-0.1-0.4-0.4-0.6-0.5c0.7-0.7,1.5-1.8,2-2.7
			L63.7,170.6z M65.4,169.7v4.4h-0.8v-4.4h-3.5V169h3.5v-1.5H62v-3.7h6.2v3.7h-2.7v1.5h3.4v0.7H65.4z M62.7,166.8h4.6v-2.3h-4.6
			V166.8z M66.7,170.4c0.8,0.9,1.7,2,2.1,2.7l-0.6,0.4c-0.4-0.7-1.3-1.9-2.1-2.8L66.7,170.4z"/>
		<path d="M61.6,176c-0.3,1-0.8,2.1-1.2,3.1c0.8,1,1,1.9,1,2.6c0,0.6-0.1,1.1-0.4,1.4c-0.2,0.1-0.4,0.2-0.6,0.2c-0.2,0-0.5,0-0.8,0
			c0-0.2-0.1-0.5-0.2-0.7c0.3,0,0.5,0,0.7,0c0.1,0,0.3,0,0.4-0.1c0.2-0.1,0.2-0.5,0.2-0.9c0-0.7-0.2-1.5-1.1-2.5
			c0.3-0.9,0.7-1.9,0.9-2.7h-1.5v9.7h-0.7v-10.4H61l0.1,0L61.6,176z M63.7,182.8c-0.1,0.3-0.2,0.6-0.3,0.9c0.5,0.3,1.1,0.8,1.4,1.1
			l-0.4,0.5c-0.3-0.3-0.8-0.7-1.3-1.1c-0.5,0.8-1.1,1.4-1.8,1.9c-0.1-0.1-0.4-0.4-0.6-0.5c1.1-0.7,1.9-1.7,2.3-3L63.7,182.8z
			 M65.5,175.4c-0.1,0.1-0.2,0.3-0.3,0.4c0.9,0.8,2.4,1.7,3.7,2.1c-0.1,0.2-0.3,0.5-0.4,0.7c-1.2-0.5-2.7-1.4-3.7-2.3
			c-0.8,0.9-1.8,1.8-3,2.4c-0.1-0.2-0.4-0.4-0.5-0.5c1.5-0.8,2.7-2,3.4-3.1L65.5,175.4z M61.9,179.5h2.7v2.9h-2.7V179.5z
			 M62.6,181.7H64v-1.7h-1.4V181.7z M66.8,178.6h-3.6v-0.6h3.6V178.6z M67.1,182.7c-0.1,0.4-0.2,0.7-0.3,1.1
			c0.8,0.5,1.7,1.2,2.1,1.6l-0.5,0.6c-0.4-0.4-1.2-1.1-1.9-1.6c-0.4,0.7-0.9,1.3-1.5,1.7c-0.1-0.1-0.4-0.4-0.5-0.5
			c1-0.6,1.6-1.7,1.9-3L67.1,182.7z M68.1,182.3h-2.7v-2.9h2.7V182.3z M67.4,180.1H66v1.7h1.4V180.1z"/>
	</g>
	<g class="st4">
		<path d="M30.8,28.8c-0.2,1-0.4,1.9-0.7,2.6c0.8,1.4,2.3,1.5,4.7,1.6c1.2,0,3,0,4.2-0.2c-0.1,0.2-0.2,0.5-0.3,0.8
			c-1.1,0.1-2.6,0.1-3.9,0.1c-2.5,0-4-0.2-5-1.6c-0.4,0.8-0.9,1.4-1.5,1.8c-0.1-0.2-0.4-0.4-0.5-0.6c1.1-0.8,1.9-2.1,2.3-4h-1.2
			c-0.3,0-0.6,0.1-0.7,0.2c0-0.2-0.2-0.6-0.3-0.7c0.2,0,0.4-0.1,0.6-0.3c0.3-0.3,1-1.3,1.5-2.1h-1.9v-0.7h2.4l0.1-0.1l0.5,0.3
			c-0.5,0.7-1.4,2-2.1,2.8h1.3l0.1,0L30.8,28.8z M29.8,25.3c-0.3-0.5-0.9-1.3-1.4-1.9L29,23c0.5,0.6,1.1,1.4,1.4,1.9L29.8,25.3z
			 M32.2,32.3h-0.7v-5.2h0.9v-3.7h4.9v3.7h1v4.4c0,0.4-0.1,0.6-0.4,0.7c-0.3,0.1-0.7,0.1-1.5,0.1c0-0.2-0.1-0.5-0.2-0.6
			c0.5,0,1,0,1.1,0c0.1,0,0.2,0,0.2-0.2v-3.7h-5.3V32.3z M33.1,27.1h1.3v-2h2.2v-1h-3.4V27.1z M36.4,31.1h-2.5v0.5h-0.6v-3h3.1V31.1
			z M35.8,29.1h-1.8v1.4h1.8V29.1z M36.5,27.1v-1.5H35v1.5H36.5z"/>
		<path d="M44.8,28.8c-0.8,1.3-1.8,2.6-2.7,3.6l6.1-0.4c-0.5-0.7-1.1-1.5-1.7-2.2l0.7-0.3c1.1,1.2,2.3,2.8,2.8,3.8l-0.8,0.4
			c-0.2-0.3-0.4-0.7-0.6-1.1c-6.6,0.5-7.2,0.6-7.7,0.7c0-0.2-0.2-0.6-0.3-0.8c0.3,0,0.5-0.3,0.9-0.8c0.3-0.4,1.4-1.7,2.2-3.1H40V28
			h4.9v-2.3h-4v-0.8h4V23h0.8v1.9h4.1v0.8h-4.1V28h5v0.8H44.8z"/>
		<path d="M59.2,30.6h-1.4V33h-0.9v-2.4h-4.4v-0.6l4.2-5.7h1.2v5.6h1.4V30.6z M56.8,29.8v-3.1c0-0.5,0-1,0-1.6h0
			c-0.3,0.5-0.6,1-0.9,1.5l-2.4,3.2H56.8z"/>
		<path d="M61.8,28.6c0-3,1.3-4.5,3.2-4.5s3.2,1.5,3.2,4.5c0,3-1.3,4.6-3.2,4.6S61.8,31.6,61.8,28.6z M67.3,28.6
			c0-2.6-0.9-3.7-2.2-3.7c-1.3,0-2.2,1.1-2.2,3.7c0,2.6,0.9,3.8,2.2,3.8C66.3,32.3,67.3,31.2,67.3,28.6z"/>
		<path d="M81,31.1h-4.4v2.8h-0.8v-2.8h-5.6v-0.8h2v-3.2h3.6v-1.9h-3c-0.6,0.9-1.2,1.8-1.9,2.4c-0.2-0.1-0.5-0.4-0.7-0.5
			c1.2-1,2.2-2.5,2.8-4.2l0.8,0.2c-0.2,0.4-0.4,0.9-0.6,1.3h7.2v0.8h-3.8v1.9h3.6v0.8h-3.6v2.5H81V31.1z M75.8,30.4v-2.5H73v2.5
			H75.8z"/>
		<path d="M91.3,24.6c-0.7,1.1-1.8,2.1-3,2.9c1.5,0.8,3.1,1.4,4.8,1.8c-0.2,0.2-0.4,0.5-0.5,0.7c-1.8-0.4-3.5-1.1-5-2
			c-1.7,1-3.5,1.7-5.3,2.1c-0.1-0.2-0.3-0.6-0.4-0.7c1.6-0.3,3.4-1,5-1.8c-0.8-0.5-1.5-1.2-2.1-1.8c-0.6,0.6-1.3,1.1-2,1.5
			c-0.1-0.1-0.4-0.4-0.6-0.6c1.5-0.8,2.9-2.2,3.8-3.7l0.7,0.3c-0.2,0.4-0.5,0.8-0.8,1.1h4.5l0.1,0L91.3,24.6z M84,29.7h7v4.2h-0.8
			v-0.5h-5.4V34H84V29.7z M84.8,30.4v2.3h5.4v-2.3H84.8z M85.4,25.1c0.6,0.7,1.4,1.3,2.3,1.9c0.9-0.6,1.8-1.3,2.4-2.1h-4.5
			L85.4,25.1z"/>
		<path d="M95.9,27.8v1.9c0,1.3-0.2,3.1-1.3,4.3c-0.1-0.2-0.4-0.4-0.6-0.5c1-1.1,1.1-2.6,1.1-3.8v-2.6h1.5c-0.1-0.1-0.3-0.3-0.4-0.4
			c1-0.2,2.1-0.4,3.1-0.7c-0.9-0.3-1.9-0.5-2.8-0.7l0.5-0.4h-1.9v-0.7h4.5c-0.2-0.3-0.5-0.6-0.7-0.9l0.6-0.3
			c0.3,0.3,0.7,0.9,0.9,1.2h4v0.7h-1.8l0.4,0.3c-0.5,0.3-1.2,0.6-1.9,0.8c0.9,0.3,1.7,0.6,2.4,0.8l-0.4,0.4h1.7v0.7H95.9z M105,32.8
			v0.7h-8.9v-0.7h4v-1.3h-2.8v-0.7h2.8v-1.2h-2.6c-0.3,0.6-0.7,1.1-1.1,1.5c-0.1-0.1-0.3-0.5-0.4-0.6c0.7-0.6,1.3-1.6,1.6-2.6
			l0.7,0.2c-0.1,0.3-0.2,0.6-0.4,0.9h2.2V28h0.8V29h3.3v0.7h-3.3v1.2h3v0.7h-3v1.3H105z M102.9,27.1c-0.7-0.3-1.6-0.6-2.6-0.9
			c-1.1,0.4-2.3,0.6-3.3,0.9H102.9z M97.2,24.8c1,0.2,2.1,0.5,3.1,0.9c0.8-0.3,1.5-0.6,2-0.9H97.2z"/>
		<path d="M110.5,32c-0.9,0.6-2.5,1.2-3.7,1.5c-0.1-0.2-0.3-0.5-0.5-0.6c1.2-0.2,2.8-0.7,3.6-1.2L110.5,32z M116.8,30.4V31H112v2.9
			h-0.8V31h-4.8v-0.7h4.8v-1h-3.6v-0.6h3.6v-0.9h-4.3v-0.6h2.7c-0.1-0.4-0.4-0.8-0.6-1.2l0.6-0.2h-3.1v-0.7h2
			c-0.2-0.5-0.6-1.2-1-1.8l0.7-0.2c0.4,0.6,0.9,1.3,1.1,1.8l-0.6,0.2h1.5V23h0.7v2.2h1.5V23h0.8v2.2h1.5l-0.5-0.2
			c0.3-0.5,0.7-1.3,1-1.8l0.8,0.2c-0.3,0.6-0.7,1.3-1.1,1.8h1.9v0.7h-3.1l0.7,0.2c-0.3,0.4-0.6,0.9-0.9,1.2h2.8v0.6H112v0.9h3.8v0.6
			H112v1H116.8z M109.7,25.8c0.3,0.4,0.6,0.9,0.7,1.2l-0.5,0.1h3.3l-0.4-0.1c0.3-0.3,0.6-0.9,0.7-1.2H109.7z M113.2,31.6
			c1.2,0.4,2.7,0.9,3.6,1.3l-0.5,0.5c-0.8-0.4-2.4-1-3.5-1.4L113.2,31.6z"/>
		<path d="M128.9,29.7h-5v4.2h-0.8v-4.2h-4.9v-0.8h4.9v-4.3h-4.3v-0.8h9.4v0.8H124v4.3h5V29.7z M120.4,25.2c0.5,0.9,1,2,1.2,2.7
			l-0.8,0.3c-0.2-0.7-0.7-1.9-1.1-2.8L120.4,25.2z M125.3,28c0.5-0.8,1-2,1.3-2.9l0.8,0.3c-0.4,1-1,2.1-1.5,2.9L125.3,28z"/>
		<path d="M132.6,30.6c0.5-0.2,1-0.5,1.5-0.7l0.2,0.7c-1.4,0.7-2.9,1.4-4,1.9l-0.3-0.8c0.5-0.2,1.1-0.5,1.8-0.8v-4.2h-1.6V26h1.6
			v-2.8h0.8V26h1.4v0.8h-1.4V30.6z M140.8,25.4c-0.2,5.6-0.4,7.5-0.9,8c-0.3,0.3-0.5,0.4-0.9,0.5c-0.4,0-1.2,0-1.9,0
			c0-0.2-0.1-0.6-0.3-0.8c0.8,0.1,1.6,0.1,1.9,0.1c0.2,0,0.4,0,0.5-0.2c0.4-0.4,0.6-2.3,0.8-7.2h-4.4c-0.5,0.9-1,1.6-1.5,2.3
			c-0.2-0.1-0.5-0.3-0.7-0.5c1-1.1,1.9-2.8,2.4-4.5l0.8,0.2c-0.2,0.6-0.4,1.2-0.7,1.8h4.8V25.4z M134.7,30.3h4.1V31h-4.1V30.3z
			 M138.6,27.5v0.7H135v-0.7H138.6z"/>
		<path d="M151.3,24.6c-0.7,1.1-1.8,2.1-3,2.9c1.5,0.8,3.1,1.4,4.8,1.8c-0.2,0.2-0.4,0.5-0.5,0.7c-1.8-0.4-3.5-1.1-5-2
			c-1.7,1-3.5,1.7-5.3,2.1c-0.1-0.2-0.3-0.6-0.4-0.7c1.6-0.3,3.4-1,5-1.8c-0.8-0.5-1.5-1.2-2.1-1.8c-0.6,0.6-1.3,1.1-2,1.5
			c-0.1-0.1-0.4-0.4-0.6-0.6c1.5-0.8,2.9-2.2,3.8-3.7l0.7,0.3c-0.2,0.4-0.5,0.8-0.8,1.1h4.5l0.1,0L151.3,24.6z M144,29.7h7v4.2h-0.8
			v-0.5h-5.4V34H144V29.7z M144.8,30.4v2.3h5.4v-2.3H144.8z M145.4,25.1c0.6,0.7,1.4,1.3,2.3,1.9c0.9-0.6,1.8-1.3,2.4-2.1h-4.5
			L145.4,25.1z"/>
		<path d="M156.9,28.8c-0.1,1-0.4,1.9-0.7,2.7c0.8,1.3,2.4,1.5,4.7,1.5c1.3,0,3,0,4.2-0.2c-0.1,0.2-0.2,0.5-0.3,0.8
			c-1.1,0.1-2.6,0.1-3.9,0.1c-2.5,0-4-0.2-5-1.6c-0.4,0.8-0.9,1.4-1.4,1.8c-0.1-0.2-0.4-0.4-0.5-0.5c1-0.8,1.8-2.1,2.1-4H155
			c-0.3,0-0.6,0.1-0.7,0.2c0-0.2-0.2-0.6-0.3-0.7c0.2,0,0.3-0.1,0.5-0.3c0.2-0.3,0.9-1.3,1.3-2.1h-1.7v-0.7h2.1l0.1-0.1l0.5,0.2
			c-0.4,0.7-1.2,2-1.8,2.8h1.3l0.1,0L156.9,28.8z M156,25.3c-0.3-0.5-0.9-1.3-1.4-1.9l0.6-0.3c0.5,0.6,1.1,1.4,1.4,1.9L156,25.3z
			 M164.8,25.8h-7.6v-0.6h2.1c0.1-0.3,0.2-0.6,0.3-0.9h-1.8v-0.6h2c0.1-0.3,0.2-0.5,0.2-0.8l0.8,0.1c-0.1,0.2-0.1,0.4-0.2,0.7h3v1.5
			h1.2V25.8z M161,32.7v-1.2h-3.4c0.2-0.4,0.4-1.1,0.6-1.6h-0.7v-0.6h3.5v-0.7H158v-2.1h5.8v2.1h-2.1v0.7h2.7v0.6h-2.7v1h3v0.6h-3
			v1.2H161z M161,30.9v-1h-2.2c-0.1,0.3-0.2,0.7-0.3,1H161z M158.8,28h4.3v-1h-4.3V28z M160.4,24.3c-0.1,0.3-0.2,0.7-0.3,0.9h2.7
			v-0.9H160.4z"/>
		<path d="M167.6,30.8c-0.2,1-0.5,2.1-0.8,2.9c-0.2-0.1-0.5-0.2-0.7-0.3c0.3-0.7,0.6-1.8,0.8-2.8L167.6,30.8z M170.4,30
			c0-0.2-0.1-0.4-0.2-0.7c-3.2,0.5-3.6,0.6-3.8,0.7c0-0.2-0.2-0.5-0.3-0.8c0.3,0,0.6-0.3,1-0.7c0.2-0.2,0.7-0.8,1.3-1.5
			c-1.6,0.2-1.9,0.3-2,0.3c0-0.2-0.2-0.6-0.3-0.8c0.2,0,0.5-0.3,0.7-0.6c0.3-0.4,1.3-1.7,1.9-3l0.7,0.3c-0.6,1.2-1.4,2.3-2.2,3.2
			l1.7-0.2c0.3-0.5,0.7-1,1-1.5l0.7,0.4c-0.9,1.4-2,2.7-3,3.7l2.4-0.3c-0.1-0.4-0.3-0.8-0.4-1.2l0.6-0.2c0.3,0.8,0.7,1.8,0.8,2.4
			L170.4,30z M169,30.5c0.2,0.9,0.3,1.9,0.4,2.6l-0.7,0.2c0-0.7-0.2-1.8-0.4-2.6L169,30.5z M170.4,30.3c0.3,0.7,0.6,1.7,0.8,2.3
			l-0.6,0.2c-0.1-0.6-0.5-1.6-0.7-2.3L170.4,30.3z M176.6,25.6c-0.2,5.4-0.3,7.2-0.8,7.7c-0.3,0.3-0.5,0.4-0.9,0.5
			c-0.4,0-1.1,0-1.7,0c0-0.2-0.1-0.6-0.3-0.8c0.8,0.1,1.4,0.1,1.7,0.1c0.2,0,0.4,0,0.5-0.2c0.4-0.4,0.5-2.2,0.7-6.9h-3.5
			c-0.3,0.7-0.6,1.3-1,1.8c-0.1-0.1-0.5-0.3-0.7-0.4c0.8-1,1.5-2.7,1.9-4.3l0.8,0.2c-0.2,0.7-0.4,1.4-0.7,2.1h4V25.6z M174,30.7
			c-0.4-0.7-1.3-1.9-2.1-2.7l0.6-0.4c0.8,0.8,1.7,1.9,2.1,2.6L174,30.7z"/>
		<path d="M188.9,31.3H184v2.6h-0.8v-2.6h-4.9v-0.7h4.9v-1h0.8v1h4.9V31.3z M181.4,28.2c-0.9,0.5-1.9,1-2.7,1.4l-0.4-0.6
			c0.7-0.3,1.9-0.9,2.9-1.4L181.4,28.2z M185.5,29.7c-0.1-0.2-0.2-0.4-0.3-0.6c-3.2,0.3-3.6,0.4-3.8,0.5c0-0.2-0.1-0.5-0.2-0.7
			c0.3,0,0.6-0.3,1-0.6c0.2-0.2,0.8-0.7,1.4-1.3c-1.5,0.1-1.7,0.2-1.9,0.3c0-0.2-0.2-0.5-0.2-0.7c0.2,0,0.3-0.2,0.5-0.4
			c0.2-0.2,0.6-0.7,1-1.3h-4.4v-0.7h5c-0.2-0.3-0.4-0.7-0.6-1l0.8-0.2c0.3,0.4,0.6,0.9,0.7,1.2h4.5v0.7h-5.1
			c-0.4,0.6-0.8,1.1-1.2,1.5l1.6-0.1c0.3-0.3,0.6-0.7,0.8-1l0.7,0.4c-1,1.1-2.1,2.2-3.1,3.1l2.3-0.2c-0.2-0.3-0.4-0.6-0.6-0.8
			l0.6-0.3c0.5,0.6,1.2,1.4,1.4,2L185.5,29.7z M180.5,27.2c-0.4-0.4-1.2-1-1.8-1.4l0.5-0.4c0.6,0.4,1.4,1,1.8,1.4L180.5,27.2z
			 M188,29.8c-0.5-0.5-1.5-1.2-2.4-1.7l0.6-0.4c0.8,0.5,1.9,1.2,2.4,1.6L188,29.8z M188.2,25.7c-0.5,0.6-1.2,1.1-1.8,1.5l-0.6-0.4
			c0.6-0.4,1.3-1.1,1.7-1.5L188.2,25.7z"/>
		<path d="M192.9,34.6c0.7-0.3,1.2-0.9,1.2-1.6c0,0-0.1,0-0.1,0c-0.4,0-0.7-0.3-0.7-0.7c0-0.4,0.4-0.7,0.8-0.7
			c0.5,0,0.9,0.5,0.9,1.2c0,1.1-0.6,2-1.7,2.4L192.9,34.6z"/>
		<path d="M196.5,26.6c0-1.8,0.8-2.8,2-2.8s2,1,2,2.8c0,1.8-0.8,2.8-2,2.8S196.5,28.4,196.5,26.6z M199.7,26.6
			c0-1.4-0.5-2.1-1.2-2.1c-0.7,0-1.2,0.7-1.2,2.1c0,1.4,0.5,2.2,1.2,2.2C199.2,28.8,199.7,28.1,199.7,26.6z M203.6,23.9h0.7
			l-4.9,9.1h-0.7L203.6,23.9z M202.6,30.2c0-1.8,0.8-2.8,2-2.8c1.2,0,2,1,2,2.8c0,1.8-0.8,2.8-2,2.8C203.3,33,202.6,32,202.6,30.2z
			 M205.7,30.2c0-1.4-0.5-2.1-1.2-2.1s-1.2,0.7-1.2,2.1c0,1.4,0.5,2.2,1.2,2.2S205.7,31.6,205.7,30.2z"/>
	</g>
</g>
</svg>
